<?xml version="1.0" encoding="UTF-8"?>
<svg id="_レイヤー_2" data-name="レイヤー 2" xmlns="http://www.w3.org/2000/svg" viewBox="0 0 60.3808594 200.8383789">
  <defs>
    <style>
      .cls-1 {
        fill: #fff;
      }

      .cls-2 {
        fill: #d2b2da;
      }
    </style>
  </defs>
  <g id="_レイヤー_1-2" data-name="レイヤー 1">
    <g>
      <path class="cls-1" d="m26.8730469,158.1523438s.8847656.6748047,1.4248047,1.1699219c-.0449219.1650391-.1796875.2397461-.3896484.2397461h-13.2597656l-.1201172-.4350586h6.3300781v-4.4248047h-4.5898438l-.1201172-.4350586h4.7099609v-3.8696289h-5.1894531l-.1347656-.4350586h9.8994141l.7646484-.9599609s.8701172.675293,1.4248047,1.1547852c-.0449446.1650391-.1943359.2402344-.4052734.2402344h-5.3242188v3.8696289h2.9248047l.7646484-.9296875s.8398438.6450195,1.3652344,1.1401367c-.0146484.1645508-.1796875.2246094-.3896484.2246094h-4.6650391v4.4248047h4.2001953l.7792969-.9746094Zm-7.7099609-11.6845703c4.3505859.8398438,3.9599609,3.4199219,2.7158203,2.8198242-.4804688-.9301758-1.8154297-2.0698242-2.8505859-2.6547852l.1347656-.1650391Z"/>
      <path class="cls-1" d="m42.9082031,159.262207c.3154297.2397461.4804688.4799805.3896484.659668-.1494141.3901367-.8544922.300293-1.6191406.0302734-1.1699219-.3452148-2.0400391-.9599609-2.6855469-1.7402344-1.0947266.7050781-2.415062,1.3051758-3.8095703,1.6650391l-.1201172-.2250977c1.2753906-.4799805,2.4902344-1.199707,3.5097656-2.0097656-.4501953-.7050781-.75-1.5146484-.9599609-2.3549805h-3.4042969v1.1401367c.8398438-.1352539,1.7246094-.2998047,2.5947266-.4648438l.0449219.2700195c-.75.2246094-1.6201172.4799805-2.6396484.7348633v1.8598633c0,.75-.1806641,1.2597656-1.5302734,1.3798828-.0146484-.2548828-.1201172-.5097656-.3154297-.6450195-.2099609-.1499023-.5693359-.2700195-1.2597656-.3598633v-.2250977s1.5.1049805,1.8154297.1049805c.2695312,0,.3447266-.074707.3447266-.2851562v-1.5898438c-.8701172.1953125-1.8154297.4199219-2.8798828.6450195-.0605469.1801758-.1796875.2851562-.3154297.3300781l-.6142578-1.0351562c.8242188-.074707,2.2041016-.284668,3.8095703-.5546875v-1.3051758h-3.5996094l-.1201172-.449707h3.7197266v-1.2299805c-1.0351562.1049805-2.1298828.1796875-3.1503906.1948242l-.0742188-.2700195c1.9648438-.2099609,4.3945312-.7348633,5.6699219-1.1699219l.9296875.9150391c-.1347656.1049805-.390625.1049805-.7050781-.0449219-.4951172.0898438-1.0800781.1796875-1.7246094.2548828v1.3500977h3.2998047c-.1650391-.8100586-.2548828-1.6352539-.3007812-2.4448242l1.4550781.1347656c-.0292969.1948242-.1650391.3452148-.4345703.3901367.0302734.6000977.1044922,1.2597656.2402344,1.9199219h2.8945312l.6601562-.8251953s.7646484.6000977,1.2148438,1.0351562c-.0302734.1650391-.1650391.2397461-.375.2397461h-4.2900391c.1650391.6000977.390625,1.2001953.7197266,1.7402344.5556641-.5249023,1.0205078-1.0649414,1.3505859-1.6049805l1.2597656.659668c-.1054688.1503906-.2402344.2099609-.5849609.1352539-.4052734.4951172-.9296875.9897461-1.5449219,1.4550781.5097656.5996094,1.2148438,1.0795898,2.1445312,1.3349609.2851332.0898438.390625.074707.4804688-.090332.1494141-.2548828.359375-.8100586.4794922-1.2148438l.1953125.0449219-.1650391,1.5151367Zm-7.0351562-7.5595703v-1.2451172h-4.8447266l-.1347656-.4501953h4.9794922v-1.199707h-5.5947266l-.1191406-.4350586h4.0644531c-.2246094-.6000977-.8701172-1.3198242-1.3798828-1.7250977l.1494141-.1196289c2.1308594.2998047,2.3554688,1.4697266,1.9199219,1.8447266h2.5957031c.375-.5698242.8095703-1.3647461,1.0800781-1.949707l1.4990234.5546875c-.0898438.1650391-.2841797.2548828-.5996094.2402344-.3603516.3598633-.9453125.7949219-1.5,1.1547852h2.8046875l.6904297-.8251953s.7646484.5849609,1.2597656,1.0200195c-.0302734.1650391-.1953125.2402344-.4052734.2402344h-5.4746094v1.199707h3.375l.6455078-.75s.7490234.5253906,1.2148438.9599609c-.0449219.1650391-.1650391.2402344-.375.2402344h-4.8603516v1.2451172h4.3046875l.7207031-.8251953s.7792969.5849609,1.2744141,1.0351562c-.0302734.1645508-.1796875.2397461-.3896484.2397461h-12.9296875l-.1347656-.449707h6.1640625Zm3.2851562.8398438c2.7900391.5546875,2.1904297,2.324707,1.2597656,1.784668-.2099609-.5546875-.8847656-1.2597656-1.4091797-1.6499023l.1494141-.1347656Z"/>
    </g>
    <g>
      <path class="cls-1" d="m2.5498047,184.6220703c0-5.3037109,0-6.2553711-.0683594-7.3432617-.0683594-1.15625-.4082031-1.7338867-1.15625-1.9038086-.3740234-.1020508-.8154297-.1362305-1.0537109-.1362305-.1357422,0-.2714844-.0678711-.2714844-.2041016,0-.2036133.1699219-.2719727.5439453-.2719727,1.1210938,0,3.2636719.1020508,3.4335938.1020508s2.3115234-.1020508,3.3310547-.1020508c.3740234,0,.5439453.0683594.5439453.2719727,0,.1362305-.1357422.2041016-.2714844.2041016-.2382812,0-.4423828.0341797-.8496094.1020508-.9179688.1699219-1.1904297.7480469-1.2578125,1.9379883-.0683594,1.0878906-.0683594,2.0395508-.0683594,7.3432617v5.9833984c0,3.2636719,0,5.9492188.1699219,7.3769531.1015625.9858398.3056641,1.7338867,1.3261719,1.8701172.4755859.0678711,1.1894531.1357422,1.3935547.1357422.3056641,0,.4081809.1020508.4081809.2041016,0,.1699219-.1366965.2719727-.51072.2719727-1.8691406,0-4.0449219-.1020508-4.2148438-.1020508s-2.3125.1020508-3.3320312.1020508c-.3740234,0-.5439453-.0678711-.5439453-.2719727,0-.1020508.0683594-.2041016.3740234-.2041016.2041016,0,.578125-.0341797.8837891-.1020508.6796875-.1357422.8837891-.9179688,1.0205078-1.9038086.1699219-1.4277344.1699219-4.1132812.1699219-7.3769531v-5.9833984Z"/>
      <path class="cls-1" d="m15.0273438,200.090332c-.4414062-.2041016-.4414062-.3398438-.4414062-1.1557617,0-1.5639648.1015625-2.7197266.1357422-3.1958008.0341797-.3061523.1015625-.4760742.2714844-.4760742.1708984,0,.2382812.1020508.2382812.3398438,0,.2041016,0,.6123047.1025391,1.0200195.4414062,2.2099609,2.4472656,3.0600586,4.4189453,3.0600586,2.8222656,0,4.1816406-1.9379883,4.1816406-3.6376953,0-1.9379883-.8837891-3.1279297-3.3652344-5.1337891l-1.3603516-1.0537109c-3.2636719-2.6176758-3.9433594-4.4194336-3.9433594-6.425293,0-3.1279297,2.4814453-5.2358398,6.2890625-5.2358398,1.1904297,0,2.0058594.1020508,2.7539062.2724609.6464844.1357422.9179688.1699219,1.15625.1699219.2373047,0,.3056641.0678711.3056641.2036133,0,.1362305-.1357422,1.3261719-.1357422,3.2978516,0,.5097656-.0683594.7138672-.2382812.7138672s-.2041016-.1357422-.2382812-.3740234c-.0332031-.3056641-.1015625-1.0200195-.4072266-1.5976562-.1699219-.3061523-.9521484-1.5981445-3.8076172-1.5981445-2.0400391,0-3.5703125,1.2241211-3.5703125,3.2636719,0,1.5981445.8164062,2.5839844,3.6376953,4.7255859l.7822266.6123047c3.5361328,2.7197266,4.453125,4.5214844,4.453125,6.9350586,0,1.2241211-.5097656,3.3999023-2.5830078,4.8276367-1.3261719.8496094-2.9580078,1.1899414-4.5898438,1.1899414-1.4277344,0-2.7539062-.1699219-4.0458984-.7480469Z"/>
      <path class="cls-1" d="m56.5732422,196.7246094c.1025391.815918.3066406,2.7197266,1.6318359,3.0258789.578125.1357422,1.2578125.2036133,1.734375.237793.1357422,0,.4414062.0341797.4414062.2041016s-.1357422.2719727-.5097656.2719727c-.6123047,0-4.2832031-.1362305-5.3710938-.2041016-.7480469-.0678711-1.0205078-.1357422-1.0205078-.3061523,0-.1015625.1367188-.237793.3066406-.3056641s.2714844-.4760742.203125-.9521484l-1.4951172-14.550293-7.2080078,14.6186523c-.6455078,1.3256836-.7470703,1.6318359-1.0537109,1.6318359-.2041016,0-.3740234-.3061523-1.0195312-1.4619141-.5439453-.9858398-3.2636719-6.425293-3.4677734-6.7314453-.2041016-.4082031-3.5351562-7.003418-3.8076172-7.7172852l-1.2578125,13.0888672c-.0341797.4760742-.0341797.7817383-.0341797,1.2915039,0,.3740234.1699219.8842773.8496094,1.0200195.3740234.0678711.6123047.0678711.9521484.1020508.2724609.0341797.3398438.1362305.3398438.2041016,0,.237793-.2041016.2719727-.5771484.2719727-1.0878906,0-2.5498047-.1020508-2.8222656-.1020508-.3398438,0-1.7675781.1020508-2.6171875.1020508-.3066406,0-.5107422-.0341797-.5107422-.2719727,0-.0678711.1367188-.2041016.4423828-.2041016.2382812,0,.2714844,0,.6455078-.0341797.8164062-.0678711,1.1220703-.8837891,1.2919922-2.2436523l2.2783203-18.6640625c.0673828-.5776367.2041016-.8500977.3740234-.8500977s.2714844.1020508.5097656.5439453l9.1113281,17.6445312,8.6689453-17.6103516c.1699219-.3740234.3056641-.578125.5097656-.578125s.3056641.3061523.3398438.8500977l2.1416016,17.6782227Z"/>
    </g>
    <path class="cls-2" d="m23.2646484,42.9013672c0-23.078125,0-27.2197266-.2958984-31.9541016-.2949219-5.0292969-1.7753906-7.5449219-5.0292969-8.2841797-1.6269531-.4433594-3.5507812-.5917969-4.5859375-.5917969-.5917969,0-1.1835938-.2958984-1.1835938-.8876953,0-.8876953.7402344-1.1835938,2.3671875-1.1835938,4.8808594,0,14.2011719.4443359,14.9414062.4443359.7392578,0,10.0585938-.4443359,14.4970703-.4443359,1.6279297,0,2.3671875.2958984,2.3671875,1.1835938,0,.5917969-.5917969.8876953-1.1835938.8876953-1.0361328,0-1.9228516.1484375-3.6982422.4433594-3.9941406.7402344-5.1777344,3.2548828-5.4736328,8.4326172-.2958984,4.734375-.2958984,8.8759766-.2958984,31.9541016v26.0361328c0,14.2011719,0,25.8886719.7402344,32.1015625.4433594,4.2900391,1.3300781,7.5449219,5.7685547,8.1367188,2.0712891.2958984,5.1777344.5917969,6.0654297.5917969,1.3320312,0,1.7753906.4433594,1.7753906.8876953,0,.7392578-.5917969,1.1826172-2.21875,1.1826172-8.1367188,0-17.6044922-.4433594-18.34375-.4433594-.7402344,0-10.0605469.4433594-14.4980469.4433594-1.6269531,0-2.3671875-.2958984-2.3671875-1.1826172,0-.4443359.296875-.8876953,1.6269531-.8876953.8886719,0,2.515625-.1484375,3.8476562-.4443359,2.9580078-.5917969,3.8457031-3.9941406,4.4375-8.2841797.7392578-6.2128906.7392578-17.9003906.7392578-32.1015625v-26.0361328Z"/>
  </g>
</svg>