<?xml version="1.0" encoding="UTF-8"?>
<svg id="_レイヤー_2" data-name="レイヤー 2" xmlns="http://www.w3.org/2000/svg" viewBox="0 0 355.1849976 70.7369911">
  <defs>
    <style>
      .cls-1 {
        fill: #d1dbfa;
      }

      .cls-2 {
        fill: #ede1bf;
      }

      .cls-3 {
        fill: #5a544e;
      }

      .cls-4 {
        fill: #b2b2e8;
      }

      .cls-5 {
        fill: #c8bcc7;
      }

      .cls-6 {
        fill: #d2b2da;
      }
    </style>
  </defs>
  <g id="_レイヤー_1-2" data-name="レイヤー 1">
    <g>
      <g>
        <g>
          <path class="cls-4" d="m114.5695143,35.3678431c0-5.3514764,0-6.3120487-.0721532-7.4097963-.0721532-1.1663352-.3609475-1.715209-1.5517472-1.9553521-.2887944-.0685876-.902187-.1028814-1.2269671-.1028814-.1444881,0-.2887944-.068674-.2887944-.2058493,0-.2058493.1804738-.2744369.577407-.2745233,1.6240821,0,3.7892219.1029678,4.0780163.1029678.7938664,0,2.8870349-.1029678,4.5471027-.1028814,4.5109352,0,6.1348355,1.4407721,6.7122425,1.9553521.7940482.7204293,1.8043741,2.2640828,1.8043741,4.4938719,0,4.4596644-3.7530545,7.7529072-8.8775641,7.7529072-.1804738,0-.577407,0-.7578807-.0342938-.1804738,0-.3969332-.068674-.3969332-.2401431,0-.2744369.2164595-.3087307.9743402-.3087307,3.5006093,0,6.2431561-2.2641692,6.2431561-5.8661427,0-.8576045-.1081389-3.1559812-2.0208335-5.0084518s-4.114002-1.715209-4.9440359-1.715209c-.6135744,0-1.2269671.0685876-1.5517472.2057629-.2166412.068674-.2887944.3088171-.2887944.6518416v14.0991634c0,3.2932428,0,6.003318.1804738,7.4440901.1083206.9948662.3247801,1.7495892,1.4074409,1.8867645.5052538.0685876,1.2991203.1372616,1.6239003.1372616.2166412,0,.2887944.1028814.2887944.2057629,0,.1715555-.1804738.2744369-.577407.2744369-1.9848478,0-4.25849-.1028814-4.4387821-.1028814-.1083206,0-2.3817811.1028814-3.4644419.1028814-.397115,0-.577407-.0685876-.577407-.2744369,0-.1028814.0721532-.2057629.2886126-.2057629.3247801,0,.7578807-.068674,1.0826608-.1372616.7217133-.1371753.902187-.8918983,1.0464933-1.8867645.1804738-1.4407721.1804738-4.1508473.1804738-7.4440901v-6.0376118Z"/>
          <path class="cls-5" d="m136.2936112,35.3678431c0-5.3514764,0-6.3120487-.0721532-7.4097963-.0721532-1.1663352-.3609475-1.715209-1.5517472-1.9553521-.2887944-.0685876-.902187-.1028814-1.2269671-.1028814-.1444881,0-.2887944-.068674-.2887944-.2058493,0-.2058493.1804738-.2744369.577407-.2745233,1.6240821,0,3.8975425.1029678,4.0780163.1029678.3969332,0,3.1396618-.1029678,4.2583083-.1028814,2.2736422,0,4.691409.2058493,6.6041036,1.5093598.902187.6175478,2.4901017,2.298463,2.4901017,4.6654273,0,2.5386061-1.1188282,5.0771259-4.3666289,7.9243763,2.959188,3.6019735,5.4131222,6.6551596,7.5062907,8.7819808,1.9486804,1.9553521,3.5004276,2.3327568,4.4026146,2.4699321.6857276.1029678,1.1909814.1029678,1.4074409.1029678.1804738,0,.3247801.1028814.3247801.2057629,0,.2058493-.2164595.2744369-.8660196.2744369h-2.5622548c-2.0210153,0-2.9232023-.1714691-3.8613751-.6517552-1.5517472-.7890169-2.8148817-2.4699321-4.8718827-5.0427457-1.5157615-1.8867645-3.2118149-4.1852275-3.9335282-5.0771259-.1444881-.1371753-.2526269-.2058493-.4692681-.2058493l-4.4387821-.0685876c-.1804738,0-.2526269.1028814-.2526269.2744369v.8233107c0,3.2932428,0,6.003318.1804738,7.4440901.1083206.9948662.3247801,1.7495892,1.4074409,1.8867645.5052538.0685876,1.2991203.1372616,1.6239003.1372616.2166412,0,.2887944.1028814.2887944.2057629,0,.1715555-.1804738.2744369-.577407.2744369-1.9848478,0-4.25849-.1028814-4.4387821-.1028814-.0361674,0-2.3096279.1028814-3.3922887.1028814-.397115,0-.577407-.0685876-.577407-.2744369,0-.1028814.0721532-.2057629.2886126-.2057629.3247801,0,.7578807-.068674,1.0826608-.1372616.7217133-.1371753.902187-.8918983,1.0464933-1.8867645.1804738-1.4407721.1804738-4.1508473.1804738-7.4440901v-6.0376118Zm2.8870349,2.9845121c0,.1715555.0721532.3087307.2526269.4116122.5412395.3088171,2.2013073.5488738,3.7892219.5488738.8662013,0,1.8765272-.1028814,2.7065611-.6517552,1.2631346-.8233107,2.201489-2.6757814,2.201489-5.2828887,0-4.288109-2.3819628-6.8609225-6.2433379-6.8609225-1.0826608,0-2.057001.1028814-2.4177668.2058493-.1804738.0685876-.2887944.2057629-.2887944.4116122v11.2176191Z"/>
          <path class="cls-6" d="m165.6679416,35.3678431c0-5.3514764,0-6.3120487-.0721532-7.4097963-.0721532-1.1663352-.4331007-1.7495028-1.2269671-1.9210583-.3969332-.1028814-.8662013-.1371753-1.1188282-.1371753-.1443063,0-.2886126-.068674-.2886126-.2058493,0-.2058493.1804738-.2744369.577407-.2745233,1.1909814,0,3.4644419.1029678,3.6449156.1029678s2.4539342-.1029678,3.536595-.1028814c.3969332,0,.577407.0685876.577407.2744369,0,.1371753-.1443063.2058493-.2887944.2058493-.2526269,0-.4690864.0342938-.902187.1028814-.9743402.1715555-1.2629528.7547231-1.3352877,1.9553521-.0721532,1.0977476-.0721532,2.0583199-.0721532,7.4097963v6.0376118c0,3.2932428,0,6.003318.1804738,7.4440901.1083206.9948662.3247801,1.7495892,1.4074409,1.8867645.5052538.0685876,1.2631346.1372616,1.479594.1372616.3247801,0,.4331007.1028814.4331007.2057629,0,.1715555-.1443063.2744369-.5412395.2744369-1.9848478,0-4.2944757-.1028814-4.4749495-.1028814s-2.4539342.1028814-3.536595.1028814c-.397115,0-.577407-.0685876-.577407-.2744369,0-.1028814.0721532-.2057629.3969332-.2057629.2164595,0,.6133927-.0343802.9381727-.1029678.721895-.1371753.9383545-.9261921,1.0826608-1.9210583.1804738-1.4407721.1804738-4.1508473.1804738-7.4440901v-6.0376118Z"/>
          <path class="cls-2" d="m177.7925794,50.907865c-.5052538-.2401431-.5412395-.3774047-.5412395-1.3035969,0-1.715209.1443063-3.0873935.180292-3.6362673.0361674-.3774047.1083206-.5488738.2887944-.5488738.2164595,0,.2526269.1028814.2526269.3773183,0,.3087307,0,.7890169.1083206,1.2693031.5412395,2.5385197,2.9230206,3.4990921,5.3409691,3.4990921,3.4644419,0,5.1604953-2.3670507,5.1604953-4.5625459,0-2.3670507-1.0464933-3.7392352-4.1499877-6.1748735l-1.6240821-1.2692167c-3.8252076-2.9845121-4.691409-5.1114197-4.691409-7.4440901,0-3.6706475,2.8870349-6.1748735,7.470305-6.1748735,1.4074409,0,2.4539342.1372616,3.3561213.3430245.6857276.1372616.9743402.1715555,1.2631346.1715555.2886126,0,.3607658.0685876.3607658.2401431s-.1443063,1.3035969-.1443063,3.6362673c0,.5488738-.0721532.7890169-.2526269.7890169-.2164595,0-.2526269-.1715555-.2886126-.4459924-.0361674-.4116122-.2526269-1.3378907-.4692681-1.715209-.2164595-.3773183-1.1907997-1.8181769-4.5109352-1.8181769-2.4901017,0-4.4387821,1.4751523-4.4387821,3.9793783,0,1.9553521.9381727,3.1903614,4.4026146,5.7631749l1.0105076.7547231c4.2583083,3.190275,5.2688159,5.3171826,5.2688159,8.0615516,0,1.4064783-.577407,4.0136721-3.0675086,5.6945873-1.5517472,1.02916-3.5004276,1.4407721-5.4491079,1.4407721-1.6962352,0-3.356303-.2401431-4.835897-.9261921Z"/>
          <path class="cls-1" d="m227.5208237,46.9284867c.1443063,1.2350092.3969332,3.1560675,1.9486804,3.6363537,1.0464933.3087307,1.8765272.3087307,2.2374748.3087307.1804738,0,.3969332.0342938.3969332.2057629,0,.2058493-.1083206.2744369-.5412395.2744369-.7940482,0-4.9080502-.1028814-6.2433379-.2057629-.8300339-.068674-1.0103259-.1715555-1.0103259-.3431109,0-.1371753.0721532-.1714691.2526269-.2400567.2524452-.1029678.2164595-.6175478.1443063-1.2350092l-1.7322209-17.9069862-8.949899,18.0442478c-.7578807,1.5093598-.8660196,1.8180905-1.1907997,1.8180905-.2526269,0-.4331007-.3430245-1.1188282-1.5780338-.9381727-1.6809152-4.0418488-7.6155592-4.2223226-7.9586701-.3247801-.6174614-4.4747678-9.0907115-4.871701-10.0169037l-1.4797758,16.1574833c-.0359857.5488738-.0721532,1.02916-.0721532,1.6123276,0,.8576045.4331007,1.1320414.9743402,1.2349229.6135744.1372616,1.0826608.1372616,1.299302.1372616.2164595,0,.3607658.0685876.3607658.1714691,0,.2401431-.180292.3087307-.5412395.3087307-1.3352877,0-3.1758292-.1028814-3.4644419-.1028814-.3247801,0-2.057001.1028814-3.0313412.1028814-.3609475,0-.6135744-.0342938-.6135744-.2744369,0-.1371753.1804738-.2057629.3609475-.2057629.2886126,0,.5412395,0,1.0826608-.1029678,1.1907997-.2057629,1.2629528-1.4407721,1.4434266-2.8472505l2.5984223-22.2979766c.0359857-.3774047.180292-.6861354.3969332-.6861354.2164595,0,.3607658.1372616.5412395.51458l11.0428857,21.5776337,10.6099668-21.5433399c.1443063-.3087307.2886126-.5488738.5412395-.5488738s.3609475.2744369.4331007.9262785l2.4179485,21.0629673Z"/>
        </g>
        <g>
          <g>
            <path class="cls-3" d="m115.940422,8.8086766h.9155033c.2995044,0,.6786007.048907.6786007.3799036v2.9803085s-1.0280734.3540683-2.8904027.3540683c-1.8601946,0-4.3542931-.959049-4.3542931-3.6170462,0-2.649265,2.5963874-3.6886053,4.5187046-3.6886053.8613093,0,1.9427489.0487413,1.9427489.5024872v.8876555c-.7310957-.5582741-1.0257209-.6573662-2.1354337-.6573662-1.1093208,0-3.0939785.6836625-3.0939785,2.8935403,0,2.2125393,2.6638249,3.5266504,4.8750169,2.6951903v-1.6942743c0-.3550567-.021695-1.0358618-.4564665-1.0358618Z"/>
            <path class="cls-3" d="m129.8607769,12.345633h2.3530795c-.6517651-.2271007-.918727-.9580551-1.1321048-1.4908555-.2207838-.5308126-1.9223172-4.396949-2.113303-4.9329795-.1878492-.5283693-.4596902-.5283693-.6747671-.5283693h-1.3530628c.6521572.2025851.2967175.6338859.1897224.9341606-.1080394.3061552-2.3817897,5.5636766-2.3817897,5.5636766-.7859867-.2008044-2.7553087-2.9097433-2.7553087-2.9097433,2.6261842-.7077226,2.2184226-3.588094-.3460746-3.588094h-2.9476026c.5922128.1223296.5385852.7083023.5385852,1.1598533v4.7839395c0,.6575732-.2171679.8316672-.563896,1.0084115h2.1575644c-.5922128-.2511608-.435425-.8339034-.435425-1.108296v-5.1604528h1.1659107c.6200504,0,1.079305.7089235,1.079305,1.1913675,0,.7787019-.6483671,1.0842304-1.2973442,1.3129102-.6471038.2246574-.2961064.7312029,0,1.1388163.3029024.4030167,1.1652573,1.5400054,1.678096,2.0960846.5156257.5542101.9678664.5295703,1.2180125.5295703h1.9470182c-.7549242-.2271007-.353132-.7817249-.247836-1.0575255.1080818-.2843314.5985732-1.4696583.5985732-1.4696583h2.9154944s.3524786.857969.6764661,1.6182428c.3254251.7615161.0818573.8599926-.2693131.908941Zm-3.0280234-3.3353651l1.1131544-2.7083536,1.1835543,2.7083536h-2.2967086Z"/>
            <path class="cls-3" d="m153.5296843,12.345633h2.3566948c-.6494108-.2271007-.9202082-.9580551-1.1318435-1.4908555-.2167739-.5308126-1.9217073-4.396949-2.1099486-4.9329795-.1908115-.5283693-.4596902-.5283693-.6768582-.5283693h-1.3503165c.6500643.2025851.2965402.6338859.1903759.9341606-.1114828.3061552-2.3798746,5.5636766-2.3798746,5.5636766-.1523007.3279791-.3743914.3358473-.5094406.454367h1.941442c-.75706-.2271007-.3488627-.7817249-.2443956-1.0575255.1042057-.2843314.5939118-1.4696583.5939118-1.4696583h2.9233372s.3526964.857969.6749413,1.6182428c.3197182.7615161.0778494.8599926-.2780253.908941Zm-3.020747-3.3353651l1.1043962-2.7083536,1.1933562,2.7083536h-2.2977524Z"/>
            <path class="cls-3" d="m145.2131315,12.4772387c.2710134-.2321115.5154089-.4076134.5154089-1.2172552v-4.7790888c0-.3791637-.0208221-.8086424-.5154089-.9651365h2.0854655c-.2150333.1795603-.4718011.4060398-.4718011.912958v4.8312673c0,.4304781-.0986731,1.0639912.5047793,1.2172552h-2.1184436Z"/>
            <path class="cls-3" d="m134.0206412,7.0116659s-.0265742,3.8176021-.0265742,4.2483176c0,.4304781.0595524,1.0639912.6522008,1.2172552h-1.9763805c.2724945-.2321115.4892704-.4076134.4892704-1.2172552,0-.8069804.0506217-4.4028239.0506217-4.7790888,0-.3791637-.0506217-.8086424-.5398921-.9651365h1.5164724l4.5387005,5.3390192v-4.3506509c0-.2778298.0568093-.808808-.5645059-1.0112275h2.0269586c-.2442198.1793532-.6002722.2517405-.6002722.9879956v6.2754161s-.5598881.0974413-1.4809676-.9402481c-.9208181-1.0352875-4.0856321-4.8043967-4.0856321-4.8043967Z"/>
            <path class="cls-3" d="m146.9382768,17.8577109c-5.9456524-4.6869123-8.2176601-10.2048706-.0872157-17.7377884.2528923-.2315375.4966763-.0932231.2961064.1227437-3.5670429,3.80874-7.5365326,9.9088198-.0829899,17.380697.1174493.1195136.0706177.3607356-.1259008.2343477Z"/>
          </g>
          <path class="cls-3" d="m157.514704,12.4059733c-.5510188,0-.9993064-.426135-.9993064-.9499246s.4482876-.9499246.9993064-.9499246.9993064.426135.9993064.9499246-.4482876.9499246-.9993064.9499246Zm0-1.7792239c-.4810649,0-.8724103.3720067-.8724103.8292993s.3913454.8292993.8724103.8292993.8724103-.3720067.8724103-.8292993-.3913454-.8292993-.8724103-.8292993Z"/>
          <path class="cls-3" d="m157.7557321,11.9714158c-.0220581-.0195545-.0353177-.0349272-.0353177-.1090222v-.1230402c0-.0726815-.0234832-.1677446-.1382349-.1677446h-.2749827v.3998071h-.1985229v-1.0204857h.5058493c.20001,0,.3309335.1174448.3309335.2767668,0,.067145-.0235452.1286356-.0661743.1747536-.041204.0447633-.0765218.0629042-.1676664.0824587.1044042.014018.2058963.0433497.2058963.2348896v.1034268c0,.1020721.039717.1286356.0690865.1481901h-.2308665Zm-.1676664-.8611048h-.280869v.3019168h.2485254c.1102905,0,.1779519-.0544817.1779519-.1593221,0-.0922949-.0573759-.1425947-.1456083-.1425947Z"/>
        </g>
        <g>
          <path class="cls-3" d="m245.8143921,39.243725c1.3227539.0305176,2.0268555.0456543,2.1118164.0456543.0107422.1113281.0161133.1945801.0161133.25,0,.0656738-.0078125.1643066-.0239258.2956543-.1328125.0200195-.2685547.0302734-.40625.0302734h-.3032227c-.6586914,0-1.1157227.0227051-1.3706055.0681152-.0107422.1162109-.0161133.2045898-.0161133.2651367,0,.0253906.0029297.0632324.0083008.1135254.0263672.7929688.0395508,1.2727051.0395508,1.4394531l-.015625,1.9467773c0,.2880859.050293.527832.1513672.7197266.0581055.111084.1674805.199707.3266602.2651367.1010742.0454102.3452148.0910645.7333984.1364746.2919922.0405273.4887695.0681152.5893555.083252,0,.105957-.0078125.1870117-.0239258.2424316l-.1113281.0075684c-.2548828-.0151367-.5874023-.0275879-.9960938-.0378418l-.5898438-.0227051-2.0083008.0605469h-.2631836l-.0078125-.2348633c.0795898-.0151367.1381836-.0275879.175293-.0378418.4570312-.0808105.7519531-.1716309.8847656-.2727051.0527344-.0402832.090332-.1137695.1113281-.2197266.0107422-.0605469.0161133-.3432617.0161133-.8483887,0-1.4394531-.0131836-2.5883789-.0400391-3.4470215-.1381836-.0402832-.3505859-.0654297-.637207-.0756836-.1064453,0-.2739258-.0100098-.5024414-.0302734l-.015625-.0847168c0-.0615234.0263672-.112793.0795898-.1538086.0209961-.0200195.2441406-.1254883.6694336-.3161621.1645508-.0703125.2817383-.1582031.3505859-.2634277.0371094-.0556641.0585938-.1721191.0639648-.3491211.0048828-.0808105.0209961-.2199707.0478516-.4174805.0634766-.5209961.1137695-.8422852.1513672-.9638672.0957031-.3388672.2563477-.6765137.4819336-1.0131836.2255859-.3361816.4980469-.6311035.8168945-.8840332.2338867-.1821289.4980469-.3186035.7929688-.4099121.2949219-.0910645.6308594-.1364746,1.0083008-.1364746.5043945,0,.8735352.0776367,1.1074219.2331543.159668.1054688.2392578.2409668.2392578.4064941,0,.140625-.0556641.2609863-.1674805.3613281-.1113281.1003418-.2495117.1503906-.4145508.1503906-.2016602,0-.4194336-.0478516-.6533203-.1437988-.440918-.166748-.6904297-.2575684-.7490234-.2727051-.1010742-.0253906-.2045898-.0378418-.3110352-.0378418-.2919922,0-.559082.088623-.8007812.2661133-.2416992.1777344-.3945312.395752-.4580078.6542969-.0639648.2587891-.0957031.8393555-.0957031,1.7421875,0,.3244629.0024414.6213379.0078125.8898926Z"/>
          <path class="cls-3" d="m248.730896,42.0999261c0-.3432617.0756836-.7106934.2275391-1.1022949.1513672-.3911133.3808594-.7421875.6889648-1.0529785.3081055-.3105469.6347656-.5415039.9804688-.6931152.4833984-.2121582,1.0732422-.3181152,1.769043-.3181152.9936523,0,1.8237305.3232422,2.4902344.9697266.6669922.6464844,1.0004883,1.4240723,1.0004883,2.333252,0,.8081055-.3496094,1.5290527-1.0478516,2.1628418-.6987305.6337891-1.5820312.9506836-2.6499023.9506836-.6591797,0-1.2807617-.1643066-1.8647461-.4924316-.4360352-.2473145-.8105469-.6135254-1.1240234-1.0983887s-.4702148-1.0378418-.4702148-1.6591797Zm3.5263672,2.9545898c.4047852,0,.7944336-.1035156,1.1694336-.310791.3754883-.2070312.6748047-.5388184.8984375-.9960938.2231445-.4570312.3349609-.986084.3349609-1.5871582,0-.3937988-.0864258-.8508301-.2592773-1.3710938-.1728516-.5200195-.4389648-.9101562-.7983398-1.1704102-.359375-.2600098-.78125-.3901367-1.2651367-.3901367-.3515625,0-.7094727.0783691-1.0737305.2348633-.3647461.1567383-.6733398.4570312-.9262695.9016113-.2524414.4443359-.3789062,1.0756836-.3789062,1.8937988,0,.9191895.2192383,1.6147461.6586914,2.0869141.4389648.4724121.9858398.7084961,1.6401367.7084961Z"/>
          <path class="cls-3" d="m256.8041382,45.1680414l-.0317383-.0983887c0-.0354004.0239258-.0883789.0717773-.1591797l.4702148-.0908203.6611328-.1132812c.0532227-.0253906.090332-.0605469.1118164-.105957.0317383-.0654297.0478516-.2595215.0478516-.5825195,0-1.7141113-.0107422-2.7036133-.0322266-2.9682617-.0209961-.2646484-.0688477-.432373-.1430664-.5029297-.074707-.0705566-.265625-.1262207-.5737305-.1665039-.1806641-.0251465-.3242188-.0578613-.4306641-.0983887l.0322266-.230957c.5576172-.2177734.9321289-.4050293,1.1235352-.5620117.265625-.2277832.4912109-.5266113.6772461-.8962402l.2709961.0075684c.0317383.2524414.0478516.8132324.0478516,1.6816406l-.0078125.1289062c0,.0302734.0048828.0783691.015625.1437988.2021484-.3483887.4545898-.6689453.7573242-.9619141l.1831025-.1743164c.0742218-.0808105.1459991-.144043.215335-.1894531.371582-.2121582.6479492-.3181152.8286133-.3181152.2338867,0,.425293.0744629.5737305.2233887.1489258.1491699.2231445.3322754.2231445.5493164,0,.1716309-.0532227.3056641-.1591797.4013672-.1435547.1264648-.3081055.1894531-.4941406.1894531-.0849609,0-.2524414-.0427246-.5019531-.1286621-.25-.0859375-.4145508-.1289062-.4941406-.1289062-.1489258,0-.2524414.0227051-.3110352.0681152-.1484375.1113281-.3291016.338623-.5415039.6818848-.1650391.2575684-.2470703.4951172-.2470703.7121582l.0395508,1.2526855.0161133,1.503418c.015625.1721191.0371094.2832031.0634766.3339844.0214844.0354004.074707.0783691.159668.1289062.5737305.0456543.9135742.0786133,1.0200195.098877.0742188.005127.1298828.0100098.1674805.0151367.2280273.005127.3876953.0354004.4780273.0910645.0478516.0253906.0717773.0632324.0717773.1137695,0,.0302734-.0214844.0705566-.0639648.1210938l-.8842773-.0151367-.3349609-.0075684-.4858398.0075684h-.8129883l-.4384766.0227051-1.3388672.0227051Z"/>
          <path class="cls-3" d="m272.4794312,44.1150629c.0317383.0656738.0478516.1135254.0478516.144043,0,.0756836-.0639648.2094727-.1914062.4013672-.1645508.2526855-.3481445.4370117-.5498047.5529785-.1274414.0759277-.3027344.1137695-.5258789.1137695-.3828125,0-.6694336-.1113281-.8608398-.3334961-.1166992-.1311035-.1992188-.3659668-.2470703-.7043457l-.8925781.5908203c-.3134766.1716309-.5522461.2802734-.7172852.3256836-.265625.0656738-.5844727.0986328-.9560547.0986328-.2709961,0-.4848633-.0771484-.6416016-.2312012s-.2348633-.3522949-.2348633-.5947266c0-.3483887.2246094-.7651367.6748047-1.2497559.449707-.4848633,1.0610352-.8813477,1.8330078-1.1894531.543457-.217041.8759766-.355957.9985352-.416748.0107422-.1665039.015625-.3483887.015625-.5454102,0-.6413574-.0942383-1.0756836-.2836914-1.3029785-.1889648-.2272949-.4594727-.3408203-.8110352-.3408203-.3681641,0-.7119141.1362305-1.03125.4091797-.1972656.1716309-.3466797.494873-.4477539.9694824-.0322266.1313477-.0932617.2727051-.1835938.4243164-.2285156.1413574-.4116211.2121582-.5498047.2121582-.1166992,0-.2231445-.032959-.3188477-.0986328-.0527344-.0351562-.0795898-.0756836-.0795898-.1210938,0-.1313477.1474609-.4279785.4423828-.8901367s.6665039-.8081055,1.1157227-1.0378418c.4487305-.2297363.8408203-.3447266,1.175293-.3447266.4570312,0,.796875.0393066,1.0200195.1174316.2231445.0783691.4199219.2158203.5898438.4128418s.2734375.4116211.3110319.644043c.0209994.111084.0317416.5075684.0317416,1.189209l-.0239258,1.2045898.0078125.8786621c0,.1162109-.0024414.2148438-.0078125.2954102-.0053711.1467285-.0078158.255127-.0078158.3259277,0,.1665039.0502963.3005371.1513705.4013672.1005859.1010742.2202148.1516113.3583984.1516113.2021484,0,.3745117-.0959473.5180664-.2878418l.0957031-.1213379c.0263672-.0151367.0849609-.0327148.175293-.0529785Zm-2.3349609-.2197266c.0371094-.6413574.0556641-1.0932617.0556641-1.355957,0-.1364746-.0078125-.3205566-.0239258-.5529785-.3569336.1210938-.7358398.3056641-1.1352539.5529785-.3999023.2475586-.7172852.532959-.9516602.855957-.1704102.2324219-.2558594.4521484-.2558594.6591797,0,.1970215.0703125.361084.2119141.4924316.1411133.1313477.3183594.1967773.5317383.1967773.1650391,0,.3652344-.0554199.5996094-.1665039.309082-.1464844.6318359-.3737793.9677734-.6818848Z"/>
          <path class="cls-3" d="m276.9740601,35.63435v-.0385742c0-.0512695.0209961-.1230469.0639648-.215332.581543-.0974121,1.2001953-.246582,1.8564453-.4467773.0371094-.005127.0957031-.0075684.175293-.0075684.0263672.0808105.0400391.1337891.0400391.1589355v2.2575684l-.0083008.7197266.0083008.8029785-.0161133.6513672c0,.0253906.0053711.1113281.0161133.2575684l.6533203-.2348633c.0688477-.0200195.2973633-.0856934.6855469-.1967773.4936523-.0759277.7807617-.1137695.8603516-.1137695.53125,0,1.0092773.0808105,1.4345703.2424316.2602539.1010742.5180664.269043.7729492.5039062.2548828.2346191.4438477.4836426.565918.7460938.2124023.4797363.3188477.8937988.3188477,1.2424316,0,.5505371-.0371094.9316406-.1118164,1.1437988-.1806641.505127-.4008789.9040527-.6611328,1.1970215-.2607422.2929688-.6245117.5429688-1.0917969.75-.4677734.2070312-.9643555.3105469-1.4902344.3105469-.4838867,0-.9404297-.0859375-1.3710938-.2575684-.4301758-.1716309-.671875-.2575684-.7250977-.2575684-.1645508,0-.3745117.2070312-.6293945.6210938l-.230957-.0075684c-.0214844-.3378906-.0322266-.7541504-.0322266-1.2485352l.0161133-1.1274414-.0078125-.5749512.015625-1.6496582-.015625-.3178711.0317383-.7792969v-.6657715l.0078125-.2724609c0-.0554199-.0024414-.2749023-.0078125-.6584473v-.4538574c.0161133-.8776855-.0244141-1.3845215-.1201172-1.520752-.1552734-.217041-.4897461-.4035645-1.003418-.5600586Zm3.7929688,9.3139648c.8076172,0,1.4228516-.2158203,1.8452148-.6477051.4223633-.4316406.6333008-1.0744629.6333008-1.9279785,0-.7827148-.2387695-1.4165039-.7172852-1.9013672-.4780273-.4848633-1.0678711-.7272949-1.769043-.7272949-.5097656,0-.9375.0783691-1.2832031.2348633-.2070312.0959473-.3227539.1843262-.3466797.2651367s-.0356445.6210938-.0356445,1.6210938c0,1.1870117.0263672,1.8813477.0795898,2.083252.090332.3132324.2548828.5378418.4941406.6743164.3774414.2172852.7436523.3256836,1.0996094.3256836Z"/>
          <path class="cls-3" d="m291.3505249,41.1455804l-3.1953125.0219727-.605957-.0004883c-.2441406,0-.4941406.010498-.7490234.0314941-.0478516.1513672-.0717773.255127-.0717773.3105469l.0078125.0756836v.0759277l-.0078125.3710938c0,.3081055.1020508.6855469.3066406,1.1325684s.4970703.7878418.8769531,1.0227051.8540039.3598633,1.4223633.375c.3027344-.0151367.5444336-.0505371.7250977-.1062012.1806641-.0554199.4355469-.1843262.7651367-.3862305l.5737305-.4470215.0478516.3029785c0,.0354004-.0024414.0732422-.0078125.1137695-.2392578.2878418-.5419922.5402832-.9086914.7575684-.3666992.217041-.7382812.3759766-1.1157227.4770508-.1806641.0456543-.4780273.0683594-.8925781.0683594-.3769531,0-.7490234-.0732422-1.1157227-.2197266-.5415039-.222168-.9682617-.5795898-1.2788086-1.0720215-.3110352-.4924316-.4663086-1.0895996-.4663086-1.7915039,0-.222168.0439453-.5075684.1313477-.855957.0878906-.3486328.2456055-.7197266.4741211-1.1137695.1542969-.2675781.3427734-.4873047.565918-.6589355.3188477-.2424316.5976562-.4116211.8369141-.5075684.3452148-.1364746.746582-.2045898,1.203125-.2045898.4941406,0,.8979492.0859375,1.2114258.2575684.425293.2272949.7426758.5202637.9526367.8786621.2094727.3586426.3144531.6870117.3144531.9848633v.1062012Zm-4.4467773-.2727051h.3745117c.2709961,0,1.0786133-.0405273,2.4228516-.1213379.2124023-.0100098.3427734-.0302734.390625-.0605469.0952148-.0959473.1430664-.1818848.1430664-.2575684,0-.1564941-.0532227-.3344727-.1591797-.5341797-.1064453-.1994629-.2695312-.3532715-.4902344-.4621582-.2202148-.1083984-.4770508-.1628418-.769043-.1628418-.6162109,0-1.1103516.2197266-1.4824219.6591797-.2866211.333252-.4301758.6464844-.4301758.9394531Z"/>
          <path class="cls-3" d="m298.3158569,44.1150629c.0317383.0656738.0478516.1135254.0478516.144043,0,.0756836-.0639648.2094727-.1914062.4013672-.1645508.2526855-.3481445.4370117-.5498047.5529785-.1274414.0759277-.3027344.1137695-.5258789.1137695-.3828125,0-.6694336-.1113281-.8608398-.3334961-.1166992-.1311035-.1992188-.3659668-.2470703-.7043457l-.8925781.5908203c-.3134766.1716309-.5522461.2802734-.7172852.3256836-.265625.0656738-.5844727.0986328-.9560547.0986328-.2709961,0-.4848633-.0771484-.6416016-.2312012s-.2348633-.3522949-.2348633-.5947266c0-.3483887.2246094-.7651367.6748047-1.2497559.449707-.4848633,1.0610352-.8813477,1.8330078-1.1894531.543457-.217041.8759766-.355957.9985352-.416748.0107422-.1665039.015625-.3483887.015625-.5454102,0-.6413574-.0942383-1.0756836-.2836914-1.3029785-.1889648-.2272949-.4594727-.3408203-.8110352-.3408203-.3681641,0-.7119141.1362305-1.03125.4091797-.1972656.1716309-.3466797.494873-.4477539.9694824-.0322266.1313477-.0932617.2727051-.1835938.4243164-.2285156.1413574-.4116211.2121582-.5498047.2121582-.1166992,0-.2231445-.032959-.3188477-.0986328-.0527344-.0351562-.0795898-.0756836-.0795898-.1210938,0-.1313477.1474609-.4279785.4423828-.8901367s.6665039-.8081055,1.1157227-1.0378418c.4487305-.2297363.8408203-.3447266,1.175293-.3447266.4570312,0,.796875.0393066,1.0200195.1174316.2231445.0783691.4199219.2158203.5898438.4128418s.2734375.4116211.3110352.644043c.0209961.111084.0317383.5075684.0317383,1.189209l-.0239258,1.2045898.0078125.8786621c0,.1162109-.0024414.2148438-.0078125.2954102-.0053711.1467285-.0078125.255127-.0078125.3259277,0,.1665039.050293.3005371.1513672.4013672.1005859.1010742.2202148.1516113.3583984.1516113.2021484,0,.3745117-.0959473.5180664-.2878418l.0957031-.1213379c.0263672-.0151367.0849609-.0327148.175293-.0529785Zm-2.3349609-.2197266c.0371094-.6413574.0556641-1.0932617.0556641-1.355957,0-.1364746-.0078125-.3205566-.0239258-.5529785-.3569336.1210938-.7358398.3056641-1.1352539.5529785-.3999023.2475586-.7172852.532959-.9516602.855957-.1704102.2324219-.2558594.4521484-.2558594.6591797,0,.1970215.0703125.361084.2119141.4924316.1411133.1313477.3183594.1967773.5317383.1967773.1650391,0,.3652344-.0554199.5996094-.1665039.309082-.1464844.6318359-.3737793.9677734-.6818848Z"/>
          <path class="cls-3" d="m298.7304077,39.198559h.5952148l.2617188.0151367.206543-.0151367c.5449219,0,.8837891.005127,1.0161133.0151367l.0083008.144043c0,.7119141-.0107422,1.4013672-.0322266,2.0681152-.015625.3937988-.0239258.6186523-.0239258.6740723,0,.888916.0307617,1.4445801.0917969,1.666748.0615234.222168.2050781.4001465.4316406.5339355.2260742.1340332.4990234.2009277.8188477.2009277.3886719,0,.7602539-.0771484,1.1142578-.2312012s.65625-.342041.9067383-.5644531c.0263672-.1916504.0395508-.4038086.0395508-.6362305,0-.7524414.0083008-1.2600098.0244141-1.5227051.0048828-.1564941.0078125-.2927246.0078125-.4089355,0-.8183594-.0424805-1.2802734-.1274414-1.3864746-.0849609-.105957-.4091797-.1867676-.972168-.2424316-.1860352-.0200195-.3217773-.0378418-.4067383-.0529785-.0424805-.0656738-.0634766-.1162109-.0634766-.1516113l.0239258-.083252c.1376953-.0151367.2734375-.0227051.40625-.0227051l1.2670898.0151367c.4516602-.0100098.6904297-.0151367.7172852-.0151367.0581055,0,.1142578.0026855.1674805.0075684l.015625.5529785c-.0371094.7678223-.0585938,1.7172852-.0634766,2.8483887l-.0161133.6137695.0317383,1.0302734c.0478516.0808105.090332.1286621.1274414.1437988.0639648.0253906.1943359.0378418.390625.0378418h.0717773c.0688477,0,.265625.0151367.5898438.0454102.0053711.065918.0078125.1137695.0078125.144043v.083252c-.7119141.1467285-1.2880859.2929688-1.7290039.4394531-.1757812.0554199-.3242188.0959473-.4462891.1210938-.0268555-.1765137-.0400391-.2851562-.0400391-.3256836v-.6135254c0-.0251465-.0029297-.0935059-.0078125-.2045898-.0693359.0454102-.1489258.1010742-.2392578.166748-.4199219.3081055-.8632812.5681152-1.3310547.7802734-.3134766.1462402-.6162109.2197266-.9082031.2197266-.5581055,0-1.012207-.1970215-1.362793-.5910645-.355957-.3937988-.5341797-1.0654297-.5341797-2.0151367,0-.050293.0029297-.1411133.0083008-.2727051.0209961-.2421875.0317383-.411377.0317383-.5075684,0-.0351562-.0029297-.1462402-.0078125-.333252-.0053711-.0805664-.0083008-.1513672-.0083008-.2121582,0-.0454102.0029297-.1477051.0083008-.3066406.0048828-.1591797.0078125-.2714844.0078125-.3371582,0-.0859375-.0029297-.1616211-.0078125-.2272949l-.0161133-.4016113.0078125-.2119141c0-.0808105-.0424805-.1540527-.1274414-.2197266-.3344727-.0859375-.5537109-.1350098-.6572266-.1477051-.1040039-.0126953-.1953125-.0341797-.2749023-.0644531v-.2424316Z"/>
          <path class="cls-3" d="m308.7396851,37.6607172l.2470703.0075684.0317383.7197266-.0161133.9318848c.1010742.0048828.1650391.0075684.1914062.0075684.1381836,0,.4013672-.0102539.7890625-.0305176.2495117-.0151367.4887695-.0227051.7172852-.0227051.105957,0,.265625.0026855.4780273.0075684.0107422.1010742.0161133.1818848.0161133.2424316,0,.0656738-.0161133.1694336-.0478516.310791h-.1357422l-1.2348633.0378418-.6137695.0151367-.1435547.0151367c-.0424805.1262207-.0639648.2727051-.0639648.439209l.0239258,1.1364746-.015625,2c0,.5251465.0717773.8737793.2148438,1.0454102.1381836.1767578.3457031.2651367.6220703.2651367.1376953,0,.3984375-.0405273.7807617-.1213379.1166992-.0251465.2734375-.1083984.4702148-.25h.0717773c.0478516,0,.0864258.013916.1152344.041748.0292969.027832.0439453.0644531.0439453.1098633l-.0078125.0529785c-.2285156.2375488-.4902344.4104004-.7851562.5187988-.2949219.1086426-.6865234.1630859-1.175293.1630859-.3452148,0-.6308594-.0759277-.8569336-.2272949-.2255859-.1516113-.3706055-.3308105-.434082-.5378418-.0639648-.2070312-.0957031-.6591797-.0957031-1.3562012l.0317383-1.7043457-.0078125-.8181152v-.3029785c0-.1413574-.0053711-.282959-.0161133-.4243164l-.1352539-.0075684-.6533203.0227051-.0639648.0075684c-.0585938,0-.1025391-.0124512-.1313477-.0378418-.0292969-.0251465-.0439453-.0556641-.0439453-.0910645,0-.0605469.0200195-.1096191.0595703-.1477051.0400391-.0378418.1606445-.097168.362793-.1779785.1381836-.0554199.2988281-.1601562.4819336-.314209.1835938-.1540527.3388672-.3244629.4663086-.5114746.0639648-.1010742.1542969-.2927246.2709961-.5756836.0849609-.2070312.1489258-.3535156.1914062-.4394531Z"/>
          <path class="cls-3" d="m311.6805987,39.7666742l.0078168-.2233887c.3452148-.0961914.53125-.1520996.5576172-.1672363.1914062-.0810547.3920898-.2050781.6020508-.3723145.2094727-.1674805.3862305-.3549805.5297852-.5627441.0639648-.0100098.1142578-.0151367.1513672-.0151367l.0957031.0075684c.0209961.2424316.0317383.4191895.0317383.5302734,0,.0253906-.0053711.138916-.015625.3408203v.4016113l.0078125,2.1816406-.0239258,2.3105469c-.0053711.1870117.0263672.3171387.0957031.3901367.0688477.0732422.2734375.1552734.6137695.2463379.2124023.0556641.371582.1035156.4780273.1437988.015625.0354004.0239258.0656738.0239258.0910645,0,.0302734-.0136719.0681152-.0400391.1135254-.2070312-.005127-.4726562-.0178223-.796875-.0378418-.440918-.0351562-.7329102-.0529785-.8764648-.0529785-.0693359,0-.4941406.0126953-1.2753906.0378418-.1591797.005127-.3134766.0175781-.4619141.0378418-.0268555,0-.0693359-.0075684-.1274414-.0227051-.0268555-.0351562-.0400391-.0656738-.0400391-.0908203,0-.0708008.050293-.1262207.1513672-.166748.0209961-.0100098.2919922-.0681152.8129883-.1740723.1699219-.0300293.28125-.0805664.3344727-.151123.090332-.105957.1357422-.2749023.1357422-.5068359.0102539-.3884277.015625-1.4523926.015625-3.1921387,0-.3479004-.015625-.5646973-.0473633-.6506348-.0268555-.0603027-.097168-.1296387-.2114258-.2080078-.1142578-.078125-.3574219-.1574707-.7290082-.2382812Zm.6694379-3.9316406c0-.166748.0673828-.3105469.203125-.4318848.1352539-.1210938.2988281-.1816406.4902344-.1816406.1962891,0,.3691406.0681152.5175781.2043457.1489258.1364746.2231445.282959.2231445.4394531,0,.1567383-.0742188.3044434-.2231445.4431152-.1484375.1391602-.3212891.2084961-.5175781.2084961-.1967773,0-.3618164-.0632324-.4941406-.1894531-.1328125-.1262207-.1992188-.2902832-.1992188-.4924316Z"/>
          <path class="cls-3" d="m317.8886108,39.243725c1.3227539.0305176,2.0268555.0456543,2.1118164.0456543.0107422.1113281.0161133.1945801.0161133.25,0,.0656738-.0078125.1643066-.0239258.2956543-.1328125.0200195-.2685547.0302734-.40625.0302734h-.3032227c-.6586914,0-1.1157227.0227051-1.3706055.0681152-.0107422.1162109-.0161133.2045898-.0161133.2651367,0,.0253906.0029297.0632324.0083008.1135254.0263672.7929688.0395508,1.2727051.0395508,1.4394531l-.015625,1.9467773c0,.2880859.050293.527832.1513672.7197266.0581055.111084.1674805.199707.3266602.2651367.1010742.0454102.3452148.0910645.7333984.1364746.2919922.0405273.4887695.0681152.5893555.083252,0,.105957-.0078125.1870117-.0239258.2424316l-.1113281.0075684c-.2548828-.0151367-.5874023-.0275879-.9960938-.0378418l-.5898438-.0227051-2.0083008.0605469h-.2631836l-.0078125-.2348633c.0795898-.0151367.1381836-.0275879.175293-.0378418.4570312-.0808105.7519531-.1716309.8847656-.2727051.0527344-.0402832.090332-.1137695.1113281-.2197266.0107422-.0605469.0161133-.3432617.0161133-.8483887,0-1.4394531-.0131836-2.5883789-.0400391-3.4470215-.1381836-.0402832-.3505859-.0654297-.637207-.0756836-.1064453,0-.2739258-.0100098-.5024414-.0302734l-.015625-.0847168c0-.0615234.0263672-.112793.0795898-.1538086.0209961-.0200195.2441406-.1254883.6694336-.3161621.1645508-.0703125.2817383-.1582031.3505859-.2634277.0371094-.0556641.0585938-.1721191.0639648-.3491211.0048828-.0808105.0209961-.2199707.0478516-.4174805.0634766-.5209961.1137695-.8422852.1513672-.9638672.0957031-.3388672.2563477-.6765137.4819336-1.0131836.2255859-.3361816.4980469-.6311035.8168945-.8840332.2338867-.1821289.4980469-.3186035.7929688-.4099121.2949219-.0910645.6308594-.1364746,1.0083008-.1364746.5043945,0,.8735352.0776367,1.1074219.2331543.159668.1054688.2392578.2409668.2392578.4064941,0,.140625-.0556641.2609863-.1674805.3613281-.1113281.1003418-.2495117.1503906-.4145508.1503906-.2016602,0-.4194336-.0478516-.6533203-.1437988-.440918-.166748-.6904297-.2575684-.7490234-.2727051-.1010742-.0253906-.2045898-.0378418-.3110352-.0378418-.2919922,0-.559082.088623-.8007812.2661133-.2416992.1777344-.3945312.395752-.4580078.6542969-.0639648.2587891-.0957031.8393555-.0957031,1.7421875,0,.3244629.0024414.6213379.0078125.8898926Z"/>
          <path class="cls-3" d="m320.4867554,39.198559h.5952148l.2617188.0151367.206543-.0151367c.5449219,0,.8837891.005127,1.0161133.0151367l.0083008.144043c0,.7119141-.0107422,1.4013672-.0322266,2.0681152-.015625.3937988-.0239258.6186523-.0239258.6740723,0,.888916.0307617,1.4445801.0917969,1.666748.0615234.222168.2050781.4001465.4316406.5339355.2260742.1340332.4990234.2009277.8188477.2009277.3886719,0,.7602539-.0771484,1.1142578-.2312012s.65625-.342041.9067383-.5644531c.0263672-.1916504.0395508-.4038086.0395508-.6362305,0-.7524414.0083008-1.2600098.0244141-1.5227051.0048828-.1564941.0078125-.2927246.0078125-.4089355,0-.8183594-.0424805-1.2802734-.1274414-1.3864746-.0849609-.105957-.4091797-.1867676-.972168-.2424316-.1860352-.0200195-.3217773-.0378418-.4067383-.0529785-.0424805-.0656738-.0634766-.1162109-.0634766-.1516113l.0239258-.083252c.1376953-.0151367.2734375-.0227051.40625-.0227051l1.2670898.0151367c.4516602-.0100098.6904297-.0151367.7172852-.0151367.0581055,0,.1142578.0026855.1674805.0075684l.015625.5529785c-.0371094.7678223-.0585938,1.7172852-.0634766,2.8483887l-.0161133.6137695.0317383,1.0302734c.0478516.0808105.090332.1286621.1274414.1437988.0639648.0253906.1943359.0378418.390625.0378418h.0717773c.0688477,0,.265625.0151367.5898438.0454102.0053711.065918.0078125.1137695.0078125.144043v.083252c-.7119141.1467285-1.2880859.2929688-1.7290039.4394531-.1757812.0554199-.3242188.0959473-.4462891.1210938-.0268555-.1765137-.0400391-.2851562-.0400391-.3256836v-.6135254c0-.0251465-.0029297-.0935059-.0078125-.2045898-.0693359.0454102-.1489258.1010742-.2392578.166748-.4199219.3081055-.8632812.5681152-1.3310547.7802734-.3134766.1462402-.6162109.2197266-.9082031.2197266-.5581055,0-1.012207-.1970215-1.362793-.5910645-.355957-.3937988-.5341797-1.0654297-.5341797-2.0151367,0-.050293.0029297-.1411133.0083008-.2727051.0209961-.2421875.0317383-.411377.0317383-.5075684,0-.0351562-.0029297-.1462402-.0078125-.333252-.0053711-.0805664-.0083008-.1513672-.0083008-.2121582,0-.0454102.0029297-.1477051.0083008-.3066406.0048828-.1591797.0078125-.2714844.0078125-.3371582,0-.0859375-.0029297-.1616211-.0078125-.2272949l-.0161133-.4016113.0078125-.2119141c0-.0808105-.0424805-.1540527-.1274414-.2197266-.3344727-.0859375-.5537109-.1350098-.6572266-.1477051-.1040039-.0126953-.1953125-.0341797-.2749023-.0644531v-.2424316Z"/>
          <path class="cls-3" d="m328.6312866,35.75935v-.166748c.1484375-.0454102.3134766-.0932617.4941406-.1437988.2666016-.0808105.6621094-.2045898,1.1855469-.3713379h.3764648v.4169922c0,4.1494141-.0136719,6.6235352-.0400391,7.4221191-.0161133.4702148-.0239258.7202148-.0239258.7504883,0,.5661621.0239258.8820801.0717773.9477539.0634766.0910645.2587891.1542969.5854492.1896973.3271484.0354004.5195312.0708008.578125.105957.0424805.0202637.0634766.0556641.0634766.1062012,0,.0554199-.0117188.0944824-.0356445.1171875-.0239258.0229492-.0678711.0341797-.1313477.0341797-.0375977,0-.3164062-.0085449-.8369141-.0258789l-1.0439453-.034668-1.3388672.0605469c-.0849609.0048828-.1489258-.010498-.1914062-.0466309-.0317383-.0258789-.0478516-.0620117-.0478516-.1086426,0-.0517578.0170898-.0893555.0517578-.112793.034668-.0231934.2260742-.0627441.5737305-.1181641.3481445-.0556641.5473633-.1022949.5976562-.1401367.0507812-.0380859.0839844-.1225586.1000977-.2539062.0209961-.1818848.0317383-.6943359.0317383-1.5378418l-.0083008-1.7424316.0239258-1.8029785-.0078125-1.8029785.0239258-.8862305c0-.1767578-.0292969-.3041992-.0874023-.3825684-.0585938-.078125-.1835938-.1552734-.375-.230957-.2866211-.111084-.4833984-.1918945-.5893555-.2424316Z"/>
          <path class="cls-3" d="m336.4491577,35.75935v-.166748c.1484375-.0454102.3134766-.0932617.4941406-.1437988.2666016-.0808105.6621094-.2045898,1.1855469-.3713379h.3764648v.4169922c0,4.1494141-.0136719,6.6235352-.0400391,7.4221191-.0161133.4702148-.0239258.7202148-.0239258.7504883,0,.5661621.0239258.8820801.0717773.9477539.0634766.0910645.2587891.1542969.5854492.1896973.3271484.0354004.5195312.0708008.578125.105957.0424805.0202637.0634766.0556641.0634766.1062012,0,.0554199-.0117188.0944824-.0356445.1171875-.0239308.0229492-.0678711.0341797-.1313477.0341797-.0375977,0-.3164062-.0085449-.8369141-.0258789l-1.0439453-.034668-1.3388672.0605469c-.0849609.0048828-.1489258-.010498-.1914062-.0466309-.0317383-.0258789-.0478516-.0620117-.0478516-.1086426,0-.0517578.0170898-.0893555.0517578-.112793.034668-.0231934.2260742-.0627441.5737305-.1181641.3481445-.0556641.5473633-.1022949.5976562-.1401367.0507812-.0380859.0839844-.1225586.1000977-.2539062.0209961-.1818848.0317383-.6943359.0317383-1.5378418l-.0083008-1.7424316.0239258-1.8029785-.0078125-1.8029785.0239258-.8862305c0-.1767578-.0292969-.3041992-.0874023-.3825684-.0585938-.078125-.1835938-.1552734-.375-.230957-.2866211-.111084-.4833984-.1918945-.5893555-.2424316Z"/>
          <path class="cls-3" d="m340.2348022,39.7666742l.0078125-.2233887c.3452148-.0961914.53125-.1520996.5576172-.1672363.1914062-.0810547.3920898-.2050781.6020508-.3723145.2094727-.1674805.3862305-.3549805.5297852-.5627441.0639648-.0100098.1142578-.0151367.1513672-.0151367l.0957031.0075684c.0209961.2424316.0317383.4191895.0317383.5302734,0,.0253906-.0053711.138916-.015625.3408203v.4016113l.0078125,2.1816406-.0239258,2.3105469c-.0053711.1870117.0263672.3171387.0957031.3901367.0688477.0732422.2734375.1552734.6137695.2463379.2124023.0556641.371582.1035156.4780273.1437988.015625.0354004.0239258.0656738.0239258.0910645,0,.0302734-.0136719.0681152-.0400391.1135254-.2070312-.005127-.4726562-.0178223-.796875-.0378418-.440918-.0351562-.7329102-.0529785-.8764648-.0529785-.0693359,0-.4941406.0126953-1.2753906.0378418-.1591797.005127-.3134766.0175781-.4619141.0378418-.0268555,0-.0693359-.0075684-.1274414-.0227051-.0268555-.0351562-.0400391-.0656738-.0400391-.0908203,0-.0708008.050293-.1262207.1513672-.166748.0209961-.0100098.2919922-.0681152.8129883-.1740723.1699219-.0300293.28125-.0805664.3344727-.151123.090332-.105957.1357422-.2749023.1357422-.5068359.0102539-.3884277.015625-1.4523926.015625-3.1921387,0-.3479004-.015625-.5646973-.0473633-.6506348-.0268555-.0603027-.097168-.1296387-.2114258-.2080078-.1142578-.078125-.3574219-.1574707-.7290039-.2382812Zm.6694336-3.9316406c0-.166748.0673828-.3105469.203125-.4318848.1352539-.1210938.2988281-.1816406.4902344-.1816406.1962891,0,.3691406.0681152.5175781.2043457.1489258.1364746.2231445.282959.2231445.4394531,0,.1567383-.0742188.3044434-.2231445.4431152-.1484375.1391602-.3212891.2084961-.5175781.2084961-.1967773,0-.3618164-.0632324-.4941406-.1894531-.1328125-.1262207-.1992188-.2902832-.1992188-.4924316Z"/>
          <path class="cls-3" d="m346.4428101,39.243725c1.3227539.0305176,2.0268555.0456543,2.1118164.0456543.0107422.1113281.0161133.1945801.0161133.25,0,.0656738-.0078125.1643066-.0239258.2956543-.1328125.0200195-.2685547.0302734-.40625.0302734h-.3032227c-.6586914,0-1.1157227.0227051-1.3706055.0681152-.0107422.1162109-.0161133.2045898-.0161133.2651367,0,.0253906.0029297.0632324.0083008.1135254.0263672.7929688.0395508,1.2727051.0395508,1.4394531l-.015625,1.9467773c0,.2880859.050293.527832.1513672.7197266.0581055.111084.1674805.199707.3266602.2651367.1010742.0454102.3452148.0910645.7333984.1364746.2919922.0405273.4887695.0681152.5893555.083252,0,.105957-.0078125.1870117-.0239258.2424316l-.1113281.0075684c-.2548828-.0151367-.5874023-.0275879-.9960938-.0378418l-.5898438-.0227051-2.0083008.0605469h-.2631836l-.0078125-.2348633c.0795898-.0151367.1381836-.0275879.175293-.0378418.4570312-.0808105.7519531-.1716309.8847656-.2727051.0527344-.0402832.090332-.1137695.1113281-.2197266.0107422-.0605469.0161133-.3432617.0161133-.8483887,0-1.4394531-.0131836-2.5883789-.0400442-3.4470215-.1381784-.0402832-.3505808-.0654297-.6372019-.0756836-.1064453,0-.2739258-.0100098-.5024414-.0302734l-.015625-.0847168c0-.0615234.0263672-.112793.0795898-.1538086.0209961-.0200195.2441406-.1254883.6694336-.3161621.1645508-.0703125.2817383-.1582031.3505859-.2634277.0371094-.0556641.0585938-.1721191.0639648-.3491211.0048828-.0808105.0209961-.2199707.0478516-.4174805.0634766-.5209961.1137695-.8422852.1513672-.9638672.0957031-.3388672.2563477-.6765137.4819336-1.0131836.2255859-.3361816.4980469-.6311035.8168945-.8840332.2338867-.1821289.4980469-.3186035.7929688-.4099121.2949219-.0910645.6308594-.1364746,1.0083008-.1364746.5043945,0,.8735352.0776367,1.1074219.2331543.159668.1054688.2392578.2409668.2392578.4064941,0,.140625-.0556641.2609863-.1674805.3613281-.1113281.1003418-.2495117.1503906-.4145508.1503906-.2016602,0-.4194336-.0478516-.6533203-.1437988-.440918-.166748-.6904297-.2575684-.7490234-.2727051-.1010742-.0253906-.2045898-.0378418-.3110352-.0378418-.2919922,0-.559082.088623-.8007812.2661133-.2416992.1777344-.3945312.395752-.4580078.6542969-.0639648.2587891-.0957031.8393555-.0957031,1.7421875,0,.3244629.0024414.6213379.0078125.8898926Z"/>
          <path class="cls-3" d="m355.0892944,41.1455804l-3.1953125.0219727-.605957-.0004883c-.2441406,0-.4941406.010498-.7490234.0314941-.0478516.1513672-.0717773.255127-.0717773.3105469l.0078125.0756836v.0759277l-.0078125.3710938c0,.3081055.1020508.6855469.3066406,1.1325684s.4970703.7878418.8769531,1.0227051.8540039.3598633,1.4223633.375c.3027344-.0151367.5444336-.0505371.7250977-.1062012.1806641-.0554199.4355469-.1843262.7651367-.3862305l.5737305-.4470215.0478516.3029785c0,.0354004-.0024414.0732422-.0078125.1137695-.2392578.2878418-.5419922.5402832-.9086914.7575684-.3666992.217041-.7382812.3759766-1.1157227.4770508-.1806641.0456543-.4780273.0683594-.8925781.0683594-.3769531,0-.7490234-.0732422-1.1157227-.2197266-.5415039-.222168-.9682617-.5795898-1.2788086-1.0720215-.3110352-.4924316-.4663086-1.0895996-.4663086-1.7915039,0-.222168.0439453-.5075684.1313477-.855957.0878906-.3486328.2456055-.7197266.4741211-1.1137695.1542969-.2675781.3427734-.4873047.565918-.6589355.3188477-.2424316.5976562-.4116211.8369141-.5075684.3452148-.1364746.746582-.2045898,1.203125-.2045898.4941406,0,.8979492.0859375,1.2114258.2575684.425293.2272949.7426758.5202637.9526367.8786621.2094727.3586426.3144531.6870117.3144531.9848633v.1062012Zm-4.4467773-.2727051h.3745117c.2709961,0,1.0786133-.0405273,2.4228516-.1213379.2124023-.0100098.3427734-.0302734.390625-.0605469.0952148-.0959473.1430664-.1818848.1430664-.2575684,0-.1564941-.0532227-.3344727-.1591797-.5341797-.1064453-.1994629-.2695312-.3532715-.4902344-.4621582-.2202148-.1083984-.4770508-.1628418-.769043-.1628418-.6162109,0-1.1103516.2197266-1.4824219.6591797-.2866211.333252-.4301758.6464844-.4301758.9394531Z"/>
        </g>
        <g>
          <path class="cls-3" d="m112.8978882,66.2676508c0-.3713379.046875-.7019043.1411133-.9914551.09375-.2895508.2514648-.6037598.4741211-.9423828.222168-.338623.4902344-.6218262.8041992-.8493652.3144531-.2275391.7490234-.4289551,1.3046875-.6037598.390625-.1201172.8847656-.1801758,1.4824219-.1801758.4023438,0,.7958984.0510254,1.1811523.152832.3852539.1020508.734375.2441406,1.0488281.4262695.3139648.1821289.628418.4624023.9423828.8413086.2182617.262207.3833008.5444336.4941406.8466797.1455078.3969727.2182617.8066406.2182617,1.2290039,0,.4807129-.0488281.8796387-.1464844,1.1962891-.0976562.3168945-.2612305.630127-.4912109.9396973-.1801758.2404785-.4882812.5170898-.925293.8303223-.2910156.2111816-.6533203.3815918-1.0859375.5107422-.4331055.1293945-.9003906.1940918-1.4023438.1940918-.5092773,0-.9633789-.0566406-1.3618164-.1694336s-.730957-.2504883-.9970703-.4123535c-.2666016-.1621094-.5400391-.4016113-.8217773-.7185059s-.4951172-.6665039-.640625-1.0488281c-.1459961-.3823242-.21875-.7993164-.21875-1.2509766Zm3.9882812,3.3979492c.3217773,0,.65625-.0429688,1.0029297-.128418.3466797-.0856934.6542969-.2275391.9223633-.4260254s.4780273-.4243164.6293945-.6774902.2729492-.578125.3647461-.9750977.1376953-.7939453.1376953-1.190918c0-.4951172-.0766602-.9851074-.2294922-1.4694824-.1191406-.3676758-.3125-.6965332-.5805664-.986084s-.5917969-.5134277-.9711914-.671875-.7836914-.2375488-1.2124023-.2375488c-.3486328,0-.6899414.0546875-1.0229492.1638184-.3334961.109375-.6074219.2485352-.8217773.4179688-.2148438.1691895-.4140625.409668-.5976562.7209473-.184082.3115234-.3237305.6547852-.4194336,1.0297852-.0961914.3752441-.144043.706543-.144043.9941406,0,.3024902.0478516.6447754.144043,1.0270996.0957031.3823242.2265625.7138672.3935547.9941406.1665039.2805176.371582.5290527.6147461.7458496.2431641.2165527.5161133.3823242.8188477.4970703s.6264648.1721191.9711914.1721191Z"/>
          <path class="cls-3" d="m121.7997437,69.5835687c.0844727-.0327148.1704102-.0527344.2587891-.0600586.5859375-.036377.9213867-.1030273,1.0053711-.199707.0844727-.0964355.1264648-.5639648.1264648-1.4023438l-.0058594-.5739746v-.6013184l-.0229492-.6616211.0117188-.3881836-.0058594-.4265137v-.5029297l-.0112305-.2241211.0112305-.2844238c.0039062-.0654297.0058594-.1420898.0058594-.2294922,0-.2297363-.0117188-.4719238-.034668-.7270508-.0151367-.0510254-.0361328-.1003418-.0629883-.1477051-.1420898-.0693359-.3706055-.1157227-.6870117-.1394043-.315918-.0236816-.4951172-.0500488-.5371094-.0793457-.0307617-.0217285-.0478516-.0783691-.0517578-.1694336h.4833984l1.5253906.032959c.3916016,0,.9130859-.0109863,1.565918-.032959,0,.0583496-.0039062.1130371-.0117188.1640625-.0766602.0180664-.2050781.0380859-.3852539.0600586-.3637695.0400391-.5859375.0783691-.6665039.1147461-.0498047.0183105-.0859375.0493164-.1088867.0930176-.0385742.0656738-.0615234.1877441-.0693359.3662109l-.0283203.7053223.0229492,2.4331055v.9621582c-.0078125.3024902-.0117188.5085449-.0117188.6176758,0,.4084473.0107422.6689453.0317383.7819824s.0576172.1940918.1088867.2431641c.0517578.0493164.137207.088623.2558594.1176758.1762695.0400391.3139648.0620117.4140625.0656738.2143555.0073242.3500977.036377.4077148.0874023.0117188.0473633.0170898.0874023.0170898.1201172v.0437012c-.3491211.0109863-.605957.0163574-.7709961.0163574-.0961914,0-.2666016-.0053711-.512207-.0163574l-.7944336.0109863-1.3525391-.0056152h-.109375l-.0117188-.1638184Z"/>
          <path class="cls-3" d="m126.1444702,69.8240472l-.0117188-.1367188c.2607422-.2658691.4291992-.451416.5058594-.5571289.0229492-.0327148.09375-.1164551.2124023-.2512207l.3217773-.4316406,2.2060547-2.7912598,1.9013672-2.4086914c.0268555-.0400391.0556641-.0837402.0864258-.1311035-.137207-.0063477-.253418-.0095215-.3491211-.0095215-.0996094,0-.2250977.0026855-.3759766.0078125-.1513672.005127-.5625.0126953-1.2329102.0229492-.0268555,0-.1503906.0100098-.3706055.0300293-.2207031.0200195-.5166016.0390625-.8881836.057373s-.6435547.0637207-.815918.1364746c-.0917969.0402832-.1992188.1203613-.3217773.2404785-.1572266.1564941-.2836914.3112793-.3793945.4643555-.1264648.2038574-.2280273.3295898-.3041992.3769531l-.0981445.0107422c.0117188-.0727539.0517578-.1918945.1210938-.357666.0688477-.1657715.1645508-.4633789.2871094-.8933105.0878906-.2329102.1499023-.4040527.1855469-.5134277.0361328-.1091309.0708008-.1984863.1044922-.2675781.0415039-.0109863.0771484-.0163574.1069336-.0163574h.0742188c-.0307617.0981445-.0458984.1674805-.0458984.2075195,0,.112793.0483398.1994629.1445312.2595215s.3510742.0900879.7636719.0900879c.1723633,0,.3466797-.0095215.5229492-.0283203.0688477-.0073242.2353516-.0163574.4995117-.0273438l.3105469.0004883,1.3447266-.0336914,1.1953125-.0395508.574707-.019043c.0708008,0,.1455078.0126953.2241211.0380859l.0117188.0383301c0,.0583496-.1459961.2568359-.4370117.595459-.1533203.1748047-.2470703.2858887-.2817383.333252l-1.0742188,1.3657227c-.1611328.2075195-.2856445.3642578-.3735352.4697266-.050293.0583496-.2011719.2441406-.4541016.5571289l-.8334961,1.043457-1.1606445,1.4584961c-.2685547.3278809-.4482422.557373-.5405273.6884766-.019043.0217285-.0419922.0527344-.0688477.0927734l2.2353516.0163574c.3334961.0036621.5996094.0053711.7988281.0053711.7397461,0,1.2587891-.1081543,1.5576172-.3249512.2988281-.2165527.5058594-.578125.6206055-1.0842285.0268555-.1130371.0478516-.1984863.0629883-.2568359.0424805-.036377.090332-.0546875.144043-.0546875l.0229492.0163574c.0073242.0803223.0112305.1530762.0112305.2185059,0,.1821289-.0053711.4316406-.0170898.7485352l-.0170898.3713379.0112305.3388672c0,.0981445-.0092773.1911621-.0288086.2785645-.1376953.0109863-.222168.0163574-.2524414.0163574-.1572266-.0073242-.2895508-.0109863-.3969727-.0109863l-1.4824219.0219727-1.8217773-.0383301-.9423828.0163574c-.0307617,0-.1474609-.0053711-.3505859-.0163574-.1074219-.0073242-.1914062-.0109863-.2529297-.0109863-.2070312,0-.4882812.0236816-.8447266.0710449-.1225586.0146484-.1953125.0219727-.2182617.0219727-.0307617,0-.0727539-.0056152-.1264648-.0163574Z"/>
          <path class="cls-3" d="m136.7987671,62.7442133c.019043.0620117.0288086.1091309.0288086.1420898,0,.0217285-.0058594.0544434-.0170898.0981445-.0996094.0256348-.1801758.0383301-.2416992.0383301-.0263672,0-.0717773-.0026855-.1347656-.0083008-.0634766-.0053711-.1142578-.0080566-.1523438-.0080566-.1762695,0-.315918.032959-.4194336.0983887-.0688477.0400391-.1113281.0930176-.1264648.1584473l-.0576172.623291.0175781,2.7062988c.003418.9914551.0380859,1.6083984.1030273,1.8508301.0654297.2424316.1743164.4418945.3276367.5986328s.3842773.2861328.6923828.3881836c.3085938.1020508.6083984.1530762.8994141.1530762.6513672,0,1.1503906-.0893555,1.4970703-.2678223.3466797-.1787109.5957031-.4255371.7470703-.7407227.1513672-.3154297.2270508-.7937012.2270508-1.4353027,0-.0183105-.0058594-.1640625-.0170898-.4375v-.1584473c0-.0583496.0039062-.1721191.0112305-.3415527.0078125-.1696777.0117188-.2687988.0117188-.2980957l-.0864258-1.5690918c-.0268555-.5285645-.0581055-.8400879-.0947266-.9348145-.0361328-.0947266-.0888672-.1660156-.1577148-.2133789-.1494141-.1020508-.4331055-.1931152-.8505859-.2731934-.0195312-.0510254-.0307617-.1040039-.034668-.1584473.1494141-.0146484.296875-.0219727.4423828-.0219727.1533203,0,.3144531.0056152.4829102.0163574.2529297.0183105.390625.0273438.4135742.0273438l.9082031-.0273438.1782227.0056152-.0058594.1965332c-.4711914.0583496-.7529297.126709-.8447266.2050781s-.1381836.2233887-.1381836.4345703c0,.1130371.0078125.3591309.0229492.7380371l.0405273,1.1318359-.0058594.4482422.0170898.5686035c0,.7143555-.0209961,1.2009277-.0629883,1.4597168-.0615234.3608398-.1484375.6469727-.2617188.8581543-.112793.2114258-.2768555.4018555-.4912109.5712891-.2143555.1696777-.5009766.309082-.8588867.418457-.3583984.1091309-.7119141.1638184-1.0605469.1638184-.5478516,0-.9423828-.036377-1.1835938-.109375-.440918-.1274414-.7915039-.2932129-1.0517578-.4973145-.2607422-.2041016-.4404297-.4082031-.5400391-.6123047-.1342773-.2697754-.2011719-.6633301-.2011719-1.1809082v-.3774414l-.0175781-1.5307617.0175781-1.2353516v-.8310547c0-.2114258-.0307617-.3591309-.0922852-.4428711-.0419922-.0583496-.1030273-.0874023-.1835938-.0874023l-.3393555.0053711c-.2524414,0-.4135742-.0253906-.4824219-.076416-.0117188-.032959-.0175781-.0620117-.0175781-.0874023,0-.032959.0117188-.0583496.034668-.0766602.0419922-.0290527.09375-.0437012.1552734-.0437012h.1494141l.3847656-.0053711h.9082031l1.5112305-.0163574Z"/>
          <path class="cls-3" d="m141.8617554,69.6272699c.1186523-.076416.3330078-.1311035.6435547-.1638184.2412109-.0107422.3847656-.0307617.4311523-.0598145.0302734-.0214844.0532227-.0488281.0688477-.081543.0576172-.1340332.0996094-.4985352.1264648-1.0932617.0351562-.7756348.0917969-1.8081055.1699219-3.0974121.0625-.9831543.09375-1.5966797.09375-1.8408203v-.1420898c-.2768555-.0544434-.715332-.1130371-1.3154297-.1748047-.0380859-.0546875-.0576172-.0964355-.0576172-.1257324,0-.0180664.0136719-.0510254.0405273-.0983887.0649414-.0217285.1142578-.0327148.1489258-.0327148.0302734,0,.097168.0073242.2006836.0219727.1875.0253906.4453125.0380859.7739258.0380859.1074219,0,.2905273-.0083008.5507812-.0249023.1835938-.0124512.2866211-.0187988.3095703-.0187988.0610352,0,.1318359.0109863.2124023.0327148.0390625.0371094.0688477.0720215.0883789.1052246l.2407227.5134277,1.6264648,3.4196777.6782227,1.4355469c.5302734-1.0014648.9423828-1.8920898,1.2368164-2.6713867.019043-.0581055.0419922-.111084.0683594-.1584473.034668-.0617676.0668945-.1311035.0976562-.2075195.0302734-.076416.1542969-.3679199.3720703-.8740234.0878906-.2038574.1582031-.3786621.2119141-.5244141.2172852-.5827637.3452148-.9160156.3833008-.9997559.0732422-.0290527.1367188-.0437012.1904297-.0437012.0615234,0,.1401367.0053711.2363281.0163574.2148438.0109863.5644531.0163574,1.0483398.0163574.2998047,0,.5454102-.003418.737793-.0107422.0073242.0400391.0112305.0690918.0112305.0874023,0,.0253906-.0053711.0600586-.0170898.1037598-.1225586.0617676-.2700195.0964355-.4423828.1037598-.3413086.0183105-.5576172.0437012-.6494141.076416s-.1503906.074707-.175293.1257324-.046875.2185059-.065918.5024414l.0053711.2512207-.0053711.2624512c0,.5461426.0151367,1.4638672.0458984,2.7531738l-.0058594,1.0705566.0058594.6884766c0,.2695312.0131836.4287109.0400391.4780273.0268555.0490723.1035156.095459.2299805.1391602.2070312.0656738.5439453.1330566,1.0112305.2021484.0268555.0183105.0405273.0419922.0405273.0710449,0,.0327148-.0019531.0690918-.0058594.1091309h-.2646484c-.2265625,0-.472168-.0063477-.7368164-.019043-.2651367-.0126953-.4072266-.019043-.4262695-.019043-.7866211,0-1.3085938.0083008-1.565918.0249023-.1572266.0124512-.2568359.0187988-.2993164.0187988-.0268555,0-.0556641-.0073242-.0859375-.0219727v-.0710449c0-.0327148.0053711-.0671387.0170898-.1037598.1264648-.0510254.2988281-.0854492.5170898-.1037598.2412109-.0620117.4174805-.1276855.5288086-.1967773.0341797-.1386719.0517578-.4211426.0517578-.8476562l-.0175781-1.1044922c0-.1203613.0068359-.3444824.0205078-.6726074.0131836-.3278809.0200195-.8620605.0200195-1.6020508,0-.5869141-.015625-1.0314941-.0458984-1.3342285-.0649414.1276855-.1928711.4042969-.3837891.8303223l-.0854492.2077637-.0117188.0327148-.8466797,1.9118652-.3037109.7375488-.3945312.8959961c-.171875.411377-.3188477.7756348-.440918,1.0925293-.0532227.145752-.097168.2602539-.1313477.3439941l-.1342773-.0053711c-.4335938-1.2019043-.9501953-2.4345703-1.550293-3.6982422-.6005859-1.2636719-1.0214844-2.0976562-1.2631836-2.5019531-.03125.1564941-.0668945.6118164-.1064453,1.3657227-.0512695.9177246-.0766602,1.9282227-.0766602,3.0317383,0,.3449707.0268555.7331543.0805664,1.1650391.0151367.1235352.0708008.2150879.1665039.2749023.0957031.0600586.3427734.0935059.7412109.1005859.1533203,0,.2988281.0109863.4370117.0327148.0263672.0561523.0400391.097168.0400391.123291,0,.0187988-.0097656.0505371-.0288086.0952148l-1.7841797-.0600586c-.1298828,0-.3325195.0080566-.6079102.0241699-.1533203.0097656-.3730469.0163574-.659668.0195312l-.0058594-.1474609Z"/>
          <path class="cls-3" d="m151.8378296,69.5835687c.0844727-.0327148.1704102-.0527344.2587891-.0600586.5859375-.036377.9213867-.1030273,1.0053711-.199707.0844727-.0964355.1264648-.5639648.1264648-1.4023438l-.0058594-.5739746v-.6013184l-.0229492-.6616211.0117188-.3881836-.0058594-.4265137v-.5029297l-.0112305-.2241211.0112305-.2844238c.0039062-.0654297.0058594-.1420898.0058594-.2294922,0-.2297363-.0117188-.4719238-.034668-.7270508-.0151367-.0510254-.0361328-.1003418-.0629883-.1477051-.1420898-.0693359-.3706055-.1157227-.6870117-.1394043-.315918-.0236816-.4951172-.0500488-.5371094-.0793457-.0307617-.0217285-.0478516-.0783691-.0517578-.1694336h.4833984l1.5253906.032959c.3916016,0,.9130859-.0109863,1.565918-.032959,0,.0583496-.0039062.1130371-.0117188.1640625-.0766602.0180664-.2050781.0380859-.3852539.0600586-.3637695.0400391-.5859375.0783691-.6665039.1147461-.0498047.0183105-.0859375.0493164-.1088867.0930176-.0385742.0656738-.0615234.1877441-.0693359.3662109l-.0283203.7053223.0229492,2.4331055v.9621582c-.0078125.3024902-.0117188.5085449-.0117188.6176758,0,.4084473.0107422.6689453.0317383.7819824s.0576172.1940918.1088867.2431641c.0517578.0493164.137207.088623.2558594.1176758.1762695.0400391.3139648.0620117.4140625.0656738.2143555.0073242.3500977.036377.4077148.0874023.0117188.0473633.0170898.0874023.0170898.1201172v.0437012c-.3491211.0109863-.605957.0163574-.7709961.0163574-.0961914,0-.2666016-.0053711-.512207-.0163574l-.7944336.0109863-1.3525391-.0056152h-.109375l-.0117188-.1638184Z"/>
          <path class="cls-3" d="m163.4232788,63.1265375l.0634766.8303223c.0229492.2514648.0341797.4226074.0341797.5136719l-.1606445.0270996c-.2568359-.5534668-.5756836-.9685059-.9570312-1.2453613s-.8476562-.4152832-1.3994141-.4152832c-.6743164,0-1.1992188.0783691-1.5742188.2348633-.5444336.222168-1.0097656.6083984-1.3964844,1.1582031-.387207.5500488-.5805664,1.2126465-.5805664,1.9885254,0,.4477539.0708008.8503418.2124023,1.2072754.1420898.3569336.3422852.689209.6005859.9968262.2587891.3078613.5644531.5744629.9165039.800293.2299805.1494141.5039062.262207.8217773.338623.1801758.0402832.4487305.0603027.8046875.0603027.2299805,0,.4848633-.0310059.7646484-.0930176.2792969-.0617676.4902344-.1447754.6318359-.2485352s.2387695-.2211914.2900391-.3522949c.0517578-.1311035.0776367-.3859863.0776367-.7648926,0-.6298828-.0439453-.9968262-.1318359-1.1005859-.0883789-.1037598-.3662109-.1721191-.8334961-.204834l-.2299805-.0166016-.1547852.0056152c-.0229492-.0036621-.0537109-.0090332-.0922852-.0163574l-.0859375-.1367188c0-.0180664.0131836-.041748.0400391-.0710449.1992188-.0290527.6323242-.0437012,1.2988281-.0437012.1494141,0,.3925781.0039062.7299805.0109863l.5917969.0219727.5341797-.0056152c.1035156,0,.2280273.0036621.3735352.0109863.0268555.0036621.0444336.0100098.0517578.019043.0078125.0092773.0117188.0246582.0117188.0466309,0,.0400391-.0097656.0910645-.0288086.152832-.1606445.0327148-.2856445.0490723-.3735352.0490723l-.3735352-.0053711c-.1264648,0-.2280273.0419922-.3046875.1257324-.0380859.0400391-.0571289.1765137-.0571289.409668l.0053711.7155762c0,.4916992-.0209961.8049316-.0629883.9396973-.0229492.0800781-.0708008.1520996-.1435547.2158203s-.2260742.1391602-.4599609.2265625c-.3330078.1274414-.6357422.2131348-.9077148.2568359-.5058594.0837402-.9941406.1254883-1.4658203.1254883-.7583008,0-1.3798828-.0917969-1.8647461-.2758789-.484375-.1838379-.9018555-.4396973-1.2524414-.767334-.3505859-.3278809-.6005859-.6591797-.75-.9943848-.2260742-.4914551-.3393555-.9921875-.3393555-1.5021973,0-.637207.1772461-1.2609863.5317383-1.8710938.3544922-.6098633.9262695-1.1062012,1.715332-1.4885254.5556641-.2695312,1.3100586-.4042969,2.2641602-.4042969.6591797,0,1.1982422.0546875,1.6176758.1640625.4194336.1091309.7519531.2329102.9970703.3713379Z"/>
          <path class="cls-3" d="m164.7684937,69.5835687c.0537109-.0290527.1010742-.0437012.1435547-.0437012h.1318359c.0268555,0,.0727539-.001709.1381836-.0053711.2944336-.0256348.46875-.0510254.5224609-.0766602.1342773-.0690918.2490234-.189209.3447266-.3603516.1992188-.371582.4233398-.8977051.6723633-1.5788574.1191406-.3239746.1938477-.520752.2246094-.5898438.0957031-.21875.1875-.447998.2758789-.6884766l.5400391-1.4367676c.0844727-.2255859.2875977-.7429199.609375-1.5512695.0805664-.2038574.1782227-.4770508.2929688-.8195801l.1694336-.0107422.2006836.0053711c.1645508.3095703.3100586.6428223.4365234.9997559.0688477.1894531.1816406.4716797.3388672.8466797l.8720703,2.2451172.4648438,1.2182617c.2451172.6918945.40625,1.1171875.4829102,1.2756348s.1474609.2631836.2128906.3139648c.019043.0146484.0908203.0366211.215332.0656738s.2114258.0510254.2612305.0654297c.1762695.0473633.2988281.0874023.3681641.1203613.0151367.0400391.0229492.0708008.0229492.0927734,0,.0183105-.0058594.0456543-.0175781.0820312-.1225586.0036621-.2084961.0053711-.2583008.0053711-.1953125,0-.5405273-.0053711-1.034668-.0163574l-.574707-.012207-.6953125.0080566c-.0458984,0-.0927734-.0019531-.140625-.0061035s-.0888672-.0061035-.1235352-.0061035h-.1264648c-.0419922-.0036621-.0805664-.0146484-.1147461-.032959,0-.0507812.0092773-.1000977.0283203-.1474609.0463867-.0217285.0883789-.0344238.1264648-.0380859l.6035156-.0383301c.1567383-.0073242.2753906-.0273438.355957-.0603027.0229492-.0656738.034668-.1147461.034668-.1477051,0-.0656738-.0498047-.2353516-.1494141-.5090332-.0688477-.182373-.1293945-.3557129-.1806641-.5200195-.0517578-.1640625-.2553711-.7041016-.6113281-1.619873-.1572266-.0253906-.2949219-.0383301-.4135742-.0383301l-1.2299805.0109863-.3623047-.0056152c-.1298828,0-.2739258.0092773-.4306641.0273438-.0498047.109375-.0825195.1877441-.0981445.2348633l-.5063477,1.5024414c-.2143555.5717773-.3217773.8867188-.3217773.9450684,0,.0327148.0175781.0874023.0517578.1638184.0805664.0217285.1879883.0419922.3217773.0600586l.7817383.0656738c.0419922.0327148.0629883.0617676.0629883.0874023,0,.0180664-.0053711.0454102-.0170898.0817871-.1723633.0036621-.3046875.0056152-.3964844.0056152-.3066406,0-.6630859-.0090332-1.0688477-.0273438-.1879883-.0073242-.3217773-.0109863-.4023438-.0109863s-.2202148.0036621-.4194336.0109863c-.1303711.0073242-.2241211.0107422-.2817383.0107422-.0917969,0-.2104492-.0053711-.3564453-.0163574v-.0327148c0-.0253906.0078125-.0600586.0234375-.1037598Zm2.7421875-3.2775879c.409668.0217285.8769531.0327148,1.4018555.0327148.2988281,0,.5615234-.0090332.7875977-.0273438-.0385742-.1418457-.0825195-.2749023-.1323242-.3986816-.2485352-.6333008-.3862305-.982666-.4130859-1.0483398l-.5224609-1.2614746-.0571289-.0981445c-.0229492.0437012-.1074219.2312012-.253418.5622559-.2456055.5681152-.421875,1.0102539-.5292969,1.3269043-.0498047.1420898-.1015625.2832031-.1552734.4233398s-.0874023.2385254-.1010742.2949219c-.0131836.0563965-.0332031.1137695-.0600586.171875l.034668.0219727Z"/>
          <path class="cls-3" d="m173.1356812,69.6873285c.019043-.036377.0478516-.0563965.0859375-.0600586.387207-.0327148.6914062-.0983887.9135742-.1967773.0766602-.0654297.1152344-.1748047.1152344-.3276367l-.0058594-.5354004v-1.0161133l.0117188-.4423828-.034668-1.5185547.0117188-1.0217285c0-.5751953-.0117188-.9594727-.034668-1.1525879-.0078125-.0727539-.0327148-.1474609-.074707-.223877-.0688477-.0400391-.1264648-.0637207-.1723633-.0710449-.1650391-.0253906-.3774414-.0456543-.6381836-.0600586-.0537109-.036377-.0800781-.0800781-.0800781-.1311035,0-.0183105.0073242-.0456543.0224609-.0820312.2114258-.0109863.5849609-.0163574,1.1210938-.0163574.2490234,0,.4453125-.001709.5888672-.0053711.2050781-.0109863.453125-.0273438.7441406-.0493164.1264648.0109863.2758789.0163574.4482422.0163574.0424805.0219727.0634766.0473633.0634766.0766602,0,.0217285-.0039062.0454102-.0117188.0708008-.0458984.0219727-.1323242.0402832-.2583008.0546875-.3334961.0327148-.5595703.1020508-.6782227.2075195-.0805664.072998-.1206055.2114258-.1206055.4152832l.0053711.1037598v3.4689941l.0405273,1.4038086c.0039062.4443359.0151367.689209.0341797.7348633.0195312.0454102.0498047.0810547.0922852.1064453.1337891.076416.3388672.1274414.6147461.152832.0688477.0073242.1357422.0202637.2011719.0383301.0229492.0473633.034668.0874023.034668.1201172,0,.036377-.0234375.0710449-.0693359.1037598l-.1835938.0056152c-.0766602,0-.2607422-.0129395-.5517578-.0383301-.2915039-.0253906-.5078125-.0380859-.6494141-.0380859-.1186523,0-.2836914.0126953-.4941406.0380859-.2109375.0253906-.4980469.0383301-.8623047.0383301-.0537109,0-.1264648-.0019531-.2182617-.0056152l-.0112305-.1638184Zm2.2182617-3.4333496c.0458984-.0397949.1225586-.0908203.2294922-.152832.2148438-.1237793.5844727-.3710938,1.109375-.7421875l1.574707-1.2229004c.4326172-.3417969.7373047-.6113281.9135742-.8076172.034668-.0437012.0610352-.0891113.0805664-.1364746-.0693359-.0473633-.1474609-.0817871-.2358398-.1035156-.0878906-.0219727-.2280273-.0383301-.4194336-.0493164s-.3056641-.0280762-.3417969-.0517578c-.0366211-.0236816-.0546875-.0537109-.0546875-.090332,0-.0400391.0131836-.0708008.0400391-.0927734.0498047-.0327148.1206055-.0490723.2128906-.0490723.1455078,0,.2719727.0100098.3793945.0300293.1069336.0200195.3500977.0300293.7294922.0300293.0922852,0,.1591797-.0019531.2011719-.0056152l.8964844-.0437012c.0917969-.0070801.1630859-.0107422.2128906-.0107422.0458984,0,.1147461.003418.206543.010498,0,.0854492-.0078125.154541-.0229492.2080078-.4135742.0473633-.7182617.107666-.9135742.1806641-.1113281.0437012-.3374023.1643066-.6782227.3613281-.2568359.1499023-.4902344.3105469-.7011719.4821777l-1.4819336,1.1855469-.8964844.6882324c.0151367.0256348.0380859.0510254.0688477.076416.0229492.0183105.0805664.0693359.1723633.1530762.4023438.3566895.9453125.7946777,1.6289062,1.3134766s1.2192383.9528809,1.605957,1.3024902c.5668945.5124512,1.1015625.7958984,1.6035156.8500977.1225586.0146484.2104492.0473633.2641602.0983887l.0058594.0600586-.0117188.076416c-.1298828.0073242-.2182617.0109863-.2641602.0109863-.1762695,0-.4423828-.0117188-.7988281-.0351562-.2104492-.0129395-.3847656-.0195312-.5229492-.0195312-.5517578,0-1.1816406.0219727-1.890625.0656738-.0112305-.0498047-.0170898-.0871582-.0170898-.1120605l.0058594-.0427246c.0493164-.0424805.1494141-.0822754.2988281-.1191406.206543-.0517578.4248047-.0812988.6547852-.0888672.0498047,0,.1035156-.0036621.1611328-.0109863-.0385742-.059082-.1015625-.1274414-.1899414-.2050781-.0151367-.0144043-.0668945-.0627441-.1547852-.1445312-.0883789-.0817871-.2436523-.2155762-.4658203-.401123l-.6835938-.5185547-1.0517578-.8408203c-.3486328-.2836914-.8354492-.645752-1.4594727-1.0861816Z"/>
          <path class="cls-3" d="m184.8641968,62.7442133c.019043.0620117.0288086.1091309.0288086.1420898,0,.0217285-.0058594.0544434-.0170898.0981445-.0996094.0256348-.1801758.0383301-.2416992.0383301-.0263672,0-.0717773-.0026855-.1347656-.0083008-.0634766-.0053711-.1142578-.0080566-.1523438-.0080566-.1762695,0-.315918.032959-.4194336.0983887-.0688477.0400391-.1113281.0930176-.1264648.1584473l-.0576172.623291.0175781,2.7062988c.003418.9914551.0380859,1.6083984.1030273,1.8508301.0654297.2424316.1743164.4418945.3276367.5986328s.3842773.2861328.6923828.3881836c.3085938.1020508.6083984.1530762.8994141.1530762.6513672,0,1.1503906-.0893555,1.4970703-.2678223.3466797-.1787109.5957031-.4255371.7470703-.7407227.1513672-.3154297.2270508-.7937012.2270508-1.4353027,0-.0183105-.0058594-.1640625-.0170898-.4375v-.1584473c0-.0583496.0039062-.1721191.0112305-.3415527.0078125-.1696777.0117188-.2687988.0117188-.2980957l-.0864258-1.5690918c-.0268555-.5285645-.0581055-.8400879-.0947266-.9348145-.0361328-.0947266-.0888672-.1660156-.1577148-.2133789-.1494141-.1020508-.4331055-.1931152-.8505859-.2731934-.0195312-.0510254-.0307617-.1040039-.034668-.1584473.1494141-.0146484.296875-.0219727.4423828-.0219727.1533203,0,.3144531.0056152.4829102.0163574.2529297.0183105.390625.0273438.4135742.0273438l.9082031-.0273438.1782227.0056152-.0058594.1965332c-.4711914.0583496-.7529297.126709-.8447266.2050781s-.1381836.2233887-.1381836.4345703c0,.1130371.0078125.3591309.0229492.7380371l.0405273,1.1318359-.0058594.4482422.0170898.5686035c0,.7143555-.0209961,1.2009277-.0629883,1.4597168-.0615234.3608398-.1484375.6469727-.2617188.8581543-.112793.2114258-.2768555.4018555-.4912109.5712891-.2143555.1696777-.5009766.309082-.8588867.418457-.3583984.1091309-.7119141.1638184-1.0605469.1638184-.5478516,0-.9423828-.036377-1.1835938-.109375-.440918-.1274414-.7915039-.2932129-1.0517578-.4973145-.2607422-.2041016-.4404297-.4082031-.5400391-.6123047-.1342773-.2697754-.2011719-.6633301-.2011719-1.1809082v-.3774414l-.0175781-1.5307617.0175781-1.2353516v-.8310547c0-.2114258-.0307617-.3591309-.0922852-.4428711-.0419922-.0583496-.1030273-.0874023-.1835938-.0874023l-.3393555.0053711c-.2524414,0-.4135742-.0253906-.4824219-.076416-.0117188-.032959-.0175781-.0620117-.0175781-.0874023,0-.032959.0117188-.0583496.034668-.0766602.0419922-.0290527.09375-.0437012.1552734-.0437012h.1494141l.3847656-.0053711h.9082031l1.5112305-.0163574Z"/>
          <path class="cls-3" d="m190.133728,69.6748773c.0385742-.0317383.0712891-.0512695.0981445-.0585938.0649414-.0183105.1757812-.0327148.3330078-.0437012.371582-.0219727.6015625-.0546875.6894531-.0986328.0537109-.0727539.0805664-.1750488.0805664-.3063965l-.0058594-.3828125.0058594-1.3898926-.0112305-.6567383.0053711-1.3735352-.0283203-1.5593262c-.0039062-.3720703-.0288086-.5817871-.074707-.6293945-.0693359-.0693359-.2739258-.109375-.6152344-.1203613-.1455078-.003418-.2739258-.0144043-.3847656-.0327148-.0498047-.0253906-.074707-.0581055-.074707-.0983887,0-.0290527.0092773-.0637207.0288086-.1037598.0341797-.0180664.0649414-.0273438.0917969-.0273438.0537109,0,.1186523.0019531.1953125.0056152.2260742.0217285.4599609.0327148.7011719.0327148l.425293-.0109863,1.0112305.0219727c.5058594,0,.9003906-.0056152,1.184082-.0163574.2832031-.0109863.4750977-.0166016.574707-.0166016.0878906,0,.3061523.0073242.6547852.0219727l.8164062-.0053711.0976562.0163574.4770508-.0163574.0571289.0270996c.019043.0292969.0327148.0603027.0405273.0930176,0,.0510254-.0087891.1291504-.0258789.2348633-.0175781.1057129-.0258789.1711426-.0258789.1965332,0,.3789062.0131836.6994629.0400391.9616699-.0039062.0217285-.0151367.036377-.0336914.0437012-.0415039,0-.0791016-.0056152-.112793-.0166016-.0419922-.0690918-.0986328-.1911621-.1694336-.3659668-.0712891-.1748047-.1777344-.3769531-.3193359-.6062012-.0961914-.1530762-.1708984-.2441406-.2246094-.2731934s-.1645508-.0437012-.3334961-.0437012c-.0341797,0-.2089844-.0036621-.5229492-.0109863-.0844727-.0036621-.1669922-.0053711-.2475586-.0053711l-1.6386719.0327148h-.144043c-.2109375,0-.3374023.0253906-.3793945.076416-.0654297.0874023-.0976562.3442383-.0976562.7702637,0,.0437012.0092773.4807129.0283203,1.3110352v.7592773c.0424805.0109863.0883789.0166016.1381836.0166016h.0976562c.0649414,0,.1611328.001709.2871094.0053711.1992188.0073242.3334961.0109863.4023438.0109863.0458984,0,.0864258-.0019531.1206055-.0056152.4140625-.0144043.9462891-.0217285,1.5976562-.0217285.203125-.0327148.3217773-.0710449.3564453-.1147461.0576172-.0656738.1005859-.2368164.1293945-.5134277.0288086-.2768555.0927734-.4333496.1923828-.4699707.0498047,0,.0957031.0092773.1381836.0273438.0073242.0292969.0112305.0566406.0112305.0820312s-.0039062.0673828-.0112305.1254883c-.0195312.1350098-.0288086.557373-.0288086,1.2675781,0,.189209.0102539.4006348.03125.6335449.0214844.2331543.0317383.3588867.0317383.3769531,0,.0327148-.0058594.076416-.0170898.1311035-.0307617.0146484-.0556641.0219727-.074707.0219727h-.0400391c-.0615234-.1020508-.1210938-.260498-.1782227-.4753418-.0996094-.3679199-.2041016-.5981445-.3134766-.6911621-.1088867-.0927734-.2861328-.1391602-.53125-.1391602-.0537109,0-.1513672.0026855-.293457.0080566-.1416016.0056152-.3525391.0083008-.6318359.0083008h-.3735352c-.5327148,0-.8813477.0109863-1.0458984.032959l-.0058594.1804199.0058594,1.0068359-.0058594.6347656.0058594.6184082c.003418.3720703.0288086.5874023.074707.6455078.0649414.0803223.206543.1206055.425293.1206055l.3505859-.0056152c.0302734,0,.1499023.0026855.3588867.0083008.2089844.0053711.4663086.0080566.7729492.0080566.7392578,0,1.2319336-.0300293,1.4770508-.090332s.4472656-.1672363.605957-.3205566c.1591797-.1535645.359375-.4841309.6005859-.9921875.0727539-.1499023.1455078-.2248535.21875-.2248535.0341797,0,.0727539.0146484.1147461.0437012-.1113281.3605957-.1743164.5974121-.1894531.7102051-.0424805.255127-.0673828.5153809-.074707.78125,0,.1201172-.0307617.220459-.0922852.3005371h-.1264648l-1.6147461.0163574-.7241211-.0056152-1.7241211.0219727h-.7006836c-.0883789,0-.1708984.001709-.2470703.0053711-.6899414.0290527-1.1977539.0437012-1.5229492.0437012-.0576172,0-.097168-.0087891-.1181641-.0266113s-.03125-.0444336-.03125-.079834l.0053711-.0534668Z"/>
          <path class="cls-3" d="m197.7255249,63.0774652l-.0058594-.262207c.59375,0,1.0288086-.0146484,1.3046875-.0437012.1069336-.0109863.1816406-.0163574.2241211-.0163574.0341797,0,.0859375.001709.1547852.0053711.1611328.1274414.3105469.2731934.4482422.4370117.0307617.0327148.0654297.0693359.1035156.109375l1.2128906,1.2727051.1723633.1967773c.2451172.2729492.4682617.5061035.6694336.6992188.2011719.1928711.5927734.595459,1.175293,1.2072754l1.3730469,1.4475098c.1342773.1420898.3066406.3188477.5175781.5300293l.0053711-.0874023c-.0229492-.5063477-.0341797-.7739258-.0341797-.8032227l.0229492-.3276367-.0117188-.5134277v-.2351074c0-.1491699-.0131836-.6098633-.0400391-1.3820801-.0039062-.1054688-.019043-.3049316-.0458984-.5981445-.0268555-.2929688-.0405273-.5507812-.0405273-.7729492,0-.4006348-.0249023-.6335449-.074707-.6992188-.0341797-.0473633-.1972656-.0964355-.4882812-.1474609-.0688477-.0036621-.1762695-.0146484-.3217773-.0327148-.1723633-.0073242-.2739258-.0163574-.3046875-.0273438s-.0610352-.0419922-.0917969-.0930176c.0078125-.0581055.0249023-.112793.0517578-.1638184.1035156-.0290527.2045898-.0437012.3046875-.0437012.1069336,0,.2402344.0129395.3994141.0383301.1586914.0253906.3012695.0380859.4277344.0380859.1762695,0,.4501953-.0107422.8217773-.0327148.2109375-.0144043.3564453-.0217285.4370117-.0217285h.0976562l-.0117188.1691895c-.0610352.0256348-.1455078.0410156-.2524414.0463867-.1074219.0056152-.2070312.0209961-.2988281.0466309-.1381836.0400391-.2207031.074707-.2475586.1037598-.0917969.0947266-.1376953.1911621-.1376953.2895508l.0629883,1.7260742.0463867.7922363-.0058594.2294922.0341797,1.0979004c.0234375.7502441.034668,1.4020996.034668,1.9555664,0,.1203613-.0078125.3806152-.0229492.78125l-.2680664.0219727c-.1337891-.145752-.5957031-.6044922-1.3852539-1.376709-.184082-.1784668-.3085938-.3039551-.3735352-.3769531l-.4946289-.5407715c-.1914062-.2001953-.3164062-.3278809-.3735352-.3823242-.0576172-.0546875-.0996094-.0947266-.1264648-.1203613-.4179688-.451416-.9604492-1.0158691-1.6269531-1.6933594-.1801758-.1821289-.4448242-.4660645-.793457-.8522949-.21875-.2438965-.3564453-.3933105-.4140625-.4477539-.0571289-.0546875-.1357422-.1166992-.2353516-.185791l-.0175781.185791c0,.7099609.019043,1.6896973.0576172,2.9389648l.0400391,1.8081055c.0039062.152832.0136719.3005371.0288086.4423828l.2011719.0437012c.3637695.032959.722168.0820312,1.074707.1474609.0268555.0219727.0498047.0383301.0688477.0493164l-.0058594.2075195c-.0610352.0183105-.1108398.0273438-.1494141.0273438-.0419922,0-.09375-.0036621-.1547852-.0109863-.3793945-.0290527-.8413086-.0437012-1.3852539-.0437012-.3828125,0-.7202148.0090332-1.0112305.0273438l-.0805664.0056152c-.034668,0-.0844727-.0039062-.1494141-.0109863l-.0058594-.1640625.1494141-.0654297.2700195-.0383301c.2416992-.0327148.4179688-.0690918.5288086-.1091309.0727539-.0253906.1323242-.0637207.1782227-.1147461.0419922-.2512207.0634766-.6191406.0634766-1.1035156,0-.2258301-.0058594-.6391602-.0175781-1.2399902v-.7429199l-.0112305-1.5515137c-.0078125-.6918945-.0327148-1.0998535-.074707-1.2236328-.0229492-.0654297-.0712891-.1237793-.144043-.1748047-.1455078-.0983887-.3359375-.1601562-.5717773-.185791-.2353516-.0253906-.3876953-.0471191-.456543-.0654297Z"/>
        </g>
      </g>
      <g>
        <path class="cls-2" d="m69.1792963,44.1102814c-2.8811998,4.4341146-5.7623995,8.8704207-8.6391895,13.3023304h-.0176391c-2.8723802-4.4208853-5.75358-8.8572048-8.6391895-13.3023304.0045173-.0066147.0088196-.0154208.0133369-.0220355h-.0287173c-2.8701215-4.4208987-5.7491164-8.8528084-8.6325211-13.2935243.0044098-.011011.0110245-.0198306.0176391-.0286367h-.0352782c-2.8723264-4.4208987-5.7491164-8.8483987-8.6303162-13.286923,2.8868495-4.4443705,5.7697632-8.8844249,8.6479553-13.3155597,8.6524333,13.3142765,17.3020111,26.646221,25.9439197,39.9466792Z"/>
        <g>
          <path class="cls-5" d="m34.5874634,17.4790765c-2.8736572,4.425293-5.7498169,8.8540039-8.625,13.2807617,2.8825073,4.4394531,5.7659912,8.8779297,8.6472168,13.3144531,2.8759766-4.4272461,5.7518921-8.8544922,8.6257324-13.2792969-2.8764648-4.4316406-5.7613525-8.8671875-8.6479492-13.315918Z"/>
          <path class="cls-4" d="m0,70.736889h17.2959595c2.8789673-4.4316406,5.7601929-8.8681641,8.6434937-13.309082-.0021973-.0039062-.0043945-.0087891-.0087891-.0151367h.0198364c2.87677-4.4321289,5.7557983-8.8681641,8.6369629-13.3022461-.0044556-.0068359-.0088501-.0131836-.0131836-.0219727h.0263672c.0030518-.0048828.0059814-.0092773.0090332-.0141602-2.8812256-4.4365234-5.7647095-8.875-8.6472168-13.3144531C17.3078003,44.0860101,8.6502075,57.4160883,0,70.736889Z"/>
        </g>
        <path class="cls-1" d="m86.4707972,70.7369911h-34.5830017c2.8796903-4.4383759,5.7657403-8.879763,8.6523113-13.3243793h17.2782715c2.8907266,4.4581369,5.7809407,8.8985945,8.6524189,13.3243793Z"/>
        <path class="cls-6" d="m60.5312872,57.4258277c-2.8833509,4.4407293-5.7668093,8.8770488-8.6434918,13.3111634h-17.2981693c5.7614417-8.8693075,11.5296659-17.7520358,17.293652-26.6267097,2.8886561,4.4494527,5.7723556,8.8906821,8.6480091,13.3155463Z"/>
      </g>
    </g>
  </g>
</svg>