<?xml version="1.0" encoding="UTF-8"?>
<svg id="_レイヤー_2" data-name="レイヤー 2" xmlns="http://www.w3.org/2000/svg" viewBox="0 0 327.3828125 113.9101562">
  <defs>
    <style>
      .cls-1 {
        fill: #d1dbfa;
      }
    </style>
  </defs>
  <g id="_レイヤー_1-2" data-name="レイヤー 1">
    <g>
      <path d="m175.2666016,72.8085938c-1.1396484.5703125-2.7304688,1.3945312-4.8144531,2.3691406-.0302734.1660156-.1650391.3007812-.3007812.3613281l-.5097656-1.2304688c.4648438-.1054688,1.2900391-.3457031,2.2802734-.6445312v-4.0957031h-1.7998047l-.1201172-.4199219h1.9199219v-3.75h-1.9355469l-.1044922-.4492188h3.6445312l.6748047-.8847656s.7949219.6289062,1.2753906,1.09375c-.0302734.1660156-.1796875.2402344-.3896484.2402344h-2.2050781v3.75h.5849609l.5996094-.8691406s.7050781.6289062,1.1103516,1.0488281c-.0449219.1660156-.1953125.2402344-.375.2402344h-1.9199219v3.7802734c.734375-.2402344,1.5146484-.4951172,2.3095703-.7646484l.0751953.2246094Zm8.1748047,3.1650391c.2695312.1347656.3300781.2548828.3300781.4345703,0,.4052734-.375.5996094-2.0556641.5996094h-1.0341797c-.9599609,0-1.125-.2392578-1.125-.9140625v-3.9599609h-1.0654297c-.4501953,2.9853516-1.9794922,4.3945312-5.5498047,5.1591797l-.0751953-.2402344c3.0751953-1.0039062,4.2148438-2.3691406,4.515625-4.9189453h-.6757812v.5400391c0,.1044922-.3896484.3300781-.7949219.3300781h-.1650391v-8.9550781l1.0351562.4648438h4.5l.5703125-.6152344,1.2294922.9453125c-.1044922.1201172-.359375.2548828-.6601562.3144531v7.3505859c-.0292969.1201172-.4951172.3447266-.8398438.3447266h-.1347656v-.7197266h-.9150391v3.7490234c0,.1806641.0302734.2402344.3896484.2402344h.8251953c.375,0,.6748047-.0146484.7949219-.0146484.1201172-.0146484.1806641-.0449219.2255859-.1943359.0898438-.2558594.2695312-1.15625.4345703-2.0107422h.1953125l.0449219,2.0703125Zm-6.7353516-11.0097656v1.9052734h4.7402344v-1.9052734h-4.7402344Zm4.7402344,2.3544922h-4.7402344v1.9199219h4.7402344v-1.9199219Zm-4.7402344,4.3945312h4.7402344v-2.0244141h-4.7402344v2.0244141Z"/>
      <path d="m189.8769531,64.0791016c-.0458984.1650391-.2255859.2841797-.5849609.2695312-.4208984,1.1103516-.9150391,2.1748047-1.4707031,3.1494141l.6904297.2558594c-.0605469.1347656-.1953125.2246094-.4648438.2548828v8.9248047c-.015625.0898438-.4199219.3447266-.7949219.3447266h-.1953125v-8.5195312c-.6601562.9892578-1.3798828,1.8603516-2.1445312,2.5791016l-.2099609-.1494141c1.3496094-1.8291016,2.7441406-4.7548828,3.5839844-7.6494141l1.5908203.5400391Zm8.3691406,11.9990234c.4501953.5703125.5097656.7949219.375.9609375-.3447266.4941406-1.2900391.0742188-2.0097656-.4355469-2.3398438-1.6503906-3.5703125-4.4394531-4.1103516-7.7851562l-3.5839844.4052734-.1650391-.4199219,3.6894531-.4052734c-.2246094-1.4697266-.3154297-3.0449219-.3154297-4.6640625l1.5908203.1943359c-.0302734.1806641-.1650391.3603516-.5253906.4052734-.0146484,1.3203125.0595703,2.6699219.2402344,3.9453125l3.1191406-.3457031.6308594-.9746094s.8691406.5390625,1.4091797.9296875c-.0292969.1503906-.1650391.2548828-.359375.2695312l-4.7402344.5410156c.4501953,2.9238281,1.5302734,5.5039062,3.6298828,6.8535156.2705078.2255859.375.2255859.4951172-.0585938.2099609-.3613281.4951172-1.1113281.7050781-1.7109375l.1650391.0449219-.2402344,2.25Zm-3.6894531-11.984375c3.1796875.5849609,2.5791016,2.640625,1.5146484,2.0546875-.2695312-.6289062-1.0654297-1.4550781-1.6650391-1.9199219l.1503906-.1347656Z"/>
      <path d="m205.6865234,66.5986328c-.1054688.1201172-.3603516.2255859-.6601562.2851562v8.8496094c-.0146484.0898438-.4648438.3447266-.7949219.3447266h-.1347656v-1.0800781h-2.7001953v1.1103516c0,.1201172-.3447266.3603516-.7802734.3603516h-.1494141v-10.6796875l.9902344.4794922h.5693359c.1806641-.7197266.4355469-1.9052734.5849609-2.7148438l1.5605469.3603516c-.0605469.2246094-.2402344.3300781-.5556641.3300781-.2998047.5996094-.7949219,1.4248047-1.1542969,2.0244141h1.484375l.5400391-.6142578,1.2001953.9443359Zm-4.2900391.1201172v3.5849609h2.7001953v-3.5849609h-2.7001953Zm2.7001953,7.8300781v-3.8251953h-2.7001953v3.8251953h2.7001953Zm9.5546875-7.9804688c-.1201172.1347656-.2998047.1953125-.6298828.2402344-.2099609,5.3105469-.7353516,8.7441406-1.5605469,9.6445312-.4648438.5253906-1.0800781.7207031-1.8300781.7207031,0-.3007812-.0595703-.5556641-.2841797-.7207031-.2402344-.1796875-.9003906-.359375-1.5302734-.4648438l.0302734-.2548828c.6894531.0751953,1.8144531.1806641,2.1591797.1806641.3300781,0,.4804688-.0458984.6757812-.2402344.6748047-.6005859,1.125-4.0507812,1.3496094-9h-4.3945312c-.6298828,1.2451172-1.3798828,2.3242188-2.2050781,3.1347656l-.2099609-.1347656c.9902344-1.5,1.9345703-3.7949219,2.4150391-6.1201172l1.5292969.4501953c-.0595703.1796875-.2246094.2998047-.5546875.2998047-.2246094.6748047-.4794922,1.3203125-.7646484,1.9345703h4.0341797l.6005859-.6894531,1.1699219,1.0195312Zm-6.4501953,2.4609375c3.7802734,1.6044922,2.9248047,4.0341797,1.8300781,3.1943359-.2099609-1.0205078-1.2001953-2.3095703-1.9951172-3.0751953l.1650391-.1191406Z"/>
    </g>
    <g>
      <path d="m200.5976562,109.1503906c.1357422,1.2236328.3740234,3.1269531,1.8359375,3.6035156.9863281.3056641,1.7675781.3056641,2.1074219.3056641.1699219,0,.3740234.0341797.3740234.2041016,0,.2041016-.1015625.2714844-.5097656.2714844-.7480469,0-4.6230469-.1015625-5.8808594-.203125-.7822266-.0683594-.9521484-.1699219-.9521484-.3398438,0-.1367188.0673828-.1699219.2373047-.2382812.2382812-.1015625.2041016-.6123047.1367188-1.2246094l-1.6318359-17.7460938-8.4316406,17.8828125c-.7138672,1.4960938-.8154297,1.8017578-1.1220703,1.8017578-.2373047,0-.4072266-.3408203-1.0537109-1.5634766-.8837891-1.6660156-3.8076172-7.5478516-3.9775391-7.8876953-.3056641-.6123047-4.2158203-9.0087891-4.5898438-9.9267578l-1.3935547,16.0117188c-.0341797.5449219-.0673828,1.0205078-.0673828,1.5976562,0,.8505859.4072266,1.1230469.9179688,1.2246094.5771484.1357422,1.0195312.1357422,1.2236328.1357422s.3398438.0673828.3398438.1699219c0,.2382812-.1699219.3056641-.5097656.3056641-1.2578125,0-2.9921939-.1015625-3.2636719-.1015625-.3066406,0-1.9384766.1015625-2.8564453.1015625-.3398438,0-.5771484-.0332031-.5771484-.2714844,0-.1367188.1699219-.2041016.3398438-.2041016.2714844,0,.5097656,0,1.0195312-.1025391,1.1220703-.203125,1.1904297-1.4277344,1.3603516-2.8212891l2.4472656-22.0976562c.0341797-.3740234.1699219-.6796875.3740234-.6796875s.3398438.1357422.5097656.5097656l10.4033203,21.3837891,9.9951172-21.3496094c.1357422-.3066406.2714844-.5439453.5097656-.5439453s.3398438.2724609.4082031.9179688l2.2773438,20.8740234Z"/>
      <path d="m206.8222656,102.5546875c0-4.5214844,3.5009766-11.2871094,11.8984375-11.2871094,6.7314453,0,11.8652344,4.0117188,11.8652344,10.8457031,0,6.4921875-4.7939453,11.796875-12.0351562,11.796875-8.3291016,0-11.7285156-6.1875-11.7285156-11.3554688Zm20.5673828.4082031c0-6.8339844-4.2148438-10.640625-8.8730469-10.640625-4.7255859,0-8.5332031,2.9238281-8.5332031,9.3486328,0,6.6630859,3.7060547,11.0830078,9.4169922,11.0830078,2.2783203,0,7.9892578-1.15625,7.9892578-9.7910156Z"/>
      <path d="m237.7617188,100.0390625c0-4.4882812,0-5.3378906-.0683594-6.2216797-.0673828-.9179688-.3398438-1.3935547-1.3251953-1.5976562-.2041016-.0341797-.7138672-.0673828-.9863281-.0673828-.1699219,0-.3398438-.1025391-.3398438-.2050781,0-.203125.2041016-.2714844.5097656-.2714844,1.3935547,0,3.5361328.1015625,3.6376953.1015625.2382812,0,2.0058594-.1015625,3.9091797-.1015625,2.9921875,0,8.5673828-.3066406,12.1708984,3.3320312,1.4960938,1.4960938,2.8896484,3.875,2.8896484,7.3085938,0,3.6035156-1.5634766,6.4257812-3.2294922,8.125-1.3251953,1.3261719-3.9091797,3.3320312-9.0771484,3.3320312-1.2919922,0-2.9570312-.0683594-4.2490234-.1699219-1.2919922-.0683594-2.3457031-.1699219-2.4482422-.1699219-.0673828,0-.5097656,0-1.1552734.0341797-.6464844,0-1.4619141.0673828-1.9716797.0673828-.3066406,0-.4765625-.0673828-.4765625-.2373047,0-.1025391.1025391-.2382812.3740234-.2382812.2724609,0,.5097656-.0341797.7822266-.1025391.578125-.1015625.78125-.8154297.8837891-1.5634766.2041016-1.2578125.1699219-3.5693359.1699219-6.3232422v-5.03125Zm2.7880859,2.8896484c0,3.0595703.0332031,5.7119141.0332031,6.2216797.0341797,1.0537109.1025391,1.9716797.3398438,2.2773438.3740234.578125,1.4619141,1.2919922,4.9980469,1.2919922,2.7880859,0,5.3037109-.8837891,7.0712891-2.6513672,1.4960938-1.4960938,2.2099609-4.0458984,2.2099609-6.765625,0-3.8417969-1.7675781-6.1875-2.9238281-7.3095703-2.8896484-2.8896484-6.2216797-3.2294922-9.5869141-3.2294922-.4765625,0-1.5302734.1015625-1.734375.2382812-.2714844.1357422-.3740234.2714844-.3740234.578125-.0332031.9853516-.0332031,3.875-.0332031,5.9150391v3.4335938Z"/>
      <path d="m265.3017578,100.0390625c0-4.453125,0-5.2695312-.0683594-6.1875-.0673828-.9521484-.3056641-1.4277344-1.2919922-1.6318359-.203125-.0341797-.5439453-.0673828-.8154297-.0673828-.2382812,0-.4423828-.1025391-.4423828-.2050781,0-.203125.1699219-.2714844.5107422-.2714844.6796875,0,1.5976562.0683594,3.5009766.1015625.1699219,0,6.2216797,0,6.9013672-.0332031.6796875-.0341797,1.0537109-.0683594,1.3261719-.1699219.2041016-.0683594.2382812-.1025391.3740234-.1025391.0673828,0,.1357422.0683594.1357422.2382812,0,.2041016-.2041016.6796875-.2714844,1.5302734-.0341797.5771484-.0683594,1.1210938-.1025391,1.7675781,0,.3056641-.0673828.5097656-.2382812.5097656-.1699219,0-.2373047-.1367188-.2373047-.3740234-.0341797-.5107422-.1367188-.8505859-.2382812-1.0878906-.2041016-.6806641-.5097656-.9179688-2.2099609-1.0205078-.4414062-.0332031-3.8076172-.0673828-3.875-.0673828-.1025391,0-.1699219.0673828-.1699219.2724609v7.7167969c0,.203125.0332031.3398438.203125.3398438.4082031,0,3.8759766-.0341797,4.5898438-.1015625.7822266-.0351562,1.2919922-.1367188,1.5634766-.5097656.1367188-.2050781.2382812-.2724609.3740234-.2724609.0683594,0,.1367188.0341797.1367188.2041016s-.1367188.8154297-.2382812,1.8017578c-.1015625.9521484-.1015625,1.6318359-.1357422,2.0732422-.0341797.2724609-.1025391.3740234-.2382812.3740234-.1699219,0-.2041016-.2041016-.2041016-.4423828,0-.203125-.0341797-.5429688-.1015625-.8154297-.1357422-.4423828-.3398438-.9179688-1.6318359-1.0195312-.7822266-.0683594-3.5361328-.1357422-4.0800781-.1357422-.2041016,0-.2373047.1015625-.2373047.2373047v2.4814453c0,1.0546875-.0341797,4.0458984,0,4.6240234.0673828,1.2578125.2373047,1.9033203.9511719,2.2099609.5107422.2382812,1.3261719.3056641,2.4824219.3056641.6455078,0,1.7333984.0341797,2.5830078-.2041016,1.0205078-.3056641,1.2578125-.9853516,1.5302734-2.2441406.0683594-.3398438.1699219-.4746094.3056641-.4746094.2041016,0,.2041016.3046875.2041016.5097656,0,.2373047-.2714844,2.3789062-.3740234,2.9570312-.1357422.6796875-.3740234.7480469-1.4960938.7480469-2.2431729,0-3.1953125-.0683594-4.3847656-.0683594-1.1904297-.0332031-2.7539062-.1015625-4.0117188-.1015625-.7822266,0-1.4277344.1015625-2.2441406.1015625-.3056641,0-.4755859-.0673828-.4755859-.2373047,0-.1357422.1357422-.2382812.3056641-.2382812.2041016,0,.4423742-.0341797.6796875-.1025391.6123047-.1347656,1.0205078-.5771484,1.0878906-2.6855469.0341797-1.1552734.0683594-2.5488281.0683594-5.1328125v-5.0996094Z"/>
      <path d="m283.7636719,100.0390625c0-4.4882812,0-5.3037109-.0683594-6.2216797-.0673828-.9179688-.3056641-1.4277344-1.359375-1.6318359-.2041016-.0332031-.5439453-.0683594-.8164062-.0683594-.2382812,0-.3740234-.0673828-.3740234-.203125,0-.1367188.1025391-.2382812.4082031-.2382812,1.4619141,0,3.5351562.1015625,3.6035156.1015625.3056641,0,2.6181641-.1015625,3.5693359-.1015625,1.9042969,0,3.9775391.1699219,5.5761719,1.2919922.6455078.4755859,2.0390625,1.8359375,2.0390625,4.1474609,0,1.8691406-.9179688,4.25-3.6035156,6.4257812,2.4824219,3.0585938,4.5214844,5.5751953,6.2558594,7.3769531,1.6318359,1.6660156,2.6513672,1.9375,3.6035156,2.0742188.2382812.0332031.9521484.0673828,1.0537109.0673828.2724609,0,.3740234.1025391.3740234.2382812,0,.1699219-.1357422.2373047-.6123047.2373047h-2.3789062c-1.5986328,0-2.3466797-.1015625-3.09375-.4082031-1.4287109-.6113281-2.4482422-2.140625-4.2158203-4.4189453-1.3261719-1.6318359-2.6855469-3.4677734-3.2636719-4.1816406-.1357422-.1357422-.2041016-.2041016-.4082031-.2041016l-3.5019531-.0332031c-.1357422,0-.1699219.0332031-.1699219.1699219v.4755859c0,2.7197266,0,5.2011719.1699219,6.4248047.1025391.8164062.2041016,1.4960938,1.3261719,1.6328125.3398438.0332031.7138672.0673828.9863281.0673828.3056641,0,.4414062.1025391.4414062.2041016,0,.1699219-.1357422.2714844-.4755859.2714844-1.7675781,0-3.671875-.1015625-3.8076172-.1015625-.5439453,0-2.0400391.1015625-2.9580078.1015625-.3398438,0-.4755859-.0673828-.4755859-.2714844,0-.1015625.2041016-.2041016.4072266-.2041016.2382812,0,.4765625,0,.7480469-.0673828.578125-.1025391.7822266-.4765625.8847656-1.2929688.1699219-1.2226562.1357422-4.0117188.1357422-6.5605469v-5.0996094Zm2.6171875,2.4140625c0,.1699219.0341797.3398438.1699219.4082031.4423828.2373047,1.8017578.4414062,3.0263672.4414062.7138672,0,1.5634766-.0341797,2.2773438-.5097656,1.0195312-.6464844,1.7001953-2.1425781,1.7001953-4.3183594,0-3.7050781-1.9716797-5.7451172-4.9980469-5.7451172-.8496094,0-1.5634766.0683594-1.9716797.1699219-.1015625.0341797-.2041016.1357422-.2041016.3056641v9.2480469Z"/>
      <path d="m305.4892578,92.6621094c0-1.0546875.1015625-1.3945312.3740234-1.3945312.2382812,0,.8154297.6796875,1.0537109.9179688.3056641.3398438,5.03125,5.1679688,9.7910156,10.0292969,2.6523438,2.5839844,6.0517578,6.0859375,6.9355469,6.9013672l-.3740234-14.1425781c-.0341797-1.8359375-.2382812-2.4482422-1.15625-2.6865234-.5771484-.1015625-1.0878906-.1347656-1.3251953-.1347656-.3398438,0-.4082031-.1367188-.4082031-.2724609,0-.1699219.2714844-.2041016.6113281-.2041016,1.4619141,0,2.890625.1015625,3.1962891.1015625.3398438,0,1.3935547-.1015625,2.7197266-.1015625.3740234,0,.4755859.0341797.4755859.2041016,0,.1357422-.1015625.2373047-.3056641.2724609-.2041016.0332031-.4755859.0332031-.8496094.1015625-.7822266.1699219-1.0205078.5097656-1.0205078,2.5498047l-.0673828,17.0654297c0,1.7001953-.0683594,1.8710938-.3066406,1.8710938-.2373047,0-.578125-.2382812-2.2431641-1.8027344-.1367188-.0683594-4.8623047-4.7597656-7.8193359-7.6484375-3.5361328-3.671875-6.9355469-7.2080078-7.7851562-8.0917969l.4414062,13.2929688c.0683594,2.3457031.2724609,3.2294922,1.1220703,3.4335938.5439453.1357422,1.1220703.1357422,1.3935547.1357422.2724609,0,.4082031.1025391.4082031.2382812,0,.1699219-.1699219.2373047-.5439453.2373047-1.8359375,0-3.0595703-.1015625-3.2978516-.1015625-.2373047,0-1.4951172.1015625-2.9570312.1015625-.3066406,0-.5097656-.0332031-.5097656-.2373047,0-.1357422.1357422-.2382812.4755859-.2382812.2382812,0,.6123047,0,1.0537109-.1357422.7480469-.2382812.9179688-1.15625.9179688-3.6376953,0-16.2158203.0341797-10.9814453,0-16.6240234Z"/>
    </g>
    <path class="cls-1" d="m128.9985352,94.8261719c.5917969,5.3251953,1.6274414,13.6103516,7.9887695,15.6806641,4.2900391,1.3320312,7.6923828,1.3320312,9.171875,1.3320312.7392578,0,1.6269531.1474609,1.6269531.8876953,0,.8867188-.4438477,1.1826172-2.21875,1.1826172-3.2548828,0-20.1191406-.4433594-25.5927734-.8867188-3.4023438-.2958984-4.1420898-.7402344-4.1420898-1.4794922,0-.5917969.2958984-.7402344,1.0356445-1.0361328,1.0356445-.4433594.8876953-2.6621094.5917969-5.3251953l-7.1010742-77.2216797-36.6875,77.8134766c-3.1064453,6.5087891-3.550293,7.8398438-4.8818359,7.8398438-1.0356445,0-1.7753906-1.4785156-4.5859375-6.8046875-3.8461914-7.2490234-16.5688477-32.8408203-17.3081055-34.3203125-1.331543-2.6630859-18.3442383-39.203125-19.9711914-43.1972656l-6.0654297,69.6777344c-.1479492,2.3662109-.2958984,4.4375-.2958984,6.9521484,0,3.6982422,1.7753906,4.8818359,3.9941406,5.3261719,2.5151367.5917969,4.4379883.5917969,5.3256836.5917969s1.4794922.2958984,1.4794922.7392578c0,1.0351562-.7397461,1.3310547-2.2192383,1.3310547-5.4736328,0-13.0180664-.4433594-14.2016602-.4433594-1.3310547,0-8.4321289.4433594-12.4262695.4433594-1.4794922,0-2.5151367-.1474609-2.5151367-1.1826172,0-.5917969.7397461-.8876953,1.4794922-.8876953,1.1835938,0,2.2192383,0,4.4379883-.4443359,4.8818359-.8876953,5.1777344-6.2128906,5.9174805-12.2783203L22.4863281,2.9589844c.1479492-1.6269531.7397461-2.9589844,1.6269531-2.9589844.8876953,0,1.4794922.5917969,2.2192383,2.2197266l45.2675781,93.0498047L115.0927734,2.3671875c.5917969-1.3310547,1.1835938-2.3671875,2.2192383-2.3671875,1.0351562,0,1.4790039,1.1835938,1.7749023,3.9951172l9.9116211,90.8310547Z"/>
  </g>
</svg>