<?xml version="1.0" encoding="UTF-8"?>
<svg id="_レイヤー_2" data-name="レイヤー 2" xmlns="http://www.w3.org/2000/svg" viewBox="0 0 41.5039062 92.5546875">
  <defs>
    <style>
      .cls-1 {
        fill: #fff;
      }
    </style>
  </defs>
  <g id="_レイヤー_1-2" data-name="レイヤー 1">
    <g>
      <path class="cls-1" d="m40.5986328,20.8037109c-1.0039062.5878906-2.6435547.6367188-4.6748047.6367188-4.234375,0-5.0175781,0-5.0419922-2.1044922-.0244141-1.2490234-.0488281-4.40625,0-6.0214844h-3.5244141l1.4443359.6855469c.1220703.0488281.3427734.1464844.3427734.3916016,0,.3671875-.3427734.4160156-.9794922.5136719-1.4931641,3.8671875-3.6953125,6.3632812-8.8847656,7.3427734l-.0976562-.2207031c3.5976562-1.3457031,5.5800781-3.3769531,6.5351562-5.0664062.8564453-1.4677734.9541016-2.6425781,1.0517578-3.6464844h-1.9082031c.0488281.734375-.1474609,1.3466797-1.0039062,1.3466797-.2695312,0-.5625-.0742188-.5625-.4169922,0-.1220703.0488281-.6357422.0732422-.7578125.1464844-2.6191406.1708984-5.0175781.1708984-6.8535156,0-1.7373047-.0244141-4.5273438-.0976562-5.5556641-.0244141-.3427734-.0732422-.6123047-.1464844-1.0771484l1.9580078,1.0771484h9.2265625l.5136719-.6367188c.0986328-.1220703.2939453-.3427734.4902344-.3427734.1220703,0,.3427734.1474609.4160156.1962891l1.0029297.7587891c.2207031.1708984.2695312.2695312.2695312.3916016,0,.2441406-.2939453.4648438-.8076172.7587891-.0976562,1.0029297-.0976562,1.9824219-.0976562,2.7167969,0,2.5693359.1464844,6.828125.2197266,8.1748047,0,.0976562.0488281.4892578.0488281.5869141,0,.4892578-.5869141.8320312-1.0273438.8320312-.5146484,0-.5146484-.2197266-.5146484-1.1992188h-2.8144531v2.9375c0,.5136719,0,2.8632812.0986328,3.2304688.1220703.5625.7832031.5869141,1.3945312.5869141,3.1328125,0,3.2304688,0,3.8427734-.0488281.8320312-.0488281,1.3212891-.3183594,1.8115234-1.7617188.1708984-.4648438.5869141-2.5214844.7089844-2.9375h.1230469c.2685547,3.2314453.3173828,3.5732422.7089844,3.9648438.0742188.0498047.3671875.2695312.4160156.3183594.0742188.0732422.0742188.1474609.0742188.2207031,0,.2939453-.2451172.6845703-.7587891.9785156ZM34.9931641,1.6640625h-10.1318359v3.2558594h10.1318359V1.6640625Zm0,3.8427734h-10.1318359v3.2802734h10.1318359v-3.2802734Zm0,3.8671875h-10.1318359v3.3535156h10.1318359v-3.3535156Z"/>
      <path class="cls-1" d="m41.1123047,38.6679688h-10.3037109v4.2587891c0,1.5175781-.5146484,2.4960938-2.6191406,2.9853516-.1953125-1.1748047-1.6396484-1.859375-2.0556641-2.0556641v-.1953125c.9052734.0732422,1.4931641.0732422,1.7861328.0732422,1.2978516,0,1.640625,0,1.640625-1.1015625v-3.9648438h-6.7558594c-.8808594,0-2.2265625.1220703-3.1572266.2939453l-.5869141-1.0527344c1.8349609.1464844,3.6220703.1708984,4.0869141.1708984h6.4130859c0-.6601562-.0253906-1.6884766-.3427734-2.59375l1.5419922.3671875c.3916016-.4160156,2.2509766-2.2763672,2.59375-2.6923828h-6.2412109c-.8564453,0-2.2021484.0976562-3.1328125.2939453l-.5869141-1.0527344c1.8359375.1464844,3.6220703.1708984,4.0625.1708984h6.1679688l.5869141-.6113281c.1474609-.171875.2695312-.2451172.4414062-.2451172.1464844,0,.2685547.0976562.4160156.2207031l1.3212891,1.1748047c.0976562.0976562.1708984.1953125.1708984.3173828,0,.3925781-.3173828.3925781-.6357422.3925781-.5634766,0-.8076172,0-1.1259766.0244141-.3427734.2197266-1.8603516,1.0761719-2.1787109,1.2480469-.4892578.2939453-1.296875.7587891-1.4677734.8564453.0488281.0488281.1464844.0976562.1464844.2451172,0,.2197266-.2939453.4160156-.4892578.5380859v1.3457031h7.2929688l1.0039062-1.1005859c.2451172-.2695312.2939453-.3183594.3916016-.3183594.1464844,0,.4404297.2441406.4404297.2685547l1.3212891,1.1259766c.1230469.1230469.2451172.1962891.2451172.3671875,0,.2207031-.2207031.2451172-.3916016.2451172Zm-.3427734-8.2236328c0,.0244141-1.2724609.1220703-1.4189453.1220703-1.1503906,1.1503906-1.2734375,1.296875-1.9580078,1.7871094l-.171875-.1230469c.5390625-1.0029297.8320312-1.7128906.9550781-2.6425781h-15.9580078c0,1.9091797-.6123047,4.234375-2.0810547,4.234375-.390625,0-.8320312-.1962891-.8320312-.7587891,0-.5390625.4902344-1.1015625,1.2490234-1.9580078.3662109-.4160156,1.1494141-1.4443359,1.1748047-3.0107422h.1953125c.1220703.2939453.1962891.5136719.2451172.9052734h10.7441406c.8320312-1.3457031,1.5175781-2.765625,1.9335938-4.3076172.1464844-.5136719.1464844-.7587891.1220703-1.1992188l2.1542969,1.0283203c.1464844.0732422.2695312.1464844.2695312.3183594,0,.2929688-.4902344.4160156-1.1992188.5869141-1.0283203,1.6396484-2.3994141,3.2060547-2.8398438,3.5732422h4.6503906l.6367188-.5869141c.0976562-.0986328.2685547-.2207031.4160156-.2207031.0732422,0,.1220703,0,.4160156.2451172l1.4443359,1.2236328c.1220703.1220703.1953125.1953125.1953125.3671875,0,.1220703-.0488281.3671875-.3427734.4160156Zm-15.4189453-2.6191406c-.6367188,0-.8076172-.5136719-1.0771484-1.3212891-.2939453-.9550781-.7587891-1.9091797-1.6152344-2.4970703l.0732422-.1953125c2.0068359.4892578,3.4511719,2.03125,3.4511719,3.1328125,0,.7099609-.5380859.8808594-.8320312.8808594Zm5.0419922-.2939453c-.5634766,0-.6123047-.1220703-1.2480469-1.5908203-.2695312-.6601562-.7099609-1.4921875-1.5175781-2.2265625l.0976562-.1962891c2.1533203.8320312,3.4755859,2.03125,3.4755859,3.1328125,0,.4404297-.2207031.8808594-.8076172.8808594Z"/>
      <path class="cls-1" d="m40.0839844,57.6074219c-.2685547.0488281-.3916016.0488281-1.6884766.0976562-.8076172.6123047-3.8427734,2.5947266-4.8945312,3.1582031l-.0986328-.1474609c.8320312-.7587891,3.0839844-3.2304688,3.4267578-3.7939453h-5.9472656v9.3251953c0,1.5908203-1.0283203,2.9130859-2.8388672,3.0595703.0244141-.4404297-.0244141-.6855469-.3671875-1.0273438-.0976562-.0986328-.9550781-.9306641-2.6191406-1.4931641l.0488281-.171875c1.2236328.2207031,2.9863281.3427734,3.4023438.3427734.6611328,0,1.0527344-.0488281,1.0527344-.9785156v-9.0566406h-6.8291016c-.8564453,0-2.2021484.0986328-3.1328125.2695312l-.5869141-1.0527344c1.8349609.1474609,3.6220703.1962891,4.0625.1962891h13.9023438l1.0517578-.8808594c.2695312-.2207031.3671875-.3183594.5634766-.3183594.2197266,0,.3671875.1464844.5136719.2695312l1.46875,1.3701172c.1464844.1220703.1708984.2695312.1708984.3671875,0,.3671875-.4160156.4404297-.6611328.4648438Zm-4.3076172-7.4404297c-1.6884766,1.2978516-2.2021484,1.5664062-4.8212891,2.9863281.4648438.4160156.8320312.8808594.8320312,1.4931641,0,.3916016-.1953125,1.0761719-.8808594,1.0761719-.5136719,0-.6367188-.2197266-1.1503906-1.1005859-.8564453-1.4443359-2.1289062-2.5214844-3.5732422-3.3535156l.0976562-.1708984c1.5664062.2929688,3.0839844.8320312,4.3808594,1.7861328,2.1054688-1.6884766,2.7900391-2.4472656,3.5244141-3.3037109h-9.2021484c-.8564453,0-2.2275391.0976562-3.1572266.2685547l-.5634766-1.0517578c1.8359375.1464844,3.5986328.1953125,4.0634766.1953125h8.8837891l1.1259766-.8320312c.2695312-.1953125.3427734-.2441406.4648438-.2441406.1230469,0,.171875,0,.6123047.3173828l1.3955078,1.0039062c.1220703.0732422.2197266.2451172.2197266.4160156,0,.5136719-.3427734.5136719-2.2519531.5136719Z"/>
      <path class="cls-1" d="m28.6542969,83.1074219c-.6357422,0-.7832031-.5625-.9052734-.9541016-.1220703-.4404297-.2207031-.6367188-.2939453-.8320312-.6855469.1708984-1.4189453.3183594-2.5693359.5380859,0,5.8251953.0244141,6.4619141.0488281,7.7587891,0,.3183594.1220703,1.7128906.1220703,1.9580078,0,.6367188-.7587891.9785156-1.0283203.9785156-.4160156,0-.4892578-.3662109-.4892578-.7333984,0-.2451172.1230469-1.2734375.1230469-1.4931641.1220703-2.7412109.0976562-7.171875.0732422-8.2480469-2.4970703.4892578-2.7900391.5625-3.3291016.6601562-.0244141.1230469-.2441406.6855469-.4892578.6855469-.0488281,0-.3183594,0-.4160156-.3427734l-.4892578-1.859375c.6601562.1708984,1.0029297.1708984,1.6640625.1708984.5625,0,1.3701172-.0244141,2.2519531-.0732422.6357422-.8564453,3.7441406-5.1640625,3.7197266-7.3183594l2.03125.9550781c.1230469.0732422.1962891.1953125.1962891.3662109,0,.171875-.0488281.3671875-.9794922.5146484-1.4189453,2.0556641-3.4257812,4.3808594-4.4296875,5.4580078,1.2724609-.0732422,2.5458984-.1474609,3.8183594-.3183594-.3427734-.6123047-.6611328-1.0527344-1.0039062-1.46875l.1474609-.1464844c1.0273438.5625,3.0341797,1.6396484,3.0341797,2.8388672,0,.4892578-.2929688.9052734-.8076172.9052734Zm-6.4853516,2.5214844c-.8564453,2.4228516-1.5908203,3.8183594-3.0351562,5.4824219l-.1220703-.0732422c1.0029297-1.9824219,1.9580078-5.6054688,1.8837891-6.8291016l1.8359375.6611328c.171875.0488281.2939453.1220703.2939453.2451172,0,.1464844-.171875.2685547-.8564453.5136719Zm3.0595703-13.4863281c-.6611328.9306641-.8818359,1.2246094-2.8886719,3.7207031.8564453.5380859,1.296875,1.2480469,1.296875,1.8105469,0,.4414062-.2441406,1.0771484-.8076172,1.0771484-.4648438,0-.6113281-.3183594-1.1259766-1.4931641-.5380859-1.2236328-1.1005859-1.7373047-1.5664062-2.1777344v-.1220703c1.1259766.3417969,1.5175781.5380859,1.9091797.7089844.6367188-1.2236328,1.8115234-3.4755859,1.8115234-4.8945312,0-.1962891-.0244141-.3916016-.0488281-.5634766l2.1533203,1.0527344c.0986328.0488281.1962891.1220703.1962891.3183594,0,.3427734-.1464844.4404297-.9296875.5625Zm2.9609375,16.4716797c-.5380859,0-.6113281-.3173828-.9052734-1.3701172-.3671875-1.3955078-.5878906-1.7128906-1.3710938-2.7412109l.0488281-.0732422c2.2275391,1.1015625,3.1572266,2.3251953,3.1572266,3.1083984,0,.5869141-.3916016,1.0761719-.9296875,1.0761719Zm12.0419922-11.2822266c-.4160156.2197266-.5146484.2929688-.7099609.4404297.0488281,3.4511719.0244141,9.2509766-1.3955078,12.2128906-.7832031,1.6396484-2.0068359,2.3984375-3.6953125,2.5693359-.0976562-.5380859-.2695312-1.2236328-2.3251953-2.4472656v-.0976562c.4892578.0732422,2.7167969.4648438,3.1816406.4648438.6855469,0,1.1503906-.2441406,1.6396484-1.296875,1.3222656-2.8144531,1.3222656-8.1015625,1.3222656-9.8632812,0-1.0527344-.0244141-1.8115234-.0488281-2.3496094h-7.1230469c-.3662109.6845703-1.3212891,2.59375-2.2021484,3.5732422l-.171875-.0976562c1.2734375-2.5458984,2.7910156-7.1230469,2.7910156-9.0810547,0-.5136719-.0498047-.6357422-.0986328-.8320312l2.3984375.9550781c.0742188.0244141.171875.1464844.171875.2441406,0,.1962891-.0488281.2939453-.0976562.3671875-.0742188.0488281-.734375.3671875-.8574219.4648438-.4404297,1.1748047-.8320312,2.1542969-1.6396484,3.8183594h6.5839844l.5625-.6113281c.1962891-.1962891.2451172-.2695312.3427734-.2695312.0488281,0,.1474609.0732422.3183594.1953125l1.1748047,1.0771484c.0732422.0732422.1464844.2207031.1464844.2939453,0,.1220703-.1220703.1708984-.2685547.2695312Zm-6.7802734,7.8320312c-.6601562,0-.8076172-.4658203-1.1738281-1.640625-.4169922-1.3457031-1.0039062-1.9335938-1.2978516-2.2265625l.0976562-.1474609c1.8603516.8574219,3.1826172,1.6162109,3.1826172,2.9375,0,.1464844,0,1.0771484-.8085938,1.0771484Z"/>
    </g>
    <g>
      <path class="cls-1" d="m.6533203,5.7036133c.1054688.9042969.1806641,1.4155273.2236328,1.5332031.03125.0805664.125.1547852.2802734.2231445h.1025391c.1552734,0,.71875.0249023,1.6884766.0742188.2744141.012207.5410156.0185547.8027344.0185547l1.1103516-.027832,1.2597656.0185547,2.3408203-.0092773,1.6796875.0092773c.7089844.0063477,1.1416016-.0483398,1.296875-.1635742s.265625-.4121094.3310547-.8916016.1132812-.7436523.1445312-.793457.0810547-.074707.1494141-.074707c.0439453,0,.0996094.0092773.1679688.027832.0556641.0625.0869141.2055664.09375.4296875,0,.03125.0068359.1166992.0224609.2568359s.0234375.2719727.0234375.3964844v.765625l.0283203,2.4560547c0,1.3876953-.1025391,2.3603516-.3076172,2.9174805-.2060547.5571289-.5527344,1.0009766-1.0410156,1.3305664-.4892578.3300781-1.0351562.4951172-1.6386719.4951172-1.1455078,0-2.0205078-.6000977-2.6240234-1.7998047-.1064453-.2050781-.1992188-.3666992-.2802734-.4848633-.4472656.2109375-.9853516.5063477-1.6132812.8852539l-2.0332031,1.184082c-.7490234.4731445-1.2177734.7998047-1.4082031.9804688s-.3476562.3999023-.4726562.6582031c-.1240234.2583008-.2431641.6928711-.3554688,1.3032227-.0615234.0058594-.1113281.0092773-.1484375.0092773-.0380859,0-.0839844-.003418-.140625-.0092773-.0126953-.8530273-.0185547-1.8520508-.0185547-2.9975586,0-.0810547.0058594-.1928711.0185547-.3359375.8476562-.4418945,1.7802734-.9619141,2.7958984-1.5595703l2.5253906-1.3818359c.2617188-.1865234.4248047-.3408203.4912109-.4619141.0644531-.121582.0976562-.2817383.0976562-.480957l-.0087891-.793457.0087891-.2617188c-.1992188-.0185547-.6074219-.027832-1.2226562-.027832H1.8300781c-.1181641-.0063477-.2832031.0185547-.4951172.074707-.1181641.0498047-.2128906.1352539-.2841797.2568359-.0722656.1210938-.1796875.4711914-.3222656,1.050293l-.09375.3828125c-.0625.0498047-.1464844.074707-.2519531.074707-.03125-.1679688-.046875-.2861328-.046875-.3544922,0-.559082.0058594-.9536133.0185547-1.1835938.0068359-.1181641.0097656-.2143555.0097656-.2890625l-.0185547-1.2675781.0087891-1.2397461c0-.0561523-.0087891-.3383789-.0283203-.8481445l.0380859-.1860352.0927734-.019043c.0566406,0,.1220703.043457.1962891.1303711Zm6.1064453,3.4643555c-.0058594.168457-.0097656.2924805-.0097656.3735352,0,.4482422.0537109.9648438.1591797,1.550293.0810547.4106445.2128906.7436523.3955078.9990234.1835938.2548828.4550781.4682617.8164062.6396484.359375.1708984.7324219.2563477,1.1181641.2563477.4228516,0,.8701172-.1337891,1.3417969-.4013672.3603516-.2055664.6611328-.5522461.9042969-1.0410156.2421875-.4887695.3632812-1.0751953.3632812-1.7602539,0-.1679688-.0087891-.3857422-.0283203-.6533203-.3222656-.0249023-.5712891-.0375977-.7451172-.0375977l-1.7431641.046875-.7167969-.0092773c-.4853516,0-1.1035156.012207-1.8554688.0371094Z"/>
      <path class="cls-1" d="m.5068359,17.590332c.0537109.0620117.0878906.1152344.0996094.1586914.03125.105957.0566406.2861328.0751953.5415039.0371094.6040039.09375.9775391.1679688,1.1206055.125.0869141.2998047.1308594.5244141.1308594l.6542969-.0092773,2.3759766.0092773,1.1220703-.019043,2.3476562.0097656,2.6650391-.046875c.6367188-.0063477.9951172-.046875,1.0761719-.121582.1181641-.1118164.1865234-.4448242.2050781-.9990234.0058594-.2363281.0253906-.4448242.0566406-.6254883.0429688-.0810547.0996094-.121582.1679688-.121582.0498047,0,.1083984.015625.1777344.046875.0302734.0561523.0458984.105957.0458984.1494141,0,.0869141-.0029297.1928711-.0087891.3173828-.0371094.3671875-.0566406.7470703-.0566406,1.1391602l.0195312.690918-.0380859,1.6435547c0,.8217773.0097656,1.4624023.0283203,1.9233398.0185547.4604492.0273438.7719727.0273438.9335938,0,.1430664-.0117188.4980469-.0371094,1.0644531l.0097656,1.3261719-.0283203.1586914.0283203.7749023-.046875.0932617c-.0498047.03125-.1025391.0527344-.1582031.0654297-.0878906,0-.2216797-.0141602-.4023438-.0419922-.1796875-.0283203-.2919922-.0419922-.3359375-.0419922-.6474609,0-1.1953125.0214844-1.6425781.0654297-.0380859-.0063477-.0625-.0249023-.0751953-.0551758,0-.0668945.0087891-.128418.0283203-.1831055.1181641-.0683594.3261719-.1601562.625-.2753906s.6445312-.2885742,1.0371094-.519043c.2607422-.1557617.4160156-.2768555.4667969-.3642578.0488281-.0874023.0742188-.2680664.0742188-.5419922,0-.0561523.0058594-.3393555.0185547-.8500977.0068359-.137207.0097656-.2709961.0097656-.4018555l-.0556641-2.6630859v-.2333984c0-.3427734-.0439453-.5483398-.1308594-.6166992-.1503906-.105957-.5888672-.1586914-1.3164062-.1586914-.0751953,0-.8222656.0151367-2.2412109.0463867h-1.2978516c-.0195312.0683594-.0283203.1430664-.0283203.2241211v.1586914c0,.105957-.0029297.2617188-.0087891.4667969-.0126953.3237305-.0195312.5419922-.0195312.6538086,0,.074707.0039062.1401367.0097656.1962891.0244141.671875.0371094,1.5371094.0371094,2.5957031.0566406.3295898.1210938.5224609.1962891.5786133.1123047.0932617.4042969.1635742.8779297.2099609.4726562.046875.7402344.1508789.8027344.3129883,0,.0810547-.015625.1557617-.046875.2241211-.0498047.012207-.0966797.0185547-.1396484.0185547-.0439453,0-.1152344-.0063477-.2148438-.0185547-.2304688-.03125-.9521484-.046875-2.1660156-.046875-.3242188,0-.6845703.0170898-1.0830078.0517578-.3984375.0336914-.6132812.0512695-.6445312.0512695-.0566406,0-.1308594-.0092773-.2246094-.0283203-.0244141-.0498047-.0371094-.090332-.0371094-.1210938v-.0654297c.1738281-.0996094.4453125-.1962891.8125-.2895508.6289062-.1621094,1.0224609-.331543,1.1816406-.5087891.1582031-.1772461.2373047-.465332.2373047-.8637695,0-.0874023-.0048828-.2460938-.0136719-.4760742-.0097656-.2304688-.0146484-.5727539-.0146484-1.0273438v-.6069336c0-.8652344-.0185547-1.4316406-.0556641-1.6992188l-.3085938-.0092773-1.7207031.0092773-1.0849609-.0092773-1.0566406.0092773c-.6367188.0063477-1.0039062.046875-1.1035156.121582-.1376953.1054688-.2060547.3359375-.2060547.690918l.0087891.5693359c0,.0498047-.0039062.2441406-.0136719.5834961s-.0136719.7578125-.0136719,1.2558594c0,1.2016602.0507812,2.0014648.1542969,2.3999023.1025391.3984375.2851562.7265625.5478516.9848633s.8271484.5834961,1.6962891.9760742c.2558594.1181641.3837891.2363281.3837891.3544922,0,.0561523-.0253906.1181641-.0751953.1870117-.6162109-.1806641-1.0205078-.2836914-1.2128906-.3081055-.4365234-.0688477-.8808594-.109375-1.3359375-.121582-.2050781,0-.3769531-.0498047-.5136719-.1494141v-.2055664l-.0273438-2.6235352.0087891-1.1762695-.0371094-2.8012695v-1.1391602c0-.1435547-.0029297-.2773438-.0087891-.4013672-.0507812-1.1206055-.0751953-1.9453125-.0751953-2.4746094,0-.0932617.0146484-.1572266.0458984-.1914062.0292969-.0341797.0751953-.0512695.1367188-.0512695l.0908203.0092773Z"/>
      <path class="cls-1" d="m11.8857422,37.0957031c-.4111328.0498047-.6474609.074707-.7099609.074707l-.8300781-.0371094c-.3554688-.0126953-.5820312-.0283203-.6816406-.046875-.0253906-.0561523-.0371094-.1025391-.0371094-.1401367l.0175781-.0839844c.8720703-.1992188,1.5068359-.5366211,1.9052734-1.0131836.3984375-.4760742.5976562-1.0566406.5976562-1.7412109,0-.7094727-.1992188-1.2915039-.5976562-1.7460938-.3984375-.4541016-.8623047-.6816406-1.3916016-.6816406-.4042969,0-.7744141.1586914-1.1103516.4765625-.3369141.3173828-.8398438,1.1293945-1.5087891,2.4370117-.515625.9956055-.9355469,1.7084961-1.2636719,2.1381836-.3261719.4291992-.7050781.7529297-1.1347656.9707031-.4306641.2177734-.9101562.3271484-1.4394531.3271484-.6669922,0-1.2929688-.1728516-1.8789062-.5185547-.5859375-.3452148-1.0263672-.8105469-1.3222656-1.3959961-.2958984-.5849609-.4443359-1.3598633-.4443359-2.324707,0-.840332.1337891-1.6464844.4013672-2.418457.1621094-.4541016.2929688-.7314453.3925781-.8310547s.2050781-.1494141.3173828-.1494141c.0683594,0,.1552734.0063477.2617188.019043.734375.0869141,1.3378906.1337891,1.8115234.1401367.2919922.012207.4628906.0336914.5136719.0649414.0429688.0249023.0644531.0717773.0644531.1401367,0,.0561523-.0195312.1010742-.0605469.1352539-.0400391.0341797-.1162109.0576172-.2285156.0703125-.765625.0683594-1.4501953.4233398-2.0546875,1.0644531-.6035156.6347656-.9052734,1.3540039-.9052734,2.1567383,0,.4916992.1025391.9443359.3076172,1.3583984.2060547.4140625.5029297.737793.8925781.9711914.3886719.2333984.7666016.3500977,1.1347656.3500977.5039062,0,.9638672-.1772461,1.3808594-.5322266.4179688-.3544922.9042969-1.0673828,1.4619141-2.1381836.5566406-1.0708008.9628906-1.7675781,1.2177734-2.0913086.4179688-.5229492.859375-.9150391,1.3261719-1.1767578.3613281-.1928711.78125-.2890625,1.2607422-.2890625.8652344,0,1.5986328.3422852,2.1992188,1.0268555s.9003906,1.6030273.9003906,2.7543945c0,.6352539-.0712891,1.1826172-.2138672,1.6435547-.1123047.3359375-.296875.6816406-.5517578,1.0361328Z"/>
      <path class="cls-1" d="m.5068359,39.2993164c.0537109.0620117.0878906.1152344.0996094.1586914.03125.105957.0566406.2861328.0751953.5415039.0371094.6040039.09375.9775391.1679688,1.1206055.125.0869141.2998047.1308594.5244141.1308594l.6542969-.0092773,2.3759766.0092773,1.1220703-.019043,2.3476562.0097656,2.6650391-.046875c.6367188-.0063477.9951172-.046875,1.0761719-.121582.1181641-.1118164.1865234-.4448242.2050781-.9990234.0058594-.2363281.0253906-.4448242.0566406-.6254883.0429688-.0810547.0996094-.121582.1679688-.121582.0498047,0,.1083984.015625.1777344.046875.0302734.0561523.0458984.105957.0458984.1494141,0,.0869141-.0029297.1928711-.0087891.3173828-.0371094.3671875-.0566406.7470703-.0566406,1.1391602l.0195312.690918-.0380859,1.6435547c0,.8217773.0097656,1.4624023.0283203,1.9233398.0185547.4604492.0273438.7719727.0273438.9335938,0,.1430664-.0117188.4980469-.0371094,1.0644531l.0097656,1.3261719-.0283203.1586914.0283203.7749023-.046875.0932617c-.0498047.03125-.1025391.0527344-.1582031.0654297-.0878906,0-.2216797-.0141602-.4023438-.0419922-.1796875-.0283203-.2919922-.0419922-.3359375-.0419922-.6474609,0-1.1953125.0214844-1.6425781.0654297-.0380859-.0063477-.0625-.0249023-.0751953-.0551758,0-.0668945.0087891-.128418.0283203-.1831055.1181641-.0683594.3261719-.1601562.625-.2753906s.6445312-.2885742,1.0371094-.519043c.2607422-.1557617.4160156-.2768555.4667969-.3642578.0488281-.0874023.0742188-.2680664.0742188-.5419922,0-.0561523.0058594-.3393555.0185547-.8500977.0068359-.137207.0097656-.2709961.0097656-.4018555l-.0556641-2.6630859v-.2333984c0-.3427734-.0439453-.5483398-.1308594-.6166992-.1503906-.105957-.5888672-.1586914-1.3164062-.1586914-.0751953,0-.8222656.0151367-2.2412109.0463867h-1.2978516c-.0195312.0683594-.0283203.1430664-.0283203.2241211v.1586914c0,.105957-.0029297.2617188-.0087891.4667969-.0126953.3237305-.0195312.5419922-.0195312.6538086,0,.074707.0039062.1401367.0097656.1962891.0244141.671875.0371094,1.5371094.0371094,2.5957031.0566406.3295898.1210938.5224609.1962891.5786133.1123047.0932617.4042969.1635742.8779297.2099609.4726562.046875.7402344.1508789.8027344.3129883,0,.0810547-.015625.1557617-.046875.2241211-.0498047.012207-.0966797.0185547-.1396484.0185547-.0439453,0-.1152344-.0063477-.2148438-.0185547-.2304688-.03125-.9521484-.046875-2.1660156-.046875-.3242188,0-.6845703.0170898-1.0830078.0517578-.3984375.0336914-.6132812.0512695-.6445312.0512695-.0566406,0-.1308594-.0092773-.2246094-.0283203-.0244141-.0498047-.0371094-.090332-.0371094-.1210938v-.0654297c.1738281-.0996094.4453125-.1962891.8125-.2895508.6289062-.1621094,1.0224609-.331543,1.1816406-.5087891.1582031-.1772461.2373047-.465332.2373047-.8637695,0-.0874023-.0048828-.2460938-.0136719-.4760742-.0097656-.2304688-.0146484-.5727539-.0146484-1.0273438v-.6069336c0-.8652344-.0185547-1.4316406-.0556641-1.6992188l-.3085938-.0092773-1.7207031.0092773-1.0849609-.0092773-1.0566406.0092773c-.6367188.0063477-1.0039062.046875-1.1035156.121582-.1376953.1054688-.2060547.3359375-.2060547.690918l.0087891.5693359c0,.0498047-.0039062.2441406-.0136719.5834961s-.0136719.7578125-.0136719,1.2558594c0,1.2016602.0507812,2.0014648.1542969,2.3999023.1025391.3984375.2851562.7265625.5478516.9848633s.8271484.5834961,1.6962891.9760742c.2558594.1181641.3837891.2363281.3837891.3544922,0,.0561523-.0253906.1181641-.0751953.1870117-.6162109-.1806641-1.0205078-.2836914-1.2128906-.3081055-.4365234-.0688477-.8808594-.109375-1.3359375-.121582-.2050781,0-.3769531-.0498047-.5136719-.1494141v-.2055664l-.0273438-2.6235352.0087891-1.1762695-.0371094-2.8012695v-1.1391602c0-.1435547-.0029297-.2773438-.0087891-.4013672-.0507812-1.1206055-.0751953-1.9453125-.0751953-2.4746094,0-.0932617.0146484-.1572266.0458984-.1914062.0292969-.0341797.0751953-.0512695.1367188-.0512695l.0908203.0092773Z"/>
      <path class="cls-1" d="m.6533203,51.9135742c.1054688.9042969.1806641,1.4155273.2236328,1.5332031.03125.0805664.125.1547852.2802734.2231445h.1025391c.1552734,0,.71875.0249023,1.6884766.0742188.2744141.012207.5410156.0185547.8027344.0185547l1.1103516-.027832,1.2597656.0185547,2.3408203-.0092773,1.6796875.0092773c.7089844.0063477,1.1416016-.0483398,1.296875-.1635742s.265625-.4121094.3310547-.8916016.1132812-.7436523.1445312-.793457.0810547-.074707.1494141-.074707c.0439453,0,.0996094.0092773.1679688.027832.0556641.0625.0869141.2055664.09375.4296875,0,.03125.0068359.1166992.0224609.2568359s.0234375.2719727.0234375.3964844v.765625l.0283203,2.4560547c0,1.3876953-.1025391,2.3603516-.3076172,2.9174805-.2060547.5571289-.5527344,1.0009766-1.0410156,1.3305664-.4892578.3300781-1.0351562.4951172-1.6386719.4951172-1.1455078,0-2.0205078-.6000977-2.6240234-1.7998047-.1064453-.2050781-.1992188-.3666992-.2802734-.4848633-.4472656.2109375-.9853516.5063477-1.6132812.8852539l-2.0332031,1.184082c-.7490234.4731445-1.2177734.7998047-1.4082031.9804688s-.3476562.3999023-.4726562.6582031c-.1240234.2583008-.2431641.6928711-.3554688,1.3032227-.0615234.0058594-.1113281.0092773-.1484375.0092773-.0380859,0-.0839844-.003418-.140625-.0092773-.0126953-.8530273-.0185547-1.8520508-.0185547-2.9975586,0-.0810547.0058594-.1928711.0185547-.3359375.8476562-.4418945,1.7802734-.9619141,2.7958984-1.5595703l2.5253906-1.3818359c.2617188-.1865234.4248047-.3408203.4912109-.4619141.0644531-.121582.0976562-.2817383.0976562-.480957l-.0087891-.793457.0087891-.2617188c-.1992188-.0185547-.6074219-.027832-1.2226562-.027832H1.8300781c-.1181641-.0063477-.2832031.0185547-.4951172.074707-.1181641.0498047-.2128906.1352539-.2841797.2568359-.0722656.1210938-.1796875.4711914-.3222656,1.050293l-.09375.3828125c-.0625.0498047-.1464844.074707-.2519531.074707-.03125-.1679688-.046875-.2861328-.046875-.3544922,0-.559082.0058594-.9536133.0185547-1.1835938.0068359-.1181641.0097656-.2143555.0097656-.2890625l-.0185547-1.2675781.0087891-1.2397461c0-.0561523-.0087891-.3383789-.0283203-.8481445l.0380859-.1860352.0927734-.019043c.0566406,0,.1220703.043457.1962891.1303711Zm6.1064453,3.4643555c-.0058594.168457-.0097656.2924805-.0097656.3735352,0,.4482422.0537109.9648438.1591797,1.550293.0810547.4106445.2128906.7436523.3955078.9990234.1835938.2548828.4550781.4682617.8164062.6396484.359375.1708984.7324219.2563477,1.1181641.2563477.4228516,0,.8701172-.1337891,1.3417969-.4013672.3603516-.2055664.6611328-.5522461.9042969-1.0410156.2421875-.4887695.3632812-1.0751953.3632812-1.7602539,0-.1679688-.0087891-.3857422-.0283203-.6533203-.3222656-.0249023-.5712891-.0375977-.7451172-.0375977l-1.7431641.046875-.7167969-.0092773c-.4853516,0-1.1035156.012207-1.8554688.0371094Z"/>
      <path class="cls-1" d="m12.203125,63.1748047l.1591797.0654297c0,.5039062-.0068359,1.0083008-.0185547,1.5126953v.3081055c0,.0932617.0029297.1958008.0087891.3081055.0185547.4042969.0283203,1.1357422.0283203,2.1938477,0,.2119141-.0019531.4169922-.0048828.6166992-.0029297.1987305-.0078125.3920898-.0136719.5786133-.0185547.0375977-.046875.0654297-.0839844.0839844l-.1494141-.0185547c-.0625-.0375977-.09375-.1308594-.09375-.2802734v-.074707c.0058594-.1743164-.0078125-.4604492-.0419922-.8588867s-.0976562-.659668-.1914062-.7841797c-.0683594-.0810547-.1582031-.121582-.2705078-.121582-.2431641,0-.6074219.1030273-1.0927734.3081055l-3.2958984,1.4213867-1.0917969.4956055c-1.1582031.4794922-2.3408203.9536133-3.5488281,1.4208984-.1308594.0498047-.2490234.0966797-.3544922.1401367l1.53125.625c.7714844.3232422,1.59375.6494141,2.4648438.9790039l1.7558594.6430664c.0371094.0126953.1611328.046875.3730469.1025391,1.6494141.6030273,2.6923828.9042969,3.1279297.9042969.09375,0,.1884766-.0419922.2851562-.1259766.0957031-.0839844.1757812-.2192383.2382812-.4057617.0244141-.074707.0615234-.3178711.1113281-.7285156l.0839844-.690918c.0625-.0561523.1152344-.0839844.1591797-.0839844l.0742188.027832.0283203,3.0253906v.9990234c0,.3359375-.0214844.5664062-.0654297.690918l-.0751953.0092773c-.0488281,0-.1152344-.0185547-.1953125-.0561523-.0498047-.1494141-.0810547-.2861328-.09375-.4106445-.0625-.5229492-.1347656-.8466797-.21875-.9716797-.0839844-.1245117-.2636719-.2553711-.5371094-.3920898l-6.0693359-2.449707c-1.8242188-.7641602-3.2373047-1.3071289-4.2392578-1.6303711l-.8125-.2700195c-.0488281-.0810547-.0742188-.1489258-.0742188-.2050781,0-.0712891.0097656-.1489258.0273438-.2333984,1.9160156-.7412109,3.3964844-1.3452148,4.4414062-1.8120117l6.4746094-2.8579102c.3857422-.2055664.6171875-.359375.6953125-.4619141.078125-.1030273.1875-.4624023.3310547-1.078125.0498047-.2177734.0810547-.3393555.09375-.3642578.03125-.043457.0771484-.074707.1396484-.0932617Z"/>
      <path class="cls-1" d="m.5068359,76.7509766c.0537109.0620117.0878906.1152344.0996094.1586914.03125.105957.0566406.2861328.0751953.5415039.0371094.6040039.09375.9775391.1679688,1.1206055.125.0869141.2998047.1308594.5244141.1308594l.6542969-.0092773,2.3759766.0092773,1.1220703-.019043,2.3476562.0097656,2.6650391-.046875c.6367188-.0063477.9951172-.046875,1.0761719-.121582.1181641-.1118164.1865234-.4448242.2050781-.9990234.0058594-.2363281.0253906-.4448242.0566406-.6254883.0429688-.0810547.0996094-.121582.1679688-.121582.0498047,0,.1083984.015625.1777344.046875.0302734.0561523.0458984.105957.0458984.1494141,0,.0869141-.0029297.1928711-.0087891.3173828-.0371094.3671875-.0566406.7470703-.0566406,1.1391602l.0195312.690918-.0380859,1.6435547c0,.8217773.0097656,1.4624023.0283203,1.9233398.0185547.4604492.0273438.7719727.0273438.9335938,0,.1430664-.0117188.4980469-.0371094,1.0644531l.0097656,1.3261719-.0283203.1586914.0283203.7749023-.046875.0932617c-.0498047.03125-.1025391.0527344-.1582031.0654297-.0878906,0-.2216797-.0141602-.4023438-.0419922-.1796875-.0283203-.2919922-.0419922-.3359375-.0419922-.6474609,0-1.1953125.0214844-1.6425781.0654297-.0380859-.0063477-.0625-.0249023-.0751953-.0551758,0-.0668945.0087891-.128418.0283203-.1831055.1181641-.0683594.3261719-.1601562.625-.2753906s.6445312-.2885742,1.0371094-.519043c.2607422-.1557617.4160156-.2768555.4667969-.3642578.0488281-.0874023.0742188-.2680664.0742188-.5419922,0-.0561523.0058594-.3393555.0185547-.8500977.0068359-.137207.0097656-.2709961.0097656-.4018555l-.0556641-2.6630859v-.2333984c0-.3427734-.0439453-.5483398-.1308594-.6166992-.1503906-.105957-.5888672-.1586914-1.3164062-.1586914-.0751953,0-.8222656.0151367-2.2412109.0463867h-1.2978516c-.0195312.0683594-.0283203.1430664-.0283203.2241211v.1586914c0,.105957-.0029297.2617188-.0087891.4667969-.0126953.3237305-.0195312.5419922-.0195312.6538086,0,.074707.0039062.1401367.0097656.1962891.0244141.671875.0371094,1.5371094.0371094,2.5957031.0566406.3295898.1210938.5224609.1962891.5786133.1123047.0932617.4042969.1635742.8779297.2099609.4726562.046875.7402344.1508789.8027344.3129883,0,.0810547-.015625.1557617-.046875.2241211-.0498047.012207-.0966797.0185547-.1396484.0185547-.0439453,0-.1152344-.0063477-.2148438-.0185547-.2304688-.03125-.9521484-.046875-2.1660156-.046875-.3242188,0-.6845703.0170898-1.0830078.0517578-.3984375.0336914-.6132812.0512695-.6445312.0512695-.0566406,0-.1308594-.0092773-.2246094-.0283203-.0244141-.0498047-.0371094-.090332-.0371094-.1210938v-.0654297c.1738281-.0996094.4453125-.1962891.8125-.2895508.6289062-.1621094,1.0224609-.331543,1.1816406-.5087891.1582031-.1772461.2373047-.465332.2373047-.8637695,0-.0874023-.0048828-.2460938-.0136719-.4760742-.0097656-.2304688-.0146484-.5727539-.0146484-1.0273438v-.6069336c0-.8652344-.0185547-1.4316406-.0556641-1.6992188l-.3085938-.0092773-1.7207031.0092773-1.0849609-.0092773-1.0566406.0092773c-.6367188.0063477-1.0039062.046875-1.1035156.121582-.1376953.1054688-.2060547.3359375-.2060547.690918l.0087891.5693359c0,.0498047-.0039062.2441406-.0136719.5834961s-.0136719.7578125-.0136719,1.2558594c0,1.2016602.0507812,2.0014648.1542969,2.3999023.1025391.3984375.2851562.7265625.5478516.9848633s.8271484.5834961,1.6962891.9760742c.2558594.1181641.3837891.2363281.3837891.3544922,0,.0561523-.0253906.1181641-.0751953.1870117-.6162109-.1806641-1.0205078-.2836914-1.2128906-.3081055-.4365234-.0688477-.8808594-.109375-1.3359375-.121582-.2050781,0-.3769531-.0498047-.5136719-.1494141v-.2055664l-.0273438-2.6235352.0087891-1.1762695-.0371094-2.8012695v-1.1391602c0-.1435547-.0029297-.2773438-.0087891-.4013672-.0507812-1.1206055-.0751953-1.9453125-.0751953-2.4746094,0-.0932617.0146484-.1572266.0458984-.1914062.0292969-.0341797.0751953-.0512695.1367188-.0512695l.0908203.0092773Z"/>
    </g>
  </g>
</svg>