<?xml version="1.0" encoding="UTF-8"?>
<svg id="_レイヤー_2" data-name="レイヤー 2" xmlns="http://www.w3.org/2000/svg" viewBox="0 0 39.2177734 121.2705078">
  <defs>
    <style>
      .cls-1 {
        fill: #fff;
      }
    </style>
  </defs>
  <g id="_レイヤー_1-2" data-name="レイヤー 1">
    <g>
      <path class="cls-1" d="m36.5751953,23.4140625c-3.3046875-1.3457031-7.0976562-4.8457031-8.8847656-8.6152344-.171875,0-.2207031.0244141-.4160156.0244141-3.3046875,4.96875-8.0283203,8.6152344-11.2099609,9.8886719l-.0732422-.1962891c3.2060547-2.0068359,6.5839844-5.53125,9.2275391-9.4960938.6601562-1.0039062.7333984-1.3710938.8320312-1.8115234l2.2763672.6855469c.1708984.0488281.4160156.1708984.4160156.4404297,0,.2939453-.2207031.3427734-.6123047.3916016,1.4443359,2.4960938,5.1640625,6.0458984,10.6708984,7.0488281v.1962891c-.6845703.2685547-1.5908203.6601562-2.2265625,1.4433594Zm.1220703,3.671875h-10.0107422c-.2441406.5136719-.3671875.7587891-.6357422,1.2236328-1.0039062,1.6640625-2.1054688,3.2548828-3.3291016,4.7480469,2.7167969-.1474609,3.1083984-.1962891,9.9863281-.9306641-.7099609-1.3212891-1.5908203-2.5449219-2.765625-3.4746094l.1464844-.1474609c5.4091797,2.7412109,5.7519531,5.6298828,5.7519531,6.0214844,0,.5136719-.3427734,1.0273438-.9306641,1.0273438-.6601562,0-.9052734-.5136719-1.0517578-.8808594-.3427734-.8808594-.5634766-1.4199219-.9794922-2.2275391-8.7861328,1.8847656-10.0341797,2.1542969-12.6777344,2.5458984-.2695312.4892578-.3427734.5625-.4892578.5625-.1230469,0-.2207031-.0976562-.3183594-.3427734l-.9550781-2.2265625c.7587891.1220703,1.1748047.1464844,1.8115234.1464844.6611328,0,1.6152344-.0244141,2.1289062-.0488281.8330078-1.9580078,1.5419922-3.9648438,2.1542969-5.9960938h-3.3535156c-.4892578,0-1.9824219.0488281-3.1328125.2685547l-.5869141-1.0517578c1.2724609.1220703,2.7900391.1953125,4.0625.1953125h11.8710938l1.1494141-1.1748047c.2695312-.2695312.2939453-.2939453.3671875-.2939453.1474609,0,.3427734.171875.4658203.2451172l1.4433594,1.1748047c.0976562.0732422.2451172.1953125.2451172.3671875,0,.2695312-.2451172.2695312-.3671875.2695312Zm-5.3359375-4.2099609h-6.0205078c-.8564453,0-2.2275391.0976562-3.1572266.2695312l-.5634766-1.0527344c1.8359375.1464844,3.5986328.1953125,4.0634766.1953125h2.8388672l1.0039062-1.0517578c.2441406-.2695312.2929688-.2939453.3916016-.2939453.1220703,0,.3427734.1708984.4404297.2451172l1.1503906,1.0517578c.0976562.0986328.2197266.2207031.2197266.3671875,0,.2207031-.1953125.2695312-.3671875.2695312Z"/>
      <path class="cls-1" d="m25.3896484,56.5507812c-.3427734.0488281-.5380859.0488281-1.1503906.1464844-2.59375,1.46875-5.6533203,2.5703125-8.1015625,2.6679688l-.0488281-.1708984c1.7138672-.4902344,3.8916016-1.5908203,5.0664062-2.2763672,1.8847656-1.1259766,2.1787109-1.6152344,2.4726562-2.3251953l2.0068359,1.2724609c.1953125.1220703.2441406.1962891.2441406.3183594,0,.1464844-.0488281.2939453-.4892578.3671875Zm9.1289062-10.8183594c0,.90625-.0244141,1.1992188.0488281,3.8671875.0253906,1.2480469.1474609,3.2304688.1474609,4.4794922,0,.2685547,0,.5380859-.3427734.8076172-.2207031.1464844-.4648438.2197266-.6123047.2197266-.4892578,0-.4892578-.3427734-.4892578-.9785156h-11.6005859c-.0498047.734375-.0742188,1.2724609-1.0283203,1.2724609-.4648438,0-.5136719-.3183594-.5136719-.5878906,0-.7578125.0976562-1.9335938.1220703-2.6669922.0732422-1.7871094.0976562-3.3046875.0976562-4.40625,0-2.8876953-.1220703-3.4257812-.2939453-3.9892578l1.8115234.6855469h11.234375l.4404297-.4648438c.1708984-.1962891.2695312-.2939453.3916016-.2939453.0976562,0,.2197266.0976562.3671875.1962891l.8320312.6357422c.2451172.1962891.3427734.3183594.3427734.4648438,0,.2695312-.2939453.4160156-.9550781.7587891Zm-.0244141-6.7548828c-.0732422.0488281-.4892578.2939453-.5625.3671875,0,.6855469,0,.9785156.0244141,1.46875,0,.2197266.0732422,1.2236328.0732422,1.4189453,0,.5878906-.3671875.9306641-.8564453.9306641-.5625,0-.5625-.3671875-.5380859-.8076172h-10.2802734c0,.1953125.0244141.4160156-.0732422.6113281-.1464844.3427734-.6113281.4648438-.8564453.4648438s-.5380859-.0976562-.5380859-.4404297c0-.1464844.0976562-.8076172.0976562-.9541016.0244141-.4892578.0488281-.9306641.0488281-1.2480469,0-.7587891,0-2.9619141-.1220703-3.5l1.7617188,1.0029297h9.765625l.5625-.6113281c.0742188-.0986328.2207031-.2695312.3427734-.2695312.0986328,0,.1962891.0976562.3183594.1962891l.8564453.6845703c.1474609.1230469.2207031.1962891.2207031.3427734s-.0732422.2207031-.2451172.3427734Zm-1.2236328,6.0449219h-11.5761719v2.3251953h11.5761719v-2.3251953Zm0,2.9130859h-11.5761719v2.3007812h11.5761719v-2.3007812Zm0,2.8876953h-11.5761719v2.7167969h11.5761719v-2.7167969Zm-.6113281-11.9433594h-10.3291016v2.8876953h10.3291016v-2.8876953Zm2.9365234,20.4121094c-.5869141,0-.9052734-.3427734-1.5419922-1.0283203-1.2236328-1.3457031-1.7617188-1.7617188-4.4785156-3.2792969l.0488281-.0976562c2.765625.5380859,4.6992188,1.3212891,5.5068359,1.8105469.2939453.1962891,1.296875.8564453,1.296875,1.8359375,0,.5869141-.4892578.7587891-.8320312.7587891Z"/>
      <path class="cls-1" d="m26.515625,63.2773438c-2.9619141,5.2871094-7.0488281,8.7617188-10.6953125,10.0595703l-.0986328-.1962891c4.8710938-3.0595703,8.1015625-7.4404297,9.4726562-10.7197266h-2.2763672c-.4892578,0-1.9824219.0488281-3.1328125.2939453l-.5878906-1.0771484c1.2724609.1220703,2.7900391.1953125,4.0634766.1953125h1.5419922l.7333984-.4892578c.1962891-.1220703.2695312-.1464844.3671875-.1464844.171875,0,.3183594.1464844.4902344.2929688l.7832031.734375c.1464844.1474609.2929688.2939453.2929688.4902344,0,.3173828-.2441406.3916016-.9541016.5625Zm11.2587891,18.6748047h-17.2548828c-.4902344,0-1.9824219.0488281-3.1328125.2939453l-.5878906-1.0527344c1.2724609.0976562,2.7900391.1708984,4.0634766.1708984h7.7089844c.4404297-1.1259766.90625-2.7900391.90625-3.5244141,0-.0976562,0-.2441406-.0498047-.4892578h-5.8251953c.4414062.2451172,2.2519531,1.4931641,2.2519531,2.765625,0,.5136719-.4648438.9052734-.9296875.9052734-.6123047,0-.6855469-.4160156-.8564453-1.6396484-.1474609-.9052734-.2207031-1.2236328-.6367188-1.8847656l.1464844-.1464844h-.5625c-.1708984.6611328-.8564453.6611328-.9296875.6611328-.2939453,0-.4160156-.1230469-.4160156-.4902344,0-.1220703,0-.3173828.0244141-.4160156.0488281-.6357422.0488281-1.5664062.0488281-2.2265625,0-.7832031,0-1.6894531-.171875-2.9863281l1.46875.7587891h8.0527344l.5136719-.4160156c.1953125-.1708984.2207031-.1962891.2939453-.1962891s.2197266.0986328.2929688.1474609l.90625.6611328c.0976562.0732422.2197266.2197266.2197266.3662109,0,.0986328-.0244141.2207031-.1464844.3183594-.0732422.0488281-.4892578.2451172-.5878906.2939453,0,.3671875,0,.6855469.0498047,1.5908203,0,.2207031.0732422,1.2724609.0732422,1.5175781,0,.8320312-.90625.8808594-.9794922.8808594-.2939453,0-.4404297-.1708984-.4404297-.4648438h-1.5419922l1.5419922.8808594c.0488281.0244141.2939453.1962891.2939453.3427734,0,.2207031-.171875.3183594-.7587891.5878906-.0244141.0244141-.1220703.1708984-.1962891.2441406-.4648438.5390625-1.1992188,1.4199219-1.6640625,1.9580078h5.9228516l1.1015625-1.1259766c.2451172-.2685547.2695312-.2929688.3671875-.2929688.171875,0,.3183594.1464844.4160156.2441406l1.1503906,1.1259766c.0488281.0732422.2207031.2207031.2207031.3671875,0,.2695312-.2695312.2695312-.3671875.2695312Zm-16.203125-14.8564453c-.4648438,0-.5625-.2451172-.9541016-1.1259766-.6123047-1.4199219-1.0039062-1.8847656-1.3466797-2.3007812l.171875-.1220703c.7587891.3671875,1.46875.8564453,2.1289062,1.3945312.3671875.2939453.8076172.6855469.8076172,1.2978516,0,.5869141-.4892578.8564453-.8076172.8564453Zm9.8388672,3.1083984h-4.6494141c-.8574219,0-2.2275391.1220703-3.1582031.2939453l-.5625-1.0527344c1.8359375.1464844,3.5976562.1708984,4.0625.1708984h2.0810547l.7587891-.7832031c.2441406-.2685547.2685547-.2939453.3671875-.2939453.1464844,0,.3417969.1474609.4404297.2451172l.7587891.7832031c.1953125.2207031.2685547.2451172.2685547.3916016,0,.2451172-.2929688.2451172-.3671875.2451172Zm-.1220703,3.0341797h-8.2480469v3.5253906h8.2480469v-3.5253906Zm5.3603516-1.8349609c-3.6220703-2.1298828-7-4.8955078-8.6640625-10.5976562l.2929688-.1474609c.4169922,1.2734375.9306641,2.4970703,1.9580078,3.8671875.6123047-.6357422,1.9824219-2.3496094,2.1787109-3.5244141l1.5175781,1.1259766c.1220703.0732422.2695312.2451172.2695312.3916016,0,.3183594-.3916016.3183594-.9794922.3183594-1.3457031.9785156-2.0800781,1.4931641-2.8144531,1.9091797.8076172,1.0273438,1.2724609,1.46875,1.8359375,1.9824219,1.3457031-1.2724609,2.3242188-2.9130859,2.5693359-3.5488281l1.5175781,1.1259766c.4160156.2929688.4160156.3427734.4160156.4648438,0,.2939453-.3427734.2939453-.4648438.2939453-.2695312,0-.4404297-.0244141-.7099609-.0742188-1.46875.9306641-2.1533203,1.3710938-3.1328125,1.9091797,1.3212891,1.1015625,3.6708984,2.6923828,6.6816406,2.8886719v.1708984c-1.1015625.3427734-1.9580078.5878906-2.4716797,1.4443359Z"/>
      <path class="cls-1" d="m25.0712891,89.3652344c-.4892578,0-.5869141-.1474609-1.2480469-1.4199219-.0976562-.1708984-.8320312-1.2480469-1.8115234-1.8847656-1.6884766,2.9863281-4.4541016,6.3632812-6.0449219,7.4648438l-.0976562-.0732422c2.2021484-2.8876953,4.4541016-7.1464844,4.7724609-8.1503906.2695312-.7832031.2451172-.9785156.1953125-1.3457031l1.9335938.8808594c.0986328.0488281.1474609.1474609.1474609.2695312,0,.2441406-.171875.3671875-.7099609.6113281l-.0244141.0742188c1.1015625.2197266,2.2275391,1.0273438,2.5947266,1.296875.5380859.3916016,1.0029297.7832031,1.0029297,1.3945312,0,.4169922-.2197266.8818359-.7099609.8818359Zm.2207031,6.7060547h-3.3535156v7.2685547c1.3466797-.2441406,2.1787109-.4892578,2.7167969-.6357422l.0976562.1708984c-1.1503906.5634766-6.3876953,2.3007812-6.7548828,2.3740234-.0244141.3183594-.0488281.734375-.3916016.734375-.1708984,0-.2695312-.1464844-.3427734-.2939453l-.9785156-1.8105469c.2441406.0488281.4648438.0976562.8320312.0976562.5869141,0,2.4960938-.2451172,3.5732422-.4160156v-7.4892578h-.6855469c-.8564453,0-2.2265625.1220703-3.1572266.2939453l-.5625-1.0527344c1.8349609.1464844,3.5976562.1708984,4.0625.1708984h.3427734v-3.2304688h-.9296875c-.3916016,0-.9550781.0244141-1.3466797.1220703l-.2441406-.8076172c.4404297.0244141,1.3701172.0986328,1.7373047.0986328h2.4960938l.5390625-.6367188c.1953125-.2451172.3183594-.3427734.4404297-.3427734s.1953125.0732422.4648438.3427734l.5380859.5625c.1962891.1962891.2451172.2695312.2451172.3916016,0,.171875-.1464844.2695312-.3671875.2695312h-2.3251953v3.2304688h1.3955078l.5625-.6601562c.1962891-.2207031.2695312-.3183594.3916016-.3183594.1474609,0,.2451172.0976562.4902344.3183594l.6357422.6113281c.1474609.1474609.2451172.2451172.2451172.3916016,0,.2207031-.1962891.2451172-.3671875.2451172Zm-6.6816406,5.8984375c-.5390625,0-.6855469-.3916016-.7587891-.9550781-.1220703-1.0273438-.5390625-2.1289062-1.0527344-2.59375l.1220703-.171875c.6611328.3183594,2.4726562,1.4931641,2.4726562,2.765625,0,.5634766-.3183594.9550781-.7832031.9550781Zm6.1923828-2.7900391c-.1474609.1953125-.2207031.3671875-1.0527344,1.4931641-.171875.2441406-.6611328.8076172-1.0039062,1.1992188l-.1220703-.0742188c.4404297-1.0761719.8564453-2.8388672.9052734-3.0341797.0244141-.1962891.1230469-1.0527344.171875-1.2236328l1.6884766.9052734c.2207031.1220703.3183594.1464844.3183594.3183594,0,.2685547-.4892578.3427734-.9052734.4160156Zm2.03125,3.8671875c-.0488281.4404297-.0732422.6357422-.2939453.6357422-.1220703,0-.2695312-.1220703-.3427734-.2441406l-1.0527344-1.640625c.5634766,0,1.4199219-.3417969,2.0078125-.5869141,1.1992188-.4892578,2.3984375-1.0039062,3.4746094-1.7382812l.0986328.171875c-.5390625.734375-2.7412109,2.4960938-3.8916016,3.4023438Zm10.4755859,1.4433594c-3.1083984-3.5976562-4.0390625-6.5839844-4.40625-11.1601562h-.5380859v3.6708984c0,1.2978516,0,1.6396484.1220703,4.6259766,0,.2939453.0732422,1.6152344.0732422,1.8847656,0,1.8603516-1.3457031,2.3740234-2.3251953,2.7167969-.3916016-1.2480469-.9052734-1.5664062-2.1289062-2.1787109v-.1220703c.3671875.0244141,1.9091797.0976562,2.1044922.0976562.6855469,0,1.0283203-.1464844,1.0771484-.6611328.0244141-.4892578,0-8.9570312,0-10.0341797h-2.0068359c-.8808594,0-2.2275391.0976562-3.1572266.2695312l-.5625-1.0527344c1.8105469.1464844,3.5976562.1953125,4.0625.1953125h4.1113281l.0742188-3.4257812h-3.1826172c-.8564453,0-2.2265625.0976562-3.1572266.2929688l-.5625-1.0517578c1.8359375.1464844,3.5976562.1708984,4.0625.1708984h2.8398438l.0488281-2.7412109h-3.4511719c-.8808594,0-2.2275391.0976562-3.1572266.2939453l-.5878906-1.0771484c1.8359375.1708984,3.6230469.1962891,4.0878906.1962891h2.9609375l.5146484-.5390625c.0732422-.0976562.1953125-.2197266.3417969-.2197266.0986328,0,.2451172.0976562.3925781.1953125l.8808594.5878906c.0976562.0488281.2441406.1708984.2441406.3173828,0,.1962891-.1953125.3427734-.9541016.734375l-.1220703,6.265625h1.4677734l.5634766-.6601562c.1464844-.1962891.2441406-.2939453.3671875-.2939453.1220703,0,.2685547.1464844.3916016.2695312l.5625.5869141c.2207031.2207031.2695312.2695312.2695312.4160156,0,.2207031-.1962891.2695312-.3671875.2695312h-5.0419922c.171875,2.2021484.734375,3.6708984,1.0771484,4.5517578.5625-.4160156,1.2724609-1.1494141,1.6884766-1.7373047.2695312-.4160156.4160156-.8076172.4892578-1.0527344l1.46875,1.0771484c.0732422.0488281.1962891.1464844.1962891.3183594,0,.1464844-.1474609.3427734-.3916016.3427734-.0986328,0-.2695312-.0244141-.3916016-.0488281-1.0771484.6113281-2.3740234,1.1748047-2.9375,1.3701172,1.0283203,2.2763672,2.5947266,4.0878906,4.796875,5.2128906v.0986328c-1.1005859.0732422-1.6640625.734375-1.9082031,1.0273438Zm-8.640625-6.265625c-.5136719,0-.5869141-.2441406-.9541016-1.2236328-.0976562-.2197266-.7099609-1.3701172-1.1748047-1.7617188l.0976562-.1230469c.2451172.0986328.3427734.1474609,1.2480469.4902344.8818359.3427734,1.5917969,1.0761719,1.5917969,1.7128906,0,.4404297-.2939453.9052734-.8085938.9052734Z"/>
    </g>
    <g>
      <path class="cls-1" d="m.5322266,0c.1308594.1928711.2236328.5415039.2792969,1.0454102.0185547.3925781.0527344.6259766.1025391.7006836.0371094.0493164.0830078.0869141.1396484.1118164.2285156.0932617.8515625.1616211,1.8691406.2055664,1.3251953.0571289,3.0898438.1489258,5.2929688.2758789,1.6806641.1015625,2.7294922.1523438,3.1464844.1523438h.2431641c.0927734-.449707.1933594-1.1621094.2988281-2.1367188.09375-.0625.1650391-.09375.2148438-.09375.03125,0,.0869141.0219727.1679688.0654297.0380859.1054688.0566406.1860352.0566406.2421875,0,.0498047-.0126953.1582031-.0380859.3261719-.0429688.3041992-.0644531.7231445-.0644531,1.2578125,0,.1738281.0136719.4716797.0419922.894043.0214844.2983398.0322266.4663086.0322266.503418,0,.0991211-.0185547.2143555-.0566406.3447266-.0625.0639648-.1230469.1118164-.1796875.144043l-.8769531.390625-5.8457031,2.6430664-2.453125,1.1015625c1.7119141.8623047,3.234375,1.5317383,4.5664062,2.0097656.0996094.0307617.1894531.0678711.2705078.1113281.1054688.0561523.2236328.1083984.3544922.1582031s.6289062.2514648,1.4941406.6049805c.3486328.1425781.6474609.2573242.8964844.3442383.9960938.3530273,1.5654297.5610352,1.7089844.6230469.0488281.1186523.0742188.2216797.0742188.309082,0,.0996094-.0097656.2275391-.0273438.3837891-.0195312.3496094-.0283203.9174805-.0283203,1.7036133,0,.4868164.0058594.8862305.0185547,1.1982422-.0683594.0126953-.1181641.019043-.1494141.019043-.0439453,0-.1025391-.0092773-.1777344-.0283203-.1054688-.1992188-.1650391-.4384766-.1767578-.71875-.03125-.5541992-.0751953-.9057617-.1308594-1.0551758-.0566406-.1494141-.1279297-.2441406-.2148438-.284668-.0878906-.0405273-.3730469-.0761719-.859375-.1074219l-.4296875.0092773-.4472656-.0092773c-.9345703,0-2.5029297.0249023-4.7070312.074707l-1.8300781-.0092773-1.1757812.0092773c-.4609375,0-.7333984.0214844-.8173828.0654297-.0839844.043457-.1630859.1679688-.2373047.3735352-.1123047.3359375-.2275391.8837891-.3457031,1.6430664-.03125.043457-.0722656.0654297-.1210938.0654297-.0566406,0-.1191406-.0029297-.1875-.0092773v-.4301758c0-.3676758.0117188-.7670898.0332031-1.1972656s.0322266-.6611328.0322266-.6918945c0-1.2783203-.0136719-2.1264648-.0429688-2.5444336-.0205078-.2553711-.03125-.4174805-.03125-.4863281,0-.043457.0126953-.090332.0371094-.1401367h.1210938c.0556641,0,.1152344.0092773.1777344.027832.0869141.2055664.1464844.4858398.1777344.840332.1054688.3925781.2177734.6787109.3359375.859375.2373047.0556641.7197266.0839844,1.4492188.0839844l1.8876953-.0283203c.2050781,0,.5878906.0107422,1.1494141.0327148.5605469.0219727,1.4736328.0327148,2.7382812.0327148,1.0029297,0,1.7626953-.0249023,2.2802734-.074707-.2177734-.1049805-.6914062-.3129883-1.4189453-.6230469l-.3544922-.1391602-.0566406-.0185547-3.2675781-1.3764648-1.2607422-.4926758-1.53125-.6416016c-.7041016-.2788086-1.3261719-.5175781-1.8681641-.7158203-.2480469-.0869141-.4443359-.1582031-.5878906-.2138672l.0097656-.2177734c2.0537109-.7041016,4.1611328-1.5439453,6.3212891-2.5195312,2.1591797-.9750977,3.5849609-1.6591797,4.2763672-2.0517578-.2675781-.0512695-1.0458984-.1088867-2.3339844-.1728516-1.5693359-.0834961-3.296875-.125-5.1826172-.125-.5888672,0-1.2529297.043457-1.9912109.1308594-.2109375.0249023-.3671875.1147461-.4697266.2705078s-.1601562.5571289-.1728516,1.2045898c0,.2490234-.0175781.4853516-.0556641.7094727-.0957031.043457-.1660156.0654297-.2099609.0654297-.0322266,0-.0869141-.015625-.1630859-.0463867l.1025391-2.8989258c0-.2114258-.0136719-.5410156-.0410156-.9882812-.0175781-.2485352-.0283203-.605957-.0332031-1.0717773l.2519531-.0092773Z"/>
      <path class="cls-1" d="m.4501953,16.2744141c.0546875.0620117.0878906.1152344.1005859.1586914.03125.105957.0556641.2861328.0751953.5415039.0371094.6040039.0927734.9775391.1679688,1.1206055.125.0869141.2988281.1308594.5234375.1308594l.6542969-.0092773,2.3759766.0092773,1.1220703-.019043,2.3476562.0097656,2.6660156-.046875c.6357422-.0063477.9941406-.046875,1.0751953-.121582.1181641-.1118164.1875-.4448242.2060547-.9990234.0058594-.2363281.0244141-.4448242.0556641-.6254883.0439453-.0810547.0996094-.121582.1679688-.121582.0498047,0,.109375.015625.1777344.046875.03125.0561523.046875.105957.046875.1494141,0,.0869141-.0029297.1928711-.0097656.3173828-.0371094.3671875-.0556641.7470703-.0556641,1.1391602l.0185547.690918-.0371094,1.6435547c0,.8217773.0087891,1.4624023.0283203,1.9233398.0175781.4604492.0273438.7719727.0273438.9335938,0,.1430664-.0126953.4980469-.0371094,1.0644531l.0097656,1.3261719-.0283203.1586914.0283203.7749023-.046875.0932617c-.0507812.03125-.1035156.0527344-.1591797.0654297-.0869141,0-.2207031-.0141602-.4013672-.0419922-.1806641-.0283203-.2929688-.0419922-.3359375-.0419922-.6474609,0-1.1953125.0214844-1.6435547.0654297-.0371094-.0063477-.0625-.0249023-.0751953-.0551758,0-.0668945.0097656-.128418.0283203-.1831055.1181641-.0683594.3271484-.1601562.6259766-.2753906s.6445312-.2885742,1.0361328-.519043c.2617188-.1557617.4169922-.2768555.4667969-.3642578s.0751953-.2680664.0751953-.5419922c0-.0561523.0058594-.3393555.0185547-.8500977.0058594-.137207.0087891-.2709961.0087891-.4018555l-.0556641-2.6630859v-.2333984c0-.3427734-.0439453-.5483398-.1308594-.6166992-.1494141-.105957-.5878906-.1586914-1.3164062-.1586914-.0751953,0-.8212891.0151367-2.2412109.0463867h-1.2978516c-.0185547.0683594-.0283203.1430664-.0283203.2241211v.1586914c0,.105957-.0029297.2617188-.0087891.4667969-.0126953.3237305-.0185547.5419922-.0185547.6538086,0,.074707.0029297.1401367.0097656.1962891.0244141.671875.0371094,1.5371094.0371094,2.5957031.0556641.3295898.1210938.5224609.1953125.5786133.1123047.0932617.4052734.1635742.8779297.2099609.4736328.046875.7412109.1508789.8037109.3129883,0,.0810547-.015625.1557617-.046875.2241211-.0507812.012207-.0966797.0185547-.140625.0185547-.0429688,0-.1152344-.0063477-.2148438-.0185547-.2304688-.03125-.9521484-.046875-2.1660156-.046875-.3232422,0-.6845703.0170898-1.0830078.0517578-.3984375.0336914-.6132812.0512695-.6445312.0512695-.0556641,0-.1298828-.0092773-.2236328-.0283203-.0253906-.0498047-.0371094-.090332-.0371094-.1210938v-.0654297c.1738281-.0996094.4443359-.1962891.8125-.2895508.6279297-.1621094,1.0214844-.331543,1.1806641-.5087891s.2382812-.465332.2382812-.8637695c0-.0874023-.0048828-.2460938-.0146484-.4760742-.0087891-.2304688-.0136719-.5727539-.0136719-1.0273438v-.6069336c0-.8652344-.0185547-1.4316406-.0566406-1.6992188l-.3085938-.0092773-1.7207031.0092773-1.0849609-.0092773-1.0566406.0092773c-.6357422.0063477-1.0039062.046875-1.1035156.121582-.1376953.1054688-.2060547.3359375-.2060547.690918l.0097656.5693359c0,.0498047-.0048828.2441406-.0136719.5834961-.0097656.3393555-.0146484.7578125-.0146484,1.2558594,0,1.2016602.0517578,2.0014648.1542969,2.3999023.1035156.3984375.2861328.7265625.5478516.9848633.2626953.2583008.828125.5834961,1.6962891.9760742.2558594.1181641.3837891.2363281.3837891.3544922,0,.0561523-.0244141.1181641-.0742188.1870117-.6162109-.1806641-1.0214844-.2836914-1.2138672-.3081055-.4355469-.0688477-.8808594-.109375-1.3349609-.121582-.2060547,0-.3769531-.0498047-.5136719-.1494141v-.2055664l-.0283203-2.6235352.0097656-1.1762695-.0380859-2.8012695v-1.1391602c0-.1435547-.0029297-.2773438-.0087891-.4013672-.0498047-1.1206055-.0751953-1.9453125-.0751953-2.4746094,0-.0932617.015625-.1572266.0458984-.1914062s.0761719-.0512695.1367188-.0512695l.0908203.0092773Z"/>
      <path class="cls-1" d="m.5322266,28.4873047c.1308594.1928711.2236328.5415039.2792969,1.0454102.0185547.3925781.0527344.6259766.1025391.7006836.0371094.0493164.0830078.0869141.1396484.1118164.2285156.0932617.8515625.1616211,1.8691406.2055664,1.3251953.0571289,3.0898438.1489258,5.2929688.2758789,1.6806641.1015625,2.7294922.1523438,3.1464844.1523438h.2431641c.0927734-.449707.1933594-1.1621094.2988281-2.1367188.09375-.0625.1650391-.09375.2148438-.09375.03125,0,.0869141.0219727.1679688.0654297.0380859.1054688.0566406.1860352.0566406.2421875,0,.0498047-.0126953.1582031-.0380859.3261719-.0429688.3041992-.0644531.7231445-.0644531,1.2578125,0,.1738281.0136719.4716797.0419922.894043.0214844.2983398.0322266.4663086.0322266.503418,0,.0991211-.0185547.2143555-.0566406.3447266-.0625.0639648-.1230469.1118164-.1796875.144043l-.8769531.390625-5.8457031,2.6430664-2.453125,1.1015625c1.7119141.8623047,3.234375,1.5317383,4.5664062,2.0097656.0996094.0307617.1894531.0678711.2705078.1113281.1054688.0561523.2236328.1083984.3544922.1582031s.6289062.2514648,1.4941406.6049805c.3486328.1425781.6474609.2573242.8964844.3442383.9960938.3530273,1.5654297.5610352,1.7089844.6230469.0488281.1186523.0742188.2216797.0742188.309082,0,.0996094-.0097656.2275391-.0273438.3837891-.0195312.3496094-.0283203.9174805-.0283203,1.7036133,0,.4868164.0058594.8862305.0185547,1.1982422-.0683594.0126953-.1181641.019043-.1494141.019043-.0439453,0-.1025391-.0092773-.1777344-.0283203-.1054688-.1992188-.1650391-.4384766-.1767578-.71875-.03125-.5541992-.0751953-.9057617-.1308594-1.0551758-.0566406-.1494141-.1279297-.2441406-.2148438-.284668-.0878906-.0405273-.3730469-.0761719-.859375-.1074219l-.4296875.0092773-.4472656-.0092773c-.9345703,0-2.5029297.0249023-4.7070312.074707l-1.8300781-.0092773-1.1757812.0092773c-.4609375,0-.7333984.0214844-.8173828.0654297-.0839844.043457-.1630859.1679688-.2373047.3735352-.1123047.3359375-.2275391.8837891-.3457031,1.6430664-.03125.043457-.0722656.0654297-.1210938.0654297-.0566406,0-.1191406-.0029297-.1875-.0092773v-.4301758c0-.3676758.0117188-.7670898.0332031-1.1972656s.0322266-.6611328.0322266-.6918945c0-1.2783203-.0136719-2.1264648-.0429688-2.5444336-.0205078-.2553711-.03125-.4174805-.03125-.4863281,0-.043457.0126953-.090332.0371094-.1401367h.1210938c.0556641,0,.1152344.0092773.1777344.027832.0869141.2055664.1464844.4858398.1777344.840332.1054688.3925781.2177734.6787109.3359375.859375.2373047.0556641.7197266.0839844,1.4492188.0839844l1.8876953-.0283203c.2050781,0,.5878906.0107422,1.1494141.0327148.5605469.0219727,1.4736328.0327148,2.7382812.0327148,1.0029297,0,1.7626953-.0249023,2.2802734-.074707-.2177734-.1049805-.6914062-.3129883-1.4189453-.6230469l-.3544922-.1391602-.0566406-.0185547-3.2675781-1.3764648-1.2607422-.4926758-1.53125-.6416016c-.7041016-.2788086-1.3261719-.5175781-1.8681641-.7158203-.2480469-.0869141-.4443359-.1582031-.5878906-.2138672l.0097656-.2177734c2.0537109-.7041016,4.1611328-1.5439453,6.3212891-2.5195312,2.1591797-.9750977,3.5849609-1.6591797,4.2763672-2.0517578-.2675781-.0512695-1.0458984-.1088867-2.3339844-.1728516-1.5693359-.0834961-3.296875-.125-5.1826172-.125-.5888672,0-1.2529297.043457-1.9912109.1308594-.2109375.0249023-.3671875.1147461-.4697266.2705078s-.1601562.5571289-.1728516,1.2045898c0,.2490234-.0175781.4853516-.0556641.7094727-.0957031.043457-.1660156.0654297-.2099609.0654297-.0322266,0-.0869141-.015625-.1630859-.0463867l.1025391-2.8989258c0-.2114258-.0136719-.5410156-.0410156-.9882812-.0175781-.2485352-.0283203-.605957-.0332031-1.0717773l.2519531-.0092773Z"/>
      <path class="cls-1" d="m11.8671875,44.546875h.2900391c.0244141.105957.0400391.1899414.0458984.2524414l.0488281.8774414c.0654297.7285156.1181641,1.5439453.1572266,2.4462891.0117188.3608398.0185547.9306641.0185547,1.7089844,0,1.0581055-.078125,1.8330078-.2333984,2.324707-.2304688.7158203-.578125,1.2495117-1.0410156,1.6015625-.4638672.3515625-.9794922.5273438-1.5458984.5273438-.9208984,0-1.6962891-.6567383-2.3251953-1.9707031l-.0693359-.0458984c-.1806641.671875-.4335938,1.2231445-.7568359,1.6523438-.3242188.4296875-.7197266.7592773-1.1865234.9897461-.3427734.1679688-.7910156.2519531-1.3457031.2519531-.9287109,0-1.7548828-.4213867-2.4804688-1.2651367-.7255859-.8432617-1.0888672-2.0058594-1.0888672-3.4873047v-1.3911133l-.046875-1.4101562c-.0117188-1.2446289-.0185547-1.9731445-.0185547-2.1845703,0-.2182617.0097656-.4326172.0283203-.6445312h.1054688c.0761719,0,.1308594.015625.1630859.046875.0380859.0371094.0693359.1088867.0957031.2148438.1611328.777832.2714844,1.2182617.3310547,1.3212891.0585938.1025391.1533203.1723633.2841797.2099609.2480469.074707.8886719.1118164,1.9199219.1118164.0927734,0,.2109375-.0029297.3544922-.0092773.4160156-.012207.6552734-.0185547.7177734-.0185547h.9697266c1.6396484,0,3.0722656-.0185547,4.296875-.0561523l1.8730469-.0092773.2333984-.0092773c.0742188-.5292969.1210938-.9960938.1396484-1.4003906.0058594-.2617188.0283203-.4731445.0654297-.6352539ZM.8027344,50.4428711c.0439453.6171875.1738281,1.1347656.3916016,1.5527344.0996094.1928711.2792969.4223633.5371094.6870117.2587891.2651367.5683594.4711914.9296875.6176758.3603516.1464844.7089844.2197266,1.0449219.2197266.2558594,0,.5703125-.0517578.9433594-.1542969.3740234-.1030273.7021484-.277832.9853516-.5239258s.5166016-.612793.7001953-1.0991211.2753906-1.0224609.2753906-1.6088867c0-1.1347656-.0214844-1.7709961-.0654297-1.9077148-.1435547-.0063477-.2490234-.0097656-.3173828-.0097656l-.3457031.0097656-.7001953-.0097656h-.7939453c-1.4628906.019043-2.328125.0532227-2.5957031.1030273s-.4980469.2197266-.6904297.5097656c-.1933594.2900391-.2929688.8276367-.2988281,1.6137695Zm6.3486328-2.1982422c-.0615234.3120117-.0927734.6391602-.0927734.9824219,0,1.347168.2958984,2.2612305.8867188,2.7412109.5917969.4804688,1.1796875.7207031,1.7646484.7207031.2617188,0,.5273438-.0419922.7988281-.1264648.2705078-.0839844.5146484-.2338867.7324219-.4492188.21875-.2148438.3798828-.4819336.4863281-.7998047.1796875-.5424805.2705078-1.0976562.2705078-1.6655273,0-.5302734-.0595703-1.0229492-.1777344-1.4780273-.1308594-.0063477-.2275391-.0092773-.2890625-.0092773-.0625,0-.2402344.0058594-.5322266.0185547-.1875.0058594-.3730469.0092773-.5605469.0092773l-1.1298828-.027832-.671875.0092773-1.3164062.0654297-.1689453.0092773Z"/>
      <path class="cls-1" d="m.4501953,56.5170898c.0546875.0620117.0878906.1152344.1005859.1586914.03125.105957.0556641.2861328.0751953.5415039.0371094.6040039.0927734.9775391.1679688,1.1206055.125.0869141.2988281.1308594.5234375.1308594l.6542969-.0092773,2.3759766.0092773,1.1220703-.019043,2.3476562.0097656,2.6660156-.046875c.6357422-.0063477.9941406-.046875,1.0751953-.121582.1181641-.1118164.1875-.4448242.2060547-.9990234.0058594-.2363281.0244141-.4448242.0556641-.6254883.0439453-.0810547.0996094-.121582.1679688-.121582.0498047,0,.109375.015625.1777344.046875.03125.0561523.046875.105957.046875.1494141,0,.0869141-.0029297.1928711-.0097656.3173828-.0371094.3671875-.0556641.7470703-.0556641,1.1391602l.0185547.690918-.0371094,1.6435547c0,.8217773.0087891,1.4624023.0283203,1.9233398.0175781.4604492.0273438.7719727.0273438.9335938,0,.1430664-.0126953.4980469-.0371094,1.0644531l.0097656,1.3261719-.0283203.1586914.0283203.7749023-.046875.0932617c-.0507812.03125-.1035156.0527344-.1591797.0654297-.0869141,0-.2207031-.0141602-.4013672-.0419922-.1806641-.0283203-.2929688-.0419922-.3359375-.0419922-.6474609,0-1.1953125.0214844-1.6435547.0654297-.0371094-.0063477-.0625-.0249023-.0751953-.0551758,0-.0668945.0097656-.128418.0283203-.1831055.1181641-.0683594.3271484-.1601562.6259766-.2753906s.6445312-.2885742,1.0361328-.519043c.2617188-.1557617.4169922-.2768555.4667969-.3642578s.0751953-.2680664.0751953-.5419922c0-.0561523.0058594-.3393555.0185547-.8500977.0058594-.137207.0087891-.2709961.0087891-.4018555l-.0556641-2.6630859v-.2333984c0-.3427734-.0439453-.5483398-.1308594-.6166992-.1494141-.105957-.5878906-.1586914-1.3164062-.1586914-.0751953,0-.8212891.0151367-2.2412109.0463867h-1.2978516c-.0185547.0683594-.0283203.1430664-.0283203.2241211v.1586914c0,.105957-.0029297.2617188-.0087891.4667969-.0126953.3237305-.0185547.5419922-.0185547.6538086,0,.074707.0029297.1401367.0097656.1962891.0244141.671875.0371094,1.5371094.0371094,2.5957031.0556641.3295898.1210938.5224609.1953125.5786133.1123047.0932617.4052734.1635742.8779297.2099609.4736328.046875.7412109.1508789.8037109.3129883,0,.0810547-.015625.1557617-.046875.2241211-.0507812.012207-.0966797.0185547-.140625.0185547-.0429688,0-.1152344-.0063477-.2148438-.0185547-.2304688-.03125-.9521484-.046875-2.1660156-.046875-.3232422,0-.6845703.0170898-1.0830078.0517578-.3984375.0336914-.6132812.0512695-.6445312.0512695-.0556641,0-.1298828-.0092773-.2236328-.0283203-.0253906-.0498047-.0371094-.090332-.0371094-.1210938v-.0654297c.1738281-.0996094.4443359-.1962891.8125-.2895508.6279297-.1621094,1.0214844-.331543,1.1806641-.5087891s.2382812-.465332.2382812-.8637695c0-.0874023-.0048828-.2460938-.0146484-.4760742-.0087891-.2304688-.0136719-.5727539-.0136719-1.0273438v-.6069336c0-.8652344-.0185547-1.4316406-.0566406-1.6992188l-.3085938-.0092773-1.7207031.0092773-1.0849609-.0092773-1.0566406.0092773c-.6357422.0063477-1.0039062.046875-1.1035156.121582-.1376953.1054688-.2060547.3359375-.2060547.690918l.0097656.5693359c0,.0498047-.0048828.2441406-.0136719.5834961-.0097656.3393555-.0146484.7578125-.0146484,1.2558594,0,1.2016602.0517578,2.0014648.1542969,2.3999023.1035156.3984375.2861328.7265625.5478516.9848633.2626953.2583008.828125.5834961,1.6962891.9760742.2558594.1181641.3837891.2363281.3837891.3544922,0,.0561523-.0244141.1181641-.0742188.1870117-.6162109-.1806641-1.0214844-.2836914-1.2138672-.3081055-.4355469-.0688477-.8808594-.109375-1.3349609-.121582-.2060547,0-.3769531-.0498047-.5136719-.1494141v-.2055664l-.0283203-2.6235352.0097656-1.1762695-.0380859-2.8012695v-1.1391602c0-.1435547-.0029297-.2773438-.0087891-.4013672-.0498047-1.1206055-.0751953-1.9453125-.0751953-2.4746094,0-.0932617.015625-.1572266.0458984-.1914062s.0761719-.0512695.1367188-.0512695l.0908203.0092773Z"/>
      <path class="cls-1" d="m.5976562,69.1313477c.1054688.9042969.1796875,1.4155273.2236328,1.5332031.03125.0805664.1240234.1547852.2792969.2231445h.1035156c.1552734,0,.7177734.0249023,1.6884766.0742188.2734375.012207.5410156.0185547.8017578.0185547l1.1103516-.027832,1.2597656.0185547,2.3417969-.0092773,1.6787109.0092773c.7089844.0063477,1.1416016-.0483398,1.296875-.1635742.15625-.1152344.265625-.4121094.3320312-.8916016.0644531-.4794922.1132812-.7436523.1445312-.793457.0302734-.0498047.0800781-.074707.1484375-.074707.0439453,0,.0996094.0092773.1679688.027832.0566406.0625.0878906.2055664.09375.4296875,0,.03125.0078125.1166992.0234375.2568359s.0234375.2719727.0234375.3964844v.765625l.0283203,2.4560547c0,1.3876953-.1025391,2.3603516-.3085938,2.9174805-.2050781.5571289-.5527344,1.0009766-1.0410156,1.3305664-.4892578.3300781-1.0351562.4951172-1.6386719.4951172-1.1455078,0-2.0205078-.6000977-2.6240234-1.7998047-.1054688-.2050781-.1992188-.3666992-.2792969-.4848633-.4482422.2109375-.9863281.5063477-1.6142578.8852539l-2.0332031,1.184082c-.7480469.4731445-1.2177734.7998047-1.4072266.9804688-.1904297.1806641-.3476562.3999023-.4726562.6582031s-.2431641.6928711-.3554688,1.3032227c-.0625.0058594-.1123047.0092773-.1494141.0092773s-.0839844-.003418-.1396484-.0092773c-.0126953-.8530273-.0195312-1.8520508-.0195312-2.9975586,0-.0810547.0068359-.1928711.0195312-.3359375.8476562-.4418945,1.7792969-.9619141,2.7958984-1.5595703l2.5244141-1.3818359c.2617188-.1865234.4257812-.3408203.4912109-.4619141.0654297-.121582.0986328-.2817383.0986328-.480957l-.0097656-.793457.0097656-.2617188c-.1992188-.0185547-.6074219-.027832-1.2236328-.027832H1.7734375c-.1181641-.0063477-.2832031.0185547-.4951172.074707-.1171875.0498047-.2128906.1352539-.2841797.2568359-.0712891.1210938-.1787109.4711914-.3222656,1.050293l-.0927734.3828125c-.0625.0498047-.1464844.074707-.2529297.074707-.0302734-.1679688-.0458984-.2861328-.0458984-.3544922,0-.559082.0058594-.9536133.0185547-1.1835938.0058594-.1181641.0087891-.2143555.0087891-.2890625l-.0185547-1.2675781.0097656-1.2397461c0-.0561523-.0097656-.3383789-.0283203-.8481445l.0371094-.1860352.09375-.019043c.0556641,0,.1210938.043457.1962891.1303711Zm6.1064453,3.4643555c-.0068359.168457-.0097656.2924805-.0097656.3735352,0,.4482422.0527344.9648438.1582031,1.550293.0810547.4106445.2128906.7436523.3964844.9990234.1835938.2548828.4550781.4682617.8154297.6396484.3603516.1708984.7333984.2563477,1.1181641.2563477.4228516,0,.8701172-.1337891,1.3417969-.4013672.3613281-.2055664.6621094-.5522461.9042969-1.0410156s.3632812-1.0751953.3632812-1.7602539c0-.1679688-.0087891-.3857422-.0273438-.6533203-.3232422-.0249023-.5722656-.0375977-.7460938-.0375977l-1.7421875.046875-.7177734-.0092773c-.484375,0-1.1025391.012207-1.8544922.0371094Z"/>
      <path class="cls-1" d="m11.8300781,87.9741211c-.4111328.0498047-.6474609.074707-.7099609.074707l-.8310547-.0371094c-.3544922-.0126953-.5820312-.0283203-.6816406-.046875-.0244141-.0561523-.0371094-.1025391-.0371094-.1401367l.0185547-.0839844c.8710938-.1992188,1.5058594-.5366211,1.9042969-1.0131836.3984375-.4760742.5976562-1.0566406.5976562-1.7412109,0-.7094727-.1992188-1.2915039-.5976562-1.7460938-.3984375-.4541016-.8613281-.6816406-1.390625-.6816406-.4042969,0-.7753906.1586914-1.1113281.4765625-.3359375.3173828-.8388672,1.1293945-1.5087891,2.4370117-.5146484.9956055-.9355469,1.7084961-1.2626953,2.1381836-.3271484.4291992-.7060547.7529297-1.1357422.9707031s-.9091797.3271484-1.4394531.3271484c-.6669922,0-1.2929688-.1728516-1.8779297-.5185547-.5859375-.3452148-1.0273438-.8105469-1.3232422-1.3959961-.2958984-.5849609-.4433594-1.3598633-.4433594-2.324707,0-.840332.1337891-1.6464844.4013672-2.418457.1621094-.4541016.2929688-.7314453.3925781-.8310547.0986328-.0996094.2050781-.1494141.3164062-.1494141.0683594,0,.15625.0063477.2617188.019043.734375.0869141,1.3378906.1337891,1.8115234.1401367.2929688.012207.4638672.0336914.5136719.0649414.0439453.0249023.0654297.0717773.0654297.1401367,0,.0561523-.0205078.1010742-.0605469.1352539-.0410156.0341797-.1171875.0576172-.2285156.0703125-.765625.0683594-1.4511719.4233398-2.0546875,1.0644531-.6035156.6347656-.90625,1.3540039-.90625,2.1567383,0,.4916992.1035156.9443359.3085938,1.3583984s.5029297.737793.8916016.9711914c.3896484.2333984.7675781.3500977,1.1347656.3500977.5039062,0,.9648438-.1772461,1.3818359-.5322266.4169922-.3544922.9042969-1.0673828,1.4609375-2.1381836.5576172-1.0708008.9628906-1.7675781,1.21875-2.0913086.4169922-.5229492.859375-.9150391,1.3261719-1.1767578.3603516-.1928711.78125-.2890625,1.2597656-.2890625.8652344,0,1.5986328.3422852,2.1992188,1.0268555s.9013672,1.6030273.9013672,2.7543945c0,.6352539-.0712891,1.1826172-.2148438,1.6435547-.1123047.3359375-.2958984.6816406-.5507812,1.0361328Z"/>
      <path class="cls-1" d="m.1582031,90.0751953l.2060547.0092773c.1181641.2114258.1923828.4575195.2236328.737793.0556641.4418945.1132812.7216797.1728516.840332.0585938.1181641.1416016.2021484.2480469.2519531.2050781.0869141.4140625.1308594.6259766.1308594l.7099609-.019043.6542969.0092773.765625-.0185547c.3183594,0,.7148438.0092773,1.1923828.0283203.4755859.0185547.7294922.027832.7607422.027832h2.5517578c.4052734,0,.8427734.0092773,1.3125.027832.4707031.019043.7958984.0283203.9775391.0283203.5351562,0,.8466797-.0126953.9335938-.0375977.0878906-.0249023.1503906-.0712891.1875-.1401367.0371094-.0683594.0712891-.2924805.1025391-.671875.0244141-.2929688.046875-.4951172.0654297-.6069336.0683594-.03125.1240234-.046875.1679688-.046875.0498047,0,.109375.0029297.1777344.0092773.0117188.1494141.0185547.2646484.0185547.3457031l-.0097656.8774414c0,.6225586.0244141,1.2822266.0751953,1.9794922.0244141.3422852.046875.8588867.0654297,1.5498047-.0566406.0126953-.109375.019043-.1591797.019043-.0625,0-.1103516-.0141602-.1445312-.0419922-.0341797-.0283203-.0576172-.0766602-.0703125-.1450195-.0683594-.8154297-.1699219-1.2963867-.3027344-1.4423828-.1347656-.1464844-.4755859-.2197266-1.0234375-.2197266-1.0078125,0-2.0478516.015625-3.1181641.046875l-.8779297.0375977c-.0244141.0307617-.0556641.4355469-.0927734,1.2133789-.0126953.2119141-.0185547.3364258-.0185547.3735352l.0185547,1.3725586-.0283203.9057617.0742188,2.371582c.0058594.2924805.0185547.4702148.0371094.5322266,1.0800781.0375977,2.125.0561523,3.1357422.0561523.9736328,0,1.5478516-.0219727,1.7216797-.0654297.1054688-.0249023.1767578-.0683594.2138672-.1308594.0185547-.0371094.0683594-.3608398.1494141-.9707031.0117188-.105957.0273438-.2055664.0458984-.2988281.0957031-.03125.2041016-.046875.3261719-.046875.03125.2114258.0478516.3457031.0478516.4013672l-.0332031.6166992c-.0283203.565918-.0419922,1.1357422-.0419922,1.7084961,0,.3671875.03125.9770508.09375,1.8300781-.125-.0063477-.2373047-.0219727-.3359375-.046875-.09375-.2363281-.1533203-.5195312-.1777344-.8496094-.0126953-.2114258-.046875-.3891602-.1025391-.5322266-.0878906-.1181641-.2646484-.1772461-.5322266-.1772461-.0625,0-.1308594.0029297-.2060547.0092773-.2236328.0063477-.3701172.0092773-.4384766.0092773h-1.0732422l-.6728516.0092773-.8681641-.0185547-1.625.0092773-1.53125-.0185547c-.3046875,0-.78125.0092773-1.4277344.027832l-1.2607422-.0092773c-.4238281,0-.7255859.0375977-.90625.1123047-.0869141.0371094-.1494141.0991211-.1865234.1865234l-.1679688.7563477c-.09375.3735352-.1699219.5957031-.2285156.6674805-.0595703.0717773-.1298828.1074219-.2109375.1074219l-.1113281-.027832-.0097656-.046875c0-.03125.0058594-.0717773.0185547-.1210938.125-.6787109.1865234-1.3916016.1865234-2.1386719,0-.5849609-.0087891-1.0004883-.0273438-1.2460938-.0185547-.2460938-.0878906-.7583008-.2050781-1.5361328.0800781-.0126953.1396484-.0185547.1767578-.0185547.0439453,0,.1025391.0058594.1777344.0185547.1123047.1928711.1894531.4980469.2333984.9150391.03125.3110352.1308594.5571289.2988281.737793.1113281.1181641.2773438.1772461.4941406.1772461l1.3457031-.0092773c.4042969.0185547.625.027832.6621094.027832.5292969,0,1.3007812-.0092773,2.3164062-.027832.0859375-.0185547.1396484-.0532227.1582031-.1025391.0556641-.168457.0429688-.9960938-.0371094-2.4838867-.0195312-.2988281-.0283203-.5229492-.0283203-.6723633s.0078125-.4619141.0234375-.9384766c.015625-.4760742.0234375-.9165039.0234375-1.3208008,0-.2182617-.0029297-.4018555-.0097656-.5512695-.0058594-.2861328-.0087891-.4448242-.0087891-.4760742,0-.1430664-.0283203-.2412109-.0839844-.2939453-.0566406-.0532227-.1591797-.0795898-.3085938-.0795898l-.6533203.0092773c-.1064453,0-.6943359-.015625-1.7646484-.0463867-.21875-.0063477-.3984375-.0092773-.5419922-.0092773-.8525391,0-1.4189453.0307617-1.6992188.0932617-.1308594.0307617-.2207031.0869141-.2705078.1679688-.0371094.0561523-.1025391.2988281-.1962891.7285156-.0625.2861328-.1210938.5039062-.1777344.6533203l-.0927734.0561523c-.03125,0-.0566406-.0126953-.0751953-.0375977-.0302734-.0371094-.0458984-.090332-.0458984-.1586914,0-.0498047.0009766-.1088867.0039062-.1772461.0039062-.0683594.0078125-.2021484.0136719-.4013672.0068359-.3173828.0283203-.7128906.0664062-1.1860352.0244141-.3051758.0371094-.5756836.0371094-.8125,0-.3979492-.0214844-1.0361328-.0644531-1.9140625-.0068359-.1679688-.0107422-.3110352-.0107422-.4291992Z"/>
      <path class="cls-1" d="m.6064453,104.6503906c.0566406.137207.0898438.2768555.1035156.4204102.0615234.9521484.1757812,1.4970703.3408203,1.6337891s.9638672.2055664,2.3964844.2055664l.9814453-.0092773h1.0273438l1.1308594-.0375977.6640625.019043.7285156-.0097656h.859375l.3837891-.0185547.4853516.0185547c.1123047.0063477.2431641.0097656.3925781.0097656.3925781,0,.8066406-.019043,1.2431641-.0561523.0869141-.0249023.1708984-.0595703.2529297-.1030273.1171875-.2299805.1972656-.6020508.2382812-1.1157227.0400391-.5131836.0849609-.8046875.1347656-.8730469.0371094-.0498047.1337891-.0776367.2890625-.0839844v.7856445l-.0556641,2.4785156c0,.6357422.0185547,1.4833984.0556641,2.543457-.0996094,0-.1923828-.0058594-.2792969-.0185547-.03125-.1245117-.0654297-.3330078-.1035156-.6254883-.0683594-.5913086-.1337891-.9526367-.1953125-1.0830078-.03125-.0810547-.0839844-.1401367-.1591797-.1777344-.1123047-.0620117-.3212891-.0996094-.6259766-.1118164l-1.2060547-.046875-4.1582031.0375977h-1.6445312c-.5175781-.0126953-.8691406-.0185547-1.0556641-.0185547-.6982422,0-1.1435547.0170898-1.3369141.0512695s-.3310547.0932617-.4160156.1772461c-.0839844.0839844-.1513672.2226562-.2001953.4155273-.0683594.2861328-.1064453.5102539-.1123047.6723633-.0126953.3486328-.0625.5693359-.1494141.6630859-.0810547.0185547-.1494141.027832-.2050781.027832h-.0751953c-.0185547-.5673828-.0283203-.9853516-.0283203-1.253418,0-.1557617.0097656-.4331055.0283203-.8320312l-.0185547-1.2905273.0087891-2.1982422v-.1772461l.2802734-.019043Z"/>
      <path class="cls-1" d="m12.2216797,111.4291992c.0195312.1123047.0283203.1835938.0283203.2148438,0,.2114258-.0126953.5605469-.0371094,1.0458984-.0068359.2548828-.0097656.4296875-.0097656.5229492,0,.1367188.0126953.4262695.0380859.8681641l.0927734,1.5874023c.0371094.4169922.0556641.9023438.0556641,1.456543,0,.9770508-.1376953,1.7553711-.4140625,2.3344727-.2773438.5786133-.7109375,1.0253906-1.3007812,1.3398438-.5908203.3139648-1.1787109.4711914-1.7626953.4711914-.9765625,0-1.8183594-.3422852-2.5273438-1.0268555-.7089844-.6850586-1.0634766-1.605957-1.0634766-2.7636719,0-.3237305.0332031-.5947266.0986328-.8125s.1914062-.4667969.3779297-.7470703c.0810547-.1181641.1650391-.1899414.2519531-.2148438.0439453.0249023.0751953.059082.09375.1030273,0,.0869141-.0185547.1772461-.0556641.2705078-.0751953.2119141-.1123047.4794922-.1123047.8032227,0,.4916992.1210938.9570312.3632812,1.3959961.2421875.4384766.5878906.7700195,1.0351562.9941406s.9199219.3364258,1.4169922.3364258c.484375,0,.9550781-.1181641,1.4121094-.3544922.4570312-.2358398.8212891-.5463867,1.0957031-.9316406.1552734-.2172852.2851562-.5512695.3916016-1.0019531.1054688-.4501953.1582031-.7998047.1582031-1.0483398,0-.7700195-.0566406-1.2270508-.1679688-1.3696289l-.1308594-.0092773-1.0537109.027832-.1865234-.0092773c-.1679688-.0126953-.4267578-.0185547-.7744141-.0185547-1.2685547,0-2.0595703.0185547-2.3701172.0561523h-.5224609l-4.2636719.1210938c-.0615234,0-.1767578-.0078125-.3447266-.0234375s-.3144531-.0229492-.4384766-.0229492c-.2988281,0-.5253906.0244141-.6806641.0742188-.0439453.1494141-.1464844.5854492-.3085938,1.3076172-.0810547.3359375-.1269531.5195312-.1396484.5507812-.0185547.0498047-.0595703.0932617-.1220703.1308594-.0927734-.0253906-.1533203-.0576172-.1816406-.0981445s-.0419922-.1201172-.0419922-.2382812c0-.074707.015625-.2490234.046875-.5229492.0556641-.5351562.0839844-.9555664.0839844-1.2602539l-.0654297-1.6435547.0283203-.9804688c0-.0620117-.0068359-.2426758-.0185547-.5415039l.2421875-.0092773.2333984,1.2138672c.0556641.1992188.1123047.3208008.1679688.3642578.0869141.0620117.2578125.0932617.5126953.0932617.0566406,0,.1777344.0029297.3642578.0092773.1308594.0063477.3105469.0092773.5410156.0092773.7333984,0,2.2978516-.03125,4.6923828-.0932617,1.1201172-.0249023,2.2578125-.0371094,3.4150391-.0371094h.1591797c.4472656,0,.7304688-.0688477.8486328-.2055664.2050781-.2304688.3730469-.8061523.5029297-1.7275391.0693359-.03125.125-.0463867.1689453-.0463867.0498047,0,.1083984.0185547.1767578.0556641Z"/>
    </g>
  </g>
</svg>