<?xml version="1.0" encoding="UTF-8"?>
<svg id="_レイヤー_2" data-name="レイヤー 2" xmlns="http://www.w3.org/2000/svg" viewBox="0 0 43.6230469 89.3730469">
  <defs>
    <style>
      .cls-1 {
        fill: #fff;
      }
    </style>
  </defs>
  <g id="_レイヤー_1-2" data-name="レイヤー 1">
    <g>
      <path class="cls-1" d="m31.3359375,15.6640625c.6855469.5390625,1.8115234,1.4443359,3.9414062,1.4443359,1.4433594,0,4.4052734-.6367188,4.4052734-3.5,0-2.7412109-2.6191406-3.2060547-3.6220703-3.2060547-1.46875,0-4.2099609.6855469-6.7314453,2.3984375.0498047.8320312.0742188,1.6884766.0986328,2.5449219,0,.2207031.1464844,1.640625.1464844,1.9091797,0,1.5175781-.8076172,2.6191406-1.296875,2.6191406-.2939453,0-.4160156-.1708984-.7832031-.6855469-.171875-.2441406-.3916016-.5136719-.9550781-1.0029297-.1220703-.0986328-.8564453-.6611328-1.5908203-1.1992188-.4404297.6601562-.6855469.9052734-1.0029297.9052734-.5390625,0-1.3710938-.5634766-1.7382812-1.1015625-.2441406-.3916016-.2197266-.8564453-.1953125-1.1748047.8320312.6123047.8564453.6367188,1.1015625.6367188.1464844,0,.1953125-.0244141.5869141-.3427734,1.4443359-1.1015625,3.2060547-2.3251953,4.5527344-3.2548828,0-.5390625-.0498047-2.9130859-.0498047-3.4023438,0-.2207031.0253906-1.1748047.0498047-1.7626953-.6123047.1962891-1.7138672.5390625-2.6435547.5390625-.6123047,0-1.8847656-.5146484-2.203125-1.7626953.5878906.4648438.9306641.734375,2.1542969.734375.7832031,0,2.2021484-.4892578,2.7167969-.6855469.0244141-.3916016.0976562-2.1777344.0976562-2.5205078,0-.5878906-.0488281-2.2275391-.2695312-2.6679688q-.1220703-.2695312-1.3212891-.9052734c.2695312-.1230469.4648438-.2207031,1.0283203-.2207031,1.0273438,0,2.4228516.5878906,2.4228516,1.3222656,0,.2197266-.0488281.3916016-.171875.7832031-.2685547.7832031-.5136719,1.7128906-.6845703,3.7929688,1.4433594-.6113281,1.7128906-.8320312,1.9824219-1.0517578.4892578-.3916016.5869141-.3916016.9052734-.3916016.7587891,0,1.0771484.3173828,1.0771484.5869141s-.1474609.4404297-.5878906.6367188c-.1953125.0732422-2.3740234,1.0273438-3.4511719,1.4433594-.0488281,1.1748047-.0732422,2.203125-.0732422,2.6191406,0,.2939453.0244141.8564453.0732422,2.2519531,2.1542969-1.3466797,4.4794922-2.4970703,7.0244141-2.4970703,2.1787109,0,4.9443359,1.0771484,4.9443359,4.0878906,0,2.9365234-2.5947266,4.6503906-5.3847656,4.6503906-2.8144531,0-3.7441406-1.2480469-4.6748047-2.4970703l.1220703-.0732422Zm-3.0341797.0488281c0-.9785156,0-1.1015625-.0244141-2.1533203-1.1748047.9296875-2.2763672,1.9824219-3.1572266,3.2060547.2685547.1220703,1.5419922.6611328,1.8349609.8076172.4902344.2207031.6123047.2695312.8076172.2695312.4658203,0,.5390625-.4648438.5390625-1.4199219v-.7099609Zm8.8349609-8.3457031c.3183594-.1708984.7099609-.3916016,1.5664062-1.1259766.4648438-.4160156.5634766-.5380859.5634766-.7587891,0-.7832031-1.6152344-1.5175781-3.4511719-2.3251953.2197266-.0488281.3916016-.0976562.7099609-.0976562,4.1113281,0,5.0175781,2.6923828,5.0175781,3.7695312,0,.5136719-.3916016.5380859-.4414062.5380859-.2685547,0-.5625-.1464844-.6113281-.1708984-.5136719-.2451172-.7099609-.2939453-1.0283203-.2939453-.5869141,0-1.1992188.1953125-2.3251953.5869141v-.1220703Z"/>
      <path class="cls-1" d="m29.9902344,24.8642578c-.0488281.5380859-.0732422,1.0761719-.0732422,1.8837891,0,.6367188.1464844,3.4511719.1464844,4.0390625,0,.3427734,0,1.1503906-.9541016,1.1503906-.4892578,0-.4648438-.171875-.4404297-.9550781h-4.9199219c0,1.2734375.0488281,3.3046875.0488281,4.5771484v5.6533203c0,.3183594.0488281,1.7626953.0488281,2.0566406,0,.1708984,0,.4404297-.1464844.6601562-.2207031.2939453-.6367188.4902344-.9296875.4902344-.5390625,0-.5390625-.4160156-.5390625-.6367188,0-.0488281.0986328-.1220703.2207031-6.8779297.1220703-6.3876953.0488281-7.0976562.0488281-7.6113281,0-1.296875,0-4.6015625-.1962891-5.7275391-.0244141-.1953125-.0488281-.2685547-.1953125-.9052734l1.9091797.8564453h4.5029297l.2939453-.3671875c.1220703-.1220703.1708984-.1953125.3183594-.1953125.0732422,0,.0976562,0,.2939453.1464844l1.0761719.7099609c.1230469.0976562.171875.1708984.171875.2939453,0,.2441406-.1962891.3916016-.6855469.7587891Zm-1.3212891-.7587891h-4.9199219v2.765625h4.9199219v-2.765625Zm0,3.3525391h-4.9199219v2.9375h4.9199219v-2.9375Zm6.828125,7.6123047c-.0488281,1.5175781-.0244141,3.0097656.0244141,4.5273438.0244141,1.2978516-.7099609,1.3466797-.9052734,1.3466797-.171875,0-.4892578-.0986328-.4892578-.5146484,0-.2685547,0-.6113281.0488281-.8564453h-5.3603516c0,.1474609.0244141.734375,0,.8564453,0,.0498047-.1953125.90625-.9052734.90625-.4404297,0-.4902344-.2451172-.4902344-.4902344,0-.0244141.0498047-.5136719.0498047-.5869141.0732422-1.4199219.0732422-3.4511719.0732422-3.7451172,0-1.0761719,0-2.59375-.171875-3.2548828l1.5664062.734375h5.0664062l.3916016-.4160156c.171875-.1962891.2207031-.2695312.3183594-.2695312s.171875.0488281.3427734.171875l.9052734.6113281c.1474609.0986328.2207031.1474609.2207031.2451172,0,.2441406-.3427734.4892578-.6855469.734375Zm-1.296875-.4902344h-5.3847656v4.40625h5.3847656v-4.40625Zm7.1708984-9.7158203c-.0244141.6357422-.0488281,6.0693359-.0488281,7.4648438,0,1.5908203,0,3.1572266.0488281,4.3076172.0488281,1.9091797.0732422,3.4755859.0732422,3.8916016,0,2.59375,0,3.1328125-2.5449219,3.9404297-.3427734-1.0771484-.5878906-1.3466797-2.3007812-2.1787109v-.1220703c.5869141.0244141,1.296875.0732422,2.03125.0732422,1.0039062,0,1.1015625,0,1.3212891-.1953125.1230469-.1474609.1474609-.171875.1474609-1.6894531,0-1.4677734-.0976562-8.0273438-.0244141-9.3740234h-5.1152344c-.0488281.2207031-.171875.8818359-.9306641.8818359-.1464844,0-.4892578,0-.4892578-.5634766,0-1.6640625.1464844-4.3320312.1464844-5.9960938,0-.9794922-.1464844-2.2275391-.2197266-2.5947266l1.6396484.8564453h4.8212891l.3671875-.4648438c.0986328-.1220703.1962891-.2197266.3183594-.2197266s.2939453.1220703.3916016.1953125l1.0039062.7587891c.1220703.0976562.1953125.1464844.1953125.2695312,0,.1953125-.5625.5869141-.8320312.7587891Zm-1.296875-.7099609h-5.1152344v2.7167969h5.1152344v-2.7167969Zm0,3.3037109h-5.1152344v2.9375h5.1152344v-2.9375Z"/>
      <path class="cls-1" d="m41.46875,56.1884766c-4.1845703-1.8359375-7.7578125-5.53125-9.4472656-8.8359375h-.1220703c-4.1367188,5.5068359-7.0244141,8.7626953-11.2587891,10.7451172l-.1464844-.1962891c3.7685547-2.3984375,7.2685547-7.2939453,8.7373047-9.3740234.6611328-.9052734,1.2724609-1.7861328,1.5664062-2.9365234l1.9580078.8320312c.1962891.0732422.2451172.1708984.2451172.2939453,0,.2929688-.2207031.5136719-.5146484.5869141,1.8603516,3.0351562,6.5839844,6.5107422,11.1367188,7.1464844v.1962891c-.5390625.1464844-1.7128906.734375-2.1542969,1.5419922Zm-3.6464844,4.3808594c-.0488281,1.4189453-.0488281,3.5976562.0244141,4.7480469,0,.1962891.0976562.9794922.0976562,1.1503906,0,.6367188-.8076172.8320312-1.0761719.8320312-.3671875,0-.4658203-.2197266-.4658203-.4648438,0-.0732422.0253906-.4404297.0498047-.5634766h-9.0810547c0,.2451172,0,.6855469-.0244141.734375-.0732422.2939453-.5869141.6367188-1.0761719.6367188-.2451172,0-.4658203-.1464844-.4658203-.4404297,0-.171875.0742188-.9550781.0742188-1.1015625.0732422-1.7128906.1220703-3.6220703.1220703-5.3359375,0-.8564453,0-1.2480469-.1474609-2.2753906l1.8115234.8564453h8.7373047l.4658203-.5390625c.1220703-.1708984.1953125-.2197266.3173828-.2197266.0986328,0,.1962891.0732422.3427734.1953125l.8076172.734375c.2207031.1962891.2695312.2695312.2695312.3427734,0,.1962891-.0732422.2451172-.7832031.7099609Zm-.7832031-4.4794922h-7.0976562c-.8564453,0-2.2275391.0986328-3.1572266.2939453l-.5634766-1.0771484c1.8359375.171875,3.5986328.1962891,4.0634766.1962891h4.2099609l.7333984-.8564453c.171875-.1962891.2451172-.3183594.3671875-.3183594.1474609,0,.4160156.2207031.4658203.2695312l1.1005859.8564453c.1230469.0976562.2451172.2197266.2451172.3671875,0,.2441406-.1953125.2685547-.3671875.2685547Zm-.5869141,3.8427734h-9.1054688v5.7519531h9.1054688v-5.7519531Z"/>
      <path class="cls-1" d="m30.8466797,82.1044922l.2207031.0488281c2.5205078.5625,2.5693359.6855469,2.8632812.6855469.7099609,0,.9306641-.5146484,1.0283203-.8320312.1708984-.6123047.3427734-3.3291016.3916016-4.1611328-2.4482422.3916016-4.7724609.9785156-6.6572266,1.4443359-.1230469,2.4472656-.1230469,2.7167969-.1230469,3.2060547,0,4.4785156,1.0771484,5.6777344,5.2626953,5.6777344,1.6152344,0,3.3779297-.2685547,3.7441406-.3417969.6367188-.1474609.7099609-.1230469.90625-.1230469.6357422,0,1.3457031.4160156,1.3457031.9306641,0,.3916016-.3183594.5136719-.4404297.5625-.5625.1464844-2.6679688.1708984-3.4023438.1708984-2.5205078,0-6.6572266,0-7.9052734-3.2548828-.5136719-1.3212891-.6113281-2.7167969-.6113281-6.4853516-2.1787109.6357422-2.6191406.9052734-3.3046875,1.3212891-.5136719.3183594-.6357422.3916016-.9541016.3916016-.4160156,0-2.2763672-.8564453-2.1542969-2.5947266.7099609.6611328,1.4199219,1.0283203,2.03125,1.0283203.1962891,0,.4414062-.0244141,1.1259766-.2207031,1.5664062-.4648438,2.765625-.7587891,3.2558594-.8808594,0-.8076172,0-3.1328125-.2695312-3.6708984-.2207031-.4892578-.7832031-.8320312-1.3466797-1.1015625.2207031-.1708984.3183594-.2207031.8085938-.2207031,1.1992188,0,2.3242188.734375,2.3242188,1.1992188,0,.0742188-.0244141.3671875-.0976562.6611328-.0976562.4404297-.1220703,2.4228516-.1464844,2.8388672,2.203125-.5380859,4.4052734-1.0029297,6.6328125-1.3701172.0244141-1.0771484.0732422-4.0625-.2939453-4.9931641-.2939453-.7832031-1.4443359-1.1015625-1.8847656-1.2236328.2939453-.1220703.7587891-.3183594,1.4443359-.3183594s2.203125.4892578,2.203125,1.3955078c0,.0732422-.1230469.7832031-.1474609.8320312-.1220703.734375-.1708984,3.2060547-.1953125,4.1357422.5869141-.0976562,3.2548828-.5136719,3.7929688-.6357422.4160156-.0732422,1.1503906-.2451172,1.3955078-.2451172.4160156,0,1.46875.1474609,1.46875.7587891,0,.6611328-.6123047.6611328-.9306641.6611328-.2197266,0-1.1748047-.0244141-1.3701172-.0244141-.8808594,0-2.3007812.0976562-4.3808594.3427734-.0244141,1.4921875-.2207031,4.4541016-.734375,5.6777344-.5146484,1.1992188-1.2480469,1.3466797-1.46875,1.3466797s-.2695312-.0498047-.734375-.5146484c-.8808594-.8808594-2.6435547-1.9580078-2.7167969-2.0068359l.0244141-.0976562Z"/>
    </g>
    <g>
      <path class="cls-1" d="m4.4541016,3.1860352c.1054688.9042969.1806641,1.4155273.2236328,1.5332031.03125.0805664.125.1547852.2802734.2231445h.1025391c.1552734,0,.71875.0249023,1.6884766.0742188.2744141.012207.5410156.0185547.8027344.0185547l1.1103516-.027832,1.2597656.0185547,2.3408203-.0092773,1.6796875.0092773c.7089844.0063477,1.1416016-.0483398,1.296875-.1635742s.265625-.4121094.3310547-.8916016.1132812-.7436523.1445312-.793457.0810547-.074707.1494141-.074707c.0439453,0,.0996094.0092773.1679688.027832.0556641.0625.0869141.2055664.09375.4296875,0,.03125.0068359.1166992.0224609.2568359s.0234375.2719727.0234375.3964844v.765625l.0283203,2.4560547c0,1.3876953-.1025391,2.3603516-.3076172,2.9174805-.2060547.5571289-.5527344,1.0009766-1.0410156,1.3305664-.4892578.3300781-1.0351562.4951172-1.6386719.4951172-1.1455078,0-2.0205078-.6000977-2.6240234-1.7998047-.1064453-.2050781-.1992188-.3666992-.2802734-.4848633-.4472656.2109375-.9853516.5063477-1.6132812.8852539l-2.0332031,1.184082c-.7490234.4731445-1.2177734.7998047-1.4082031.9804688s-.3476562.3999023-.4726562.6582031c-.1240234.2583008-.2431641.6928711-.3554688,1.3032227-.0615234.0058594-.1113281.0092773-.1484375.0092773-.0380859,0-.0839844-.003418-.140625-.0092773-.0126953-.8530273-.0185547-1.8520508-.0185547-2.9975586,0-.0810547.0058594-.1928711.0185547-.3359375.8476562-.4418945,1.7802734-.9619141,2.7958984-1.5595703l2.5253906-1.3818359c.2617188-.1865234.4248047-.3408203.4912109-.4619141.0644531-.121582.0976562-.2817383.0976562-.480957l-.0087891-.793457.0087891-.2617188c-.1992188-.0185547-.6074219-.027832-1.2226562-.027832h-3.1933594c-.1181641-.0063477-.2832031.0185547-.4951172.074707-.1181641.0498047-.2128906.1352539-.2841797.2568359-.0722656.1210938-.1796875.4711914-.3222656,1.050293l-.09375.3828125c-.0625.0498047-.1464844.074707-.2519531.074707-.03125-.1679688-.046875-.2861328-.046875-.3544922,0-.559082.0058594-.9536133.0185547-1.1835938.0068359-.1181641.0097656-.2143555.0097656-.2890625l-.0185547-1.2675781.0087891-1.2397461c0-.0561523-.0087891-.3383789-.0283203-.8481445l.0380859-.1860352.0927734-.019043c.0566406,0,.1220703.043457.1962891.1303711Zm6.1064453,3.4643555c-.0058594.168457-.0097656.2924805-.0097656.3735352,0,.4482422.0537109.9648438.1591797,1.550293.0810547.4106445.2128906.7436523.3955078.9990234.1835938.2548828.4550781.4682617.8164062.6396484.359375.1708984.7324219.2563477,1.1181641.2563477.4228516,0,.8701172-.1337891,1.3417969-.4013672.3603516-.2055664.6611328-.5522461.9042969-1.0410156.2421875-.4887695.3632812-1.0751953.3632812-1.7602539,0-.1679688-.0087891-.3857422-.0283203-.6533203-.3222656-.0249023-.5712891-.0375977-.7451172-.0375977l-1.7431641.046875-.7167969-.0092773c-.4853516,0-1.1035156.012207-1.8554688.0371094Z"/>
      <path class="cls-1" d="m4.3076172,15.0727539c.0537109.0620117.0878906.1152344.0996094.1586914.03125.105957.0566406.2861328.0751953.5415039.0371094.6040039.09375.9775391.1679688,1.1206055.125.0869141.2998047.1308594.5244141.1308594l.6542969-.0092773,2.3759766.0092773,1.1220703-.019043,2.3476562.0097656,2.6650391-.046875c.6367188-.0063477.9951172-.046875,1.0761719-.121582.1181641-.1118164.1865234-.4448242.2050781-.9990234.0058594-.2363281.0253906-.4448242.0566406-.6254883.0429688-.0810547.0996094-.121582.1679688-.121582.0498047,0,.1083984.015625.1777344.046875.0302734.0561523.0458984.105957.0458984.1494141,0,.0869141-.0029297.1928711-.0087891.3173828-.0371094.3671875-.0566406.7470703-.0566406,1.1391602l.0195312.690918-.0380859,1.6435547c0,.8217773.0097656,1.4624023.0283203,1.9233398.0185547.4604492.0273438.7719727.0273438.9335938,0,.1430664-.0117188.4980469-.0371094,1.0644531l.0097656,1.3261719-.0283203.1586914.0283203.7749023-.046875.0932617c-.0498047.03125-.1025391.0527344-.1582031.0654297-.0878906,0-.2216797-.0141602-.4023438-.0419922-.1796875-.0283203-.2919922-.0419922-.3359375-.0419922-.6474609,0-1.1953125.0214844-1.6425781.0654297-.0380859-.0063477-.0625-.0249023-.0751953-.0551758,0-.0668945.0087891-.128418.0283203-.1831055.1181641-.0683594.3261719-.1601562.625-.2753906s.6445312-.2885742,1.0371094-.519043c.2607422-.1557617.4160156-.2768555.4667969-.3642578.0488281-.0874023.0742188-.2680664.0742188-.5419922,0-.0561523.0058594-.3393555.0185547-.8500977.0068359-.137207.0097656-.2709961.0097656-.4018555l-.0556641-2.6630859v-.2333984c0-.3427734-.0439453-.5483398-.1308594-.6166992-.1503906-.105957-.5888672-.1586914-1.3164062-.1586914-.0751953,0-.8222656.0151367-2.2412109.0463867h-1.2978516c-.0195312.0683594-.0283203.1430664-.0283203.2241211v.1586914c0,.105957-.0029297.2617188-.0087891.4667969-.0126953.3237305-.0195312.5419922-.0195312.6538086,0,.074707.0039062.1401367.0097656.1962891.0244141.671875.0371094,1.5371094.0371094,2.5957031.0566406.3295898.1210938.5224609.1962891.5786133.1123047.0932617.4042969.1635742.8779297.2099609.4726562.046875.7402344.1508789.8027344.3129883,0,.0810547-.015625.1557617-.046875.2241211-.0498047.012207-.0966797.0185547-.1396484.0185547-.0439453,0-.1152344-.0063477-.2148438-.0185547-.2304688-.03125-.9521484-.046875-2.1660156-.046875-.3242188,0-.6845703.0170898-1.0830078.0517578-.3984375.0336914-.6132812.0512695-.6445312.0512695-.0566406,0-.1308594-.0092773-.2246094-.0283203-.0244141-.0498047-.0371094-.090332-.0371094-.1210938v-.0654297c.1738281-.0996094.4453125-.1962891.8125-.2895508.6289062-.1621094,1.0224609-.331543,1.1816406-.5087891.1582031-.1772461.2373047-.465332.2373047-.8637695,0-.0874023-.0048828-.2460938-.0136719-.4760742-.0097656-.2304688-.0146484-.5727539-.0146484-1.0273438v-.6069336c0-.8652344-.0185547-1.4316406-.0556641-1.6992188l-.3085938-.0092773-1.7207031.0092773-1.0849609-.0092773-1.0566406.0092773c-.6367188.0063477-1.0039062.046875-1.1035156.121582-.1376953.1054688-.2060547.3359375-.2060547.690918l.0087891.5693359c0,.0498047-.0039062.2441406-.0136719.5834961s-.0136719.7578125-.0136719,1.2558594c0,1.2016602.0507812,2.0014648.1542969,2.3999023.1025391.3984375.2851562.7265625.5478516.9848633s.8271484.5834961,1.6962891.9760742c.2558594.1181641.3837891.2363281.3837891.3544922,0,.0561523-.0253906.1181641-.0751953.1870117-.6162109-.1806641-1.0205078-.2836914-1.2128906-.3081055-.4365234-.0688477-.8808594-.109375-1.3359375-.121582-.2050781,0-.3769531-.0498047-.5136719-.1494141v-.2055664l-.0273438-2.6235352.0087891-1.1762695-.0371094-2.8012695v-1.1391602c0-.1435547-.0029297-.2773438-.0087891-.4013672-.0507812-1.1206055-.0751953-1.9453125-.0751953-2.4746094,0-.0932617.0146484-.1572266.0458984-.1914062.0292969-.0341797.0751953-.0512695.1367188-.0512695l.0908203.0092773Z"/>
      <path class="cls-1" d="m15.7333984,31.5996094c.4794922.9711914.71875,2.0356445.71875,3.1933594,0,1.1206055-.2578125,2.1274414-.7744141,3.0205078-.5175781.8930664-1.1992188,1.6074219-2.0449219,2.1430664-1.0527344.659668-2.1914062.9897461-3.4179688.9897461-.8027344,0-1.6298828-.1713867-2.4794922-.5136719s-1.546875-.7827148-2.0917969-1.3212891-.9511719-1.0922852-1.21875-1.6621094c-.2675781-.5693359-.4199219-1.0161133-.4580078-1.3398438-.0302734-.2241211-.0742188-.3886719-.1298828-.4946289-.3046875.2548828-.7001953.6923828-1.1845703,1.3120117-.484375.6191406-.8613281,1.2304688-1.1298828,1.8344727-.0185547.0561523-.0654297.1586914-.1396484.3081055-.1621094.3300781-.3056641.6445312-.4296875.9433594l-.0839844.2143555-.0097656.0839844-.1025391.2431641c-.1367188.3232422-.2490234.6220703-.3359375.8959961-.0566406.0063477-.0996094.0097656-.1308594.0097656l-.1123047-.0097656H.0097656c-.0058594-.1992188-.0097656-.3203125-.0097656-.3637695,0-.5727539.1074219-1.2373047.3222656-1.9936523s.5-1.4506836.8544922-2.0820312c.3544922-.6318359.828125-1.3183594,1.4189453-2.059082.4052734-.4980469.8007812-.9121094,1.1865234-1.2416992.1552734-1.0893555.5322266-2.0712891,1.1298828-2.9458008s1.3378906-1.5439453,2.2216797-2.0078125c.8837891-.4633789,1.7900391-.6953125,2.7177734-.6953125,1.0888672,0,2.1845703.2861328,3.2861328.8588867s1.9667969,1.4658203,2.5957031,2.6796875Zm-11.484375,1.8300781c-.0625.3422852-.09375.6630859-.09375.9619141,0,.6845703.1064453,1.2993164.3173828,1.8442383.2119141.5444336.4863281.9785156.8222656,1.3022461.4433594.4233398,1.0664062.7875977,1.8691406,1.0922852.8037109.3051758,1.8105469.4575195,3.0185547.4575195.953125,0,1.8222656-.1396484,2.6074219-.4199219.5419922-.1870117,1.0869141-.4980469,1.6347656-.9335938.5478516-.4360352.9521484-.8886719,1.2099609-1.3588867.2587891-.4697266.3886719-1.0629883.3886719-1.7783203,0-.840332-.21875-1.6279297-.6542969-2.3623047-.4365234-.7348633-1.1933594-1.3481445-2.2714844-1.8398438-.6845703-.3110352-1.6376953-.4667969-2.859375-.4667969-.9960938,0-1.9697266.1728516-2.9199219.5185547-.9501953.3452148-1.7177734.8354492-2.3027344,1.4702148-.3427734.3671875-.5986328.871582-.7666016,1.5126953Z"/>
      <path class="cls-1" d="m16.1533203,47.3510742c-.1054688.03125-.1865234.046875-.2421875.046875-.0380859,0-.09375-.0092773-.1679688-.027832-.0439453-.1621094-.0654297-.2929688-.0654297-.3920898,0-.0439453.0039062-.1166992.0136719-.2197266.0097656-.1025391.0136719-.1850586.0136719-.2475586,0-.2861328-.0556641-.5131836-.1679688-.6811523-.0683594-.1123047-.1582031-.1806641-.2705078-.2055664l-1.0654297-.0932617-4.6259766.027832c-1.6943359.0063477-2.7490234.0620117-3.1630859.1679688s-.7558594.2832031-1.0234375.5322266-.4892578.6240234-.6640625,1.125c-.1738281.5009766-.2607422.9882812-.2607422,1.4614258,0,1.0581055.1523438,1.8691406.4580078,2.4321289.3046875.5634766.7265625.9682617,1.265625,1.2138672.5390625.2460938,1.3564453.3691406,2.453125.3691406.03125,0,.2802734-.0092773.7480469-.0283203h.2705078c.0996094,0,.2939453.0063477.5839844.019043.2900391.012207.4599609.0185547.5087891.0185547l2.6826172-.1401367c.9033203-.043457,1.4365234-.0952148,1.5976562-.1542969.1621094-.059082.2841797-.1445312.3642578-.2563477.1748047-.2431641.3300781-.7036133.4677734-1.3823242.0869141-.0307617.1767578-.0498047.2705078-.0556641.0253906.2426758.0371094.4824219.0371094.71875,0,.2490234-.0087891.5102539-.0273438.7841797-.03125.4111328-.046875.6352539-.046875.6723633l.046875,1.4755859-.0097656.2890625-.3359375-.0092773c-.0996094-.765625-.2167969-1.2231445-.3505859-1.3725586s-.3818359-.2241211-.7431641-.2241211c-.1923828,0-.6132812.0126953-1.2607422.0375977l-1.9345703.0654297-.7666016-.0092773-.9716797.027832c-1.2207031,0-2.0527344-.0341797-2.4951172-.1025391-.6162109-.0996094-1.1054688-.2416992-1.4667969-.4248047-.3613281-.184082-.6865234-.4501953-.9765625-.7983398-.2900391-.3491211-.5283203-.8139648-.7148438-1.3959961s-.2802734-1.15625-.2802734-1.7226562c0-.890625.0625-1.53125.1875-1.9238281.2177734-.7158203.5009766-1.2851562.8496094-1.7084961s.6972656-.7158203,1.046875-.8774414c.4609375-.2182617,1.1337891-.3271484,2.0185547-.3271484h.6445312l2.6162109-.027832,2.1123047.027832h1.4199219c.3613281,0,.6142578-.0498047.7568359-.1494141.0996094-.0683594.1503906-.1679688.1503906-.2988281l-.0097656-.5507812c0-.4106445.0429688-.6723633.1308594-.7841797.0556641-.0185547.1054688-.027832.1494141-.027832.0556641,0,.0996094.0185547.1298828.0556641.0507812.0683594.0751953.1523438.0751953.2524414v.2426758l.0097656.6254883v1.4750977l.0273438,2.4555664Z"/>
      <path class="cls-1" d="m4.3076172,55.9135742c.0537109.0620117.0878906.1152344.0996094.1586914.03125.105957.0566406.2861328.0751953.5415039.0371094.6040039.09375.9775391.1679688,1.1206055.125.0869141.2998047.1308594.5244141.1308594l.6542969-.0092773,2.3759766.0092773,1.1220703-.019043,2.3476562.0097656,2.6650391-.046875c.6367188-.0063477.9951172-.046875,1.0761719-.121582.1181641-.1118164.1865234-.4448242.2050781-.9990234.0058594-.2363281.0253906-.4448242.0566406-.6254883.0429688-.0810547.0996094-.121582.1679688-.121582.0498047,0,.1083984.015625.1777344.046875.0302734.0561523.0458984.105957.0458984.1494141,0,.0869141-.0029297.1928711-.0087891.3173828-.0371094.3671875-.0566406.7470703-.0566406,1.1391602l.0195312.690918-.0380859,1.6435547c0,.8217773.0097656,1.4624023.0283203,1.9233398.0185547.4604492.0273438.7719727.0273438.9335938,0,.1430664-.0117188.4980469-.0371094,1.0644531l.0097656,1.3261719-.0283203.1586914.0283203.7749023-.046875.0932617c-.0498047.03125-.1025391.0527344-.1582031.0654297-.0878906,0-.2216797-.0141602-.4023438-.0419922-.1796875-.0283203-.2919922-.0419922-.3359375-.0419922-.6474609,0-1.1953125.0214844-1.6425781.0654297-.0380859-.0063477-.0625-.0249023-.0751953-.0551758,0-.0668945.0087891-.128418.0283203-.1831055.1181641-.0683594.3261719-.1601562.625-.2753906s.6445312-.2885742,1.0371094-.519043c.2607422-.1557617.4160156-.2768555.4667969-.3642578.0488281-.0874023.0742188-.2680664.0742188-.5419922,0-.0561523.0058594-.3393555.0185547-.8500977.0068359-.137207.0097656-.2709961.0097656-.4018555l-.0556641-2.6630859v-.2333984c0-.3427734-.0439453-.5483398-.1308594-.6166992-.1503906-.105957-.5888672-.1586914-1.3164062-.1586914-.0751953,0-.8222656.0151367-2.2412109.0463867h-1.2978516c-.0195312.0683594-.0283203.1430664-.0283203.2241211v.1586914c0,.105957-.0029297.2617188-.0087891.4667969-.0126953.3237305-.0195312.5419922-.0195312.6538086,0,.074707.0039062.1401367.0097656.1962891.0244141.671875.0371094,1.5371094.0371094,2.5957031.0566406.3295898.1210938.5224609.1962891.5786133.1123047.0932617.4042969.1635742.8779297.2099609.4726562.046875.7402344.1508789.8027344.3129883,0,.0810547-.015625.1557617-.046875.2241211-.0498047.012207-.0966797.0185547-.1396484.0185547-.0439453,0-.1152344-.0063477-.2148438-.0185547-.2304688-.03125-.9521484-.046875-2.1660156-.046875-.3242188,0-.6845703.0170898-1.0830078.0517578-.3984375.0336914-.6132812.0512695-.6445312.0512695-.0566406,0-.1308594-.0092773-.2246094-.0283203-.0244141-.0498047-.0371094-.090332-.0371094-.1210938v-.0654297c.1738281-.0996094.4453125-.1962891.8125-.2895508.6289062-.1621094,1.0224609-.331543,1.1816406-.5087891.1582031-.1772461.2373047-.465332.2373047-.8637695,0-.0874023-.0048828-.2460938-.0136719-.4760742-.0097656-.2304688-.0146484-.5727539-.0146484-1.0273438v-.6069336c0-.8652344-.0185547-1.4316406-.0556641-1.6992188l-.3085938-.0092773-1.7207031.0092773-1.0849609-.0092773-1.0566406.0092773c-.6367188.0063477-1.0039062.046875-1.1035156.121582-.1376953.1054688-.2060547.3359375-.2060547.690918l.0087891.5693359c0,.0498047-.0039062.2441406-.0136719.5834961s-.0136719.7578125-.0136719,1.2558594c0,1.2016602.0507812,2.0014648.1542969,2.3999023.1025391.3984375.2851562.7265625.5478516.9848633s.8271484.5834961,1.6962891.9760742c.2558594.1181641.3837891.2363281.3837891.3544922,0,.0561523-.0253906.1181641-.0751953.1870117-.6162109-.1806641-1.0205078-.2836914-1.2128906-.3081055-.4365234-.0688477-.8808594-.109375-1.3359375-.121582-.2050781,0-.3769531-.0498047-.5136719-.1494141v-.2055664l-.0273438-2.6235352.0087891-1.1762695-.0371094-2.8012695v-1.1391602c0-.1435547-.0029297-.2773438-.0087891-.4013672-.0507812-1.1206055-.0751953-1.9453125-.0751953-2.4746094,0-.0932617.0146484-.1572266.0458984-.1914062.0292969-.0341797.0751953-.0512695.1367188-.0512695l.0908203.0092773Z"/>
      <path class="cls-1" d="m15.6865234,75.4189453c-.4111328.0498047-.6474609.074707-.7099609.074707l-.8300781-.0371094c-.3554688-.0126953-.5820312-.0283203-.6816406-.046875-.0253906-.0561523-.0371094-.1025391-.0371094-.1401367l.0175781-.0839844c.8720703-.1992188,1.5068359-.5366211,1.9052734-1.0131836.3984375-.4760742.5976562-1.0566406.5976562-1.7412109,0-.7094727-.1992188-1.2915039-.5976562-1.7460938-.3984375-.4541016-.8623047-.6816406-1.3916016-.6816406-.4042969,0-.7744141.1586914-1.1103516.4765625-.3369141.3173828-.8398438,1.1293945-1.5087891,2.4370117-.515625.9956055-.9355469,1.7084961-1.2636719,2.1381836-.3261719.4291992-.7050781.7529297-1.1347656.9707031-.4306641.2177734-.9101562.3271484-1.4394531.3271484-.6669922,0-1.2929688-.1728516-1.8789062-.5185547-.5859375-.3452148-1.0263672-.8105469-1.3222656-1.3959961-.2958984-.5849609-.4443359-1.3598633-.4443359-2.324707,0-.840332.1337891-1.6464844.4013672-2.418457.1621094-.4541016.2929688-.7314453.3925781-.8310547s.2050781-.1494141.3173828-.1494141c.0683594,0,.1552734.0063477.2617188.019043.734375.0869141,1.3378906.1337891,1.8115234.1401367.2919922.012207.4628906.0336914.5136719.0649414.0429688.0249023.0644531.0717773.0644531.1401367,0,.0561523-.0195312.1010742-.0605469.1352539-.0400391.0341797-.1162109.0576172-.2285156.0703125-.765625.0683594-1.4501953.4233398-2.0546875,1.0644531-.6035156.6347656-.9052734,1.3540039-.9052734,2.1567383,0,.4916992.1025391.9443359.3076172,1.3583984.2060547.4140625.5029297.737793.8925781.9711914.3886719.2333984.7666016.3500977,1.1347656.3500977.5039062,0,.9638672-.1772461,1.3808594-.5322266.4179688-.3544922.9042969-1.0673828,1.4619141-2.1381836.5566406-1.0708008.9628906-1.7675781,1.2177734-2.0913086.4179688-.5229492.859375-.9150391,1.3261719-1.1767578.3613281-.1928711.78125-.2890625,1.2607422-.2890625.8652344,0,1.5986328.3422852,2.1992188,1.0268555s.9003906,1.6030273.9003906,2.7543945c0,.6352539-.0712891,1.1826172-.2138672,1.6435547-.1123047.3359375-.296875.6816406-.5517578,1.0361328Z"/>
      <path class="cls-1" d="m14.7158203,77.4916992l1.4101562.3828125c.1865234.0249023.3056641.059082.359375.1030273.0527344.043457.0791016.0932617.0791016.1494141,0,.1118164-.1337891.2392578-.4013672.3828125-.1933594.1054688-.3164062.1928711-.3691406.2612305s-.0888672.1679688-.1074219.2988281l.0097656.0932617-.0380859.4018555-.0273438,2.203125.0087891,2.6054688v.765625l.0273438,1.4472656c0,.0620117-.0058594.1396484-.0185547.2333984-.0371094.4228516-.0546875.6845703-.0546875.7841797,0,.0932617.0302734.1679688.0917969.2241211.0234375.0185547.2285156.1210938.6162109.3081055.1748047.0805664.2626953.1806641.2626953.2988281,0,.0498047-.0126953.1118164-.0371094.1865234-.1230469.03125-.234375.046875-.3339844.046875l-.3701172-.0092773-.7880859.0092773c-.1914062,0-.8085938-.015625-1.8525391-.046875-.0683594,0-.1298828-.012207-.1855469-.0371094-.0429688-.0688477-.0644531-.1279297-.0644531-.1777344s.0224609-.0932617.0693359-.1303711c.0458984-.0375977.1894531-.0839844.4296875-.1401367.5556641-.1245117.9541016-.2802734,1.1943359-.4667969.1542969-.1245117.265625-.3037109.3330078-.5371094.0683594-.2333984.1025391-.7919922.1025391-1.6757812v-1.578125c-.2490234-.0126953-.4775391-.0185547-.6826172-.0185547l-5.8037109.074707c-.2304688,0-.6660156-.0126953-1.3076172-.0375977l-1.2431641.0092773-.6914062-.0092773c-.2177734,0-.3740234.0375977-.4677734.1123047s-.1835938.2768555-.2705078.6069336c-.1435547.5727539-.2304688.9555664-.2617188,1.1484375-.0126953.1181641-.0380859.2148438-.0751953.2895508h-.2792969l.0332031-1.3261719c.0048828-.7280273.0185547-1.2758789.0410156-1.6430664l-.0654297-1.3632812-.0556641-.9990234c0-.2802734.0058594-.4516602.0185547-.5136719l.0556641-.1308594c.1435547.0126953.2353516.0405273.2753906.0839844.0410156.043457.0732422.1586914.0986328.3457031.0371094.2612305.1035156.5693359.2001953.9243164s.1943359.5883789.2949219.7001953c.0556641.0625.1484375.105957.2792969.1308594.2744141.0561523.8125.0839844,1.6152344.0839844h1.5878906l3.4638672-.0371094.7470703-.0375977,2.4931641-.0092773v-1.503418c0-.8964844-.0546875-1.440918-.1630859-1.6337891-.1699219-.3051758-.6640625-.7597656-1.4853516-1.3632812-.3076172-.1992188-.4619141-.3735352-.4619141-.5229492l.0185547-.0839844c.0371094-.0249023.0712891-.0371094.1025391-.0371094.0751953,0,.2988281.0493164.671875.1489258.4794922.1245117.8037109.1992188.9716797.2241211Z"/>
    </g>
  </g>
</svg>