<?xml version="1.0" encoding="UTF-8"?>
<svg id="_レイヤー_2" data-name="レイヤー 2" xmlns="http://www.w3.org/2000/svg" viewBox="0 0 245.7485352 111.8383789">
  <defs>
    <style>
      .cls-1 {
        fill: #b2b2e8;
      }
    </style>
  </defs>
  <g id="_レイヤー_1-2" data-name="レイヤー 1">
    <g>
      <path d="m100.2866211,69.3574219s.7949219.6147461,1.3046875,1.0800781c-.0292969.1645508-.1796875.2397461-.3896484.2397461h-12.8994141l-.1347656-.4350586h5.0244141c-.0751953-.0297852-.1650391-.074707-.2402344-.1347656-.0595703-.465332-.4345703-1.0800781-.7646484-1.4399414l.1650391-.1049805c1.8144531.4648438,1.7402344,1.4848633,1.2148438,1.6796875h2.2802734c.2392578-.4951172.4794922-1.1547852.6298828-1.6650391l1.4550781.3452148c-.0605469.1801758-.2402344.3149414-.5703125.3149414-.2705078.3149414-.6601562.6748047-1.0498047,1.0048828h3.2392578l.7353516-.8847656Zm-11.5195312-6.5546875h5.625v-1.3500977l1.5595703.1650391c-.0302734.2099609-.1953125.3598633-.5400391.4047852v.7802734h3.7197266l.7050781-.8701172s.8251953.6000977,1.3349609,1.0649414c-.0449219.1650391-.1943359.2397461-.4052734.2397461h-5.3544922v1.3203125h2.7304688l.6748047-.8100586s.7792969.5698242,1.2744141.9897461c-.0449219.1650391-.1796875.2402344-.4042969.2402344h-9.6748047l-.1201172-.4199219h4.5v-1.3203125h-5.4902344l-.1347656-.4345703Zm9.9746094,8.2792969l1.1552734.8852539c-.0908203.1049805-.3154297.2099609-.5703125.2548828v2.5649414c-.0146484.0898438-.5097656.2998047-.8251953.2998047h-.1494141v-.6450195h-6.7949219v.4501953c0,.0898438-.4501953.3149414-.8554688.3149414h-.1201172v-4.034668l1.0507812.4799805h6.5839844l.5253906-.5703125Zm-.7050781-2.0395508v-.5102539h-6.2695312v.3452148c0,.0898438-.4501953.2998047-.8398438.2998047h-.1503906v-3.6147461l1.0654297.4648438h6.0742188l.5097656-.5546875,1.1699219.8696289c-.0898438.1049805-.3144531.2250977-.5693359.2700195v2.1298828c-.015625.090332-.5097656.300293-.8398438.300293h-.1503906Zm.3154297,4.949707v-1.8901367h-6.7949219v1.8901367h6.7949219Zm-.3154297-5.8950195v-1.6196289h-6.2695312v1.6196289h6.2695312Z"/>
      <path d="m106.5571289,63.9873047c.7050781.0454102,1.109375-.0449219,2.0400391-.5395508.375-.1953125.7050781.3149414.7792969.5698242.0908203.2397461-.1650391.5249023-.75.6601562-.6445312.1499023-1.3642578,1.2749023-2.0244141,2.6694336-.7802734,1.6352539-1.7099609,4.7700195.6298828,5.8349609,2.1748047.9750977,4.2900391-.6298828,4.7246094-2.0400391.7050781-2.25.4501953-5.8344727.3603516-6.3447266-.0751953-.449707-.4648438-1.574707-.5097656-1.7700195-.0302734-.1948242-.0302734-.7797852.4794922-.7045898.5400391.0600586.4951172.5249023.5703125,1.199707.3896484,3.1948242,2.1748047,4.3647461,3.0898438,5.1450195.2851562.2548828.4345703.8999023,0,1.0795898-.4501953.2099609-.7802734-.2548828-.9599609-.4047852-.5097656-.4350586-.9150391-1.125-1.2451172-1.7099609-.4052734-.7348633-.7353516-1.4848633-1.0195312-2.2646484.3447266,2.4448242.4345703,4.4248047-.1953125,6.359375-1.2900391,4.0048828-7.6650391,3.7202148-7.5302734-.8999023.0908203-3.1645508,2.8798828-6.2548828,2.5654297-6.1494141-.4355469.1347656-.9746094.1499023-1.4248047-.1352539-.2705078-.1801758-.4804688-.5551758-.4355469-.6601562.0449219-.1196289.375.0751953.8554688.1049805Zm7.3945312-1.3046875c.2246094.0297852,1.6347656.2998047,1.7548828,1.2148438.0302734.2998047-.0302734.4501953-.2099609.5249023-.1796875.090332-.5253906.0302734-.7353516-.3149414-.2246094-.3598633-.6142578-.9150391-1.0048828-1.1098633-.1494141-.0600586-.359375-.1499023-.3447266-.2548828.0302734-.1352539.3300781-.090332.5400391-.0600586Zm.9902344-1.2597656c.2246094,0,1.6943359.0595703,1.9199219.9897461.0595703.2548828-.0605469.3598633-.1503906.4199219-.1650391.1049805-.4794922.1049805-.734375-.1948242-.2851562-.300293-.75-.7651367-1.1708984-.8701172-.1640625-.0449219-.3896484-.0898438-.3896484-.1948242.015625-.1352539.3300781-.1499023.5253906-.1499023Z"/>
    </g>
    <g>
      <path d="m91.8666992,95.6220703c0-5.3037109,0-6.2553711-.0683594-7.3432617-.0683594-1.15625-.3398438-1.7001953-1.4619141-1.9379883-.2714844-.0678711-.8496094-.1020508-1.15625-.1020508-.1357422,0-.2714844-.0678711-.2714844-.2041016,0-.2036133.1699219-.2719727.5439453-.2719727,1.5302734,0,3.5693359.1020508,3.8417969.1020508.7480469,0,2.7197266-.1020508,4.2832031-.1020508,4.25,0,5.7792969,1.4282227,6.3232422,1.9379883.7480469.7138672,1.7001953,2.2436523,1.7001953,4.4536133,0,4.4194336-3.5361328,7.6831055-8.3632812,7.6831055-.1699219,0-.5439453,0-.7138672-.0336914-.1699219,0-.3740234-.0683594-.3740234-.2382812,0-.2719727.2041016-.3056641.9179688-.3056641,3.2978516,0,5.8818359-2.2441406,5.8818359-5.8134766,0-.8500977-.1025391-3.1279297-1.9042969-4.9638672-1.8017578-1.8354492-3.8759766-1.699707-4.6572266-1.699707-.578125,0-1.15625.0678711-1.4619141.2041016-.2041016.0678711-.2724609.3061523-.2724609.6459961v13.9726562c0,3.2636719,0,5.9492188.1699219,7.3769531.1025391.9858398.3066406,1.7338867,1.3261719,1.8701172.4755859.0678711,1.2236328.1357422,1.5302734.1357422.203125,0,.2714844.1020508.2714844.2041016,0,.1699219-.1699219.2719727-.5439453.2719727-1.8701172,0-4.0117188-.1020508-4.1816406-.1020508-.1015625,0-2.2431641.1020508-3.2636719.1020508-.3740234,0-.5439453-.0678711-.5439453-.2719727,0-.1020508.0683594-.2041016.2724609-.2041016.3056641,0,.7138672-.0678711,1.0195312-.1357422.6796875-.1362305.8496094-.8842773.9863281-1.8701172.1699219-1.4277344.1699219-4.1132812.1699219-7.3769531v-5.9833984Z"/>
      <path d="m115.7006836,103.1352539c0,3.909668.1357422,5.8813477.7138672,6.425293.5439453.4760742,1.2236328.6796875,3.5693359.6796875,1.4960938,0,2.8554688,0,3.6035156-.9516602.3398438-.5102539.578125-1.1899414.6455078-1.699707.0341797-.2719727.1025391-.4082031.2724609-.4082031.1357422,0,.2041016.1020508.2041016.4418945,0,.340332-.2041016,2.277832-.4082031,3.0600586-.2041016.6796875-.1699219.8496094-1.8017578.8496094-2.3115234,0-4.8613281-.1699219-8.2607422-.1699219-1.1220703,0-1.8017578.1020508-2.9921875.1020508-.3398438,0-.5439453-.0678711-.5439453-.2719727,0-.1020508.1025391-.2041016.3740234-.2041016.2724609,0,.5439453,0,.8164062-.0678711.5771484-.1020508.78125-.7817383.8837891-1.5981445.2041016-1.2915039.1357422-3.637207.1357422-6.2548828v-5.0996094c0-4.487793,0-5.2353516-.0683594-6.1533203-.0673828-.9521484-.2041016-1.5639648-1.359375-1.7001953-.2041016-.0336914-.578125-.0336914-.8496094-.0336914-.2382812,0-.3740234-.1020508-.3740234-.2382812,0-.1699219.1699219-.237793.5097656-.237793,1.4277344,0,3.4677734.1020508,3.5351562.1020508.4765625,0,2.5498047-.1020508,3.5019531-.1020508.3398438,0,.4423828.1020508.4423828.237793,0,.1362305-.1708984.2382812-.3740234.2382812-.2382812,0-.578125.0336914-.9179688.0678711-.9521484.1357422-1.15625.6796875-1.2246094,1.6660156-.0673828.9179688-.0332031,1.6655273-.0332031,6.1533203v5.1674805Z"/>
      <path d="m130.7280273,97.9677734c0-4.4536133,0-5.2695312-.0683594-6.1875-.0673828-.9521484-.3056641-1.4277344-1.2919922-1.6318359-.203125-.0341797-.5439453-.0678711-.8154297-.0678711-.2382812,0-.4423828-.1020508-.4423828-.2041016,0-.2041016.1699219-.2719727.5107422-.2719727.6796875,0,1.5976562.0678711,3.5009766.1020508.1699219,0,6.2216797,0,6.9013672-.0341797.6796875-.0336914,1.0537109-.0678711,1.3261719-.1699219.2041016-.0678711.2382812-.1020508.3740234-.1020508.0673828,0,.1357422.0683594.1357422.2382812,0,.2036133-.2041016.6796875-.2714844,1.5297852-.0341797.5776367-.0683594,1.121582-.1025391,1.7675781,0,.3061523-.0683594.5102539-.2382812.5102539s-.2373047-.1362305-.2373047-.3740234c-.0341797-.5102539-.1357422-.8500977-.2382812-1.0878906-.2041016-.6801758-.5097656-.9179688-2.2099609-1.0200195-.4414062-.0341797-3.8076172-.0678711-3.875-.0678711-.1025391,0-.1699219.0678711-.1699219.2719727v7.7172852c0,.2036133.0332031.3398438.203125.3398438.4082031,0,3.8759766-.0341797,4.5898438-.1020508.7822266-.0341797,1.2919922-.1362305,1.5644531-.5097656.1357422-.2041016.2373047-.2719727.3730469-.2719727.0683594,0,.1367188.0336914.1367188.2036133,0,.1704102-.1367188.815918-.2382812,1.8022461-.1015625.9516602-.1015625,1.6318359-.1357422,2.0737305-.0341797.2719727-.1025391.3735352-.2382812.3735352-.1699219,0-.2041016-.2036133-.2041016-.4418945,0-.2036133-.0341797-.5439453-.1015625-.815918-.1367188-.4418945-.3398438-.9179688-1.6318359-1.0195312-.7822266-.0683594-3.5361328-.1362305-4.0800781-.1362305-.2041016,0-.2373047.1020508-.2373047.237793v2.4819336c0,1.0541992-.0341797,4.0454102,0,4.6235352.0673828,1.2578125.2373047,1.9038086.9511719,2.2099609.5097656.237793,1.3261719.3056641,2.4824219.3056641.6455078,0,1.7333984.0341797,2.5830078-.2036133,1.0205078-.3061523,1.2578125-.9858398,1.5302734-2.2441406.0683594-.3398438.1699219-.4755859.3056641-.4755859.2041016,0,.2041016.3056641.2041016.5097656,0,.237793-.2714844,2.3798828-.3740234,2.9575195-.1357422.6801758-.3740234.7480469-1.4960938.7480469-2.2431641,0-3.1953125-.0678711-4.3847656-.0678711-1.1904297-.0341797-2.7539062-.1020508-4.0117188-.1020508-.7822266,0-1.4277344.1020508-2.2441406.1020508-.3056641,0-.4755859-.0678711-.4755859-.237793,0-.1362305.1357422-.2382812.3056641-.2382812.2041016,0,.4423828-.0341797.6796875-.1020508.6123047-.1357422,1.0205078-.5776367,1.0878906-2.6855469.0341797-1.1557617.0683594-2.5498047.0683594-5.1333008v-5.0996094Z"/>
      <path d="m150.6518555,103.1689453c-.1699219,0-.2724609.1020508-.3398438.2719727l-1.4960938,4.2495117c-.3398438.9521484-.578125,1.8701172-.578125,2.4140625,0,.6118164.3740234.8837891,1.1220703.8837891h.2382812c.3056641,0,.4072266.1020508.4072266.2382812,0,.1699219-.2714844.237793-.5097656.237793-.7480469,0-2.3115234-.1020508-2.6855469-.1020508-.3398438,0-1.8359375.1020508-3.2636719.1020508-.3740234,0-.5439453-.0678711-.5439453-.237793,0-.1362305.1357422-.2382812.4082031-.2382812.1699219,0,.4755859,0,.6796875-.0341797,1.4619141-.1357422,2.0400391-1.2578125,2.6171875-2.6855469l6.7998047-17.9160156c.3740234-.9858398.4755859-1.15625.7138672-1.15625.1699219,0,.3056641.1362305.6796875,1.0878906.4765625,1.1220703,5.0996094,12.9868164,6.9013672,17.2363281,1.1220703,2.6860352,2.1083984,3.1279297,2.5839844,3.2978516.4423828.1699219.9179688.1699219,1.15625.1699219.2373047,0,.4072266.0678711.4072266.2382812,0,.1699219-.1357422.237793-.5097656.237793-.3398438,0-2.8896484,0-5.1669922-.0678711-.6464844-.0341797-.8505859-.0683594-.8505859-.2382812,0-.1020508.1025391-.2041016.2382812-.237793.1357422-.0678711.3398438-.237793.1357422-.7480469l-2.6855469-6.8334961c-.0683594-.1015625-.1357422-.1699219-.2714844-.1699219h-6.1875Zm5.7792969-1.1894531c.1357422,0,.1357422-.1020508.1015625-.2041016l-2.6855469-7.5131836c-.1699219-.4760742-.2041016-.4760742-.3740234,0l-2.5498047,7.5131836c-.0673828.1357422,0,.2041016.0683594.2041016h5.4394531Z"/>
      <path d="m168.3999023,111.090332c-.4414062-.2041016-.4414062-.3398438-.4414062-1.1557617,0-1.5639648.1015625-2.7197266.1357422-3.1958008.0341797-.3061523.1015625-.4760742.2714844-.4760742.1708984,0,.2382812.1020508.2382812.3398438,0,.2041016,0,.6123047.1025391,1.0200195.4414062,2.2099609,2.4472656,3.0600586,4.4189453,3.0600586,2.8222656,0,4.1816406-1.9379883,4.1816406-3.6376953,0-1.9379883-.8837891-3.1279297-3.3652344-5.1337891l-1.3603516-1.0537109c-3.2636719-2.6176758-3.9433594-4.4194336-3.9433594-6.425293,0-3.1279297,2.4814453-5.2358398,6.2890625-5.2358398,1.1904297,0,2.0058594.1020508,2.7539062.2724609.6464844.1357422.9179688.1699219,1.15625.1699219.2373047,0,.3056641.0678711.3056641.2036133,0,.1362305-.1357422,1.3261719-.1357422,3.2978516,0,.5097656-.0683594.7138672-.2382812.7138672s-.2041016-.1357422-.2382812-.3740234c-.0332031-.3056641-.1015625-1.0200195-.4072266-1.5976562-.1699219-.3061523-.9521484-1.5981445-3.8076172-1.5981445-2.0400391,0-3.5703125,1.2241211-3.5703125,3.2636719,0,1.5981445.8164062,2.5839844,3.6376953,4.7255859l.7822266.6123047c3.5361328,2.7197266,4.453125,4.5214844,4.453125,6.9350586,0,1.2241211-.5097656,3.3999023-2.5830078,4.8276367-1.3261719.8496094-2.9580078,1.1899414-4.5898438,1.1899414-1.4277344,0-2.7539062-.1699219-4.0458984-.7480469Z"/>
      <path d="m188.5961914,102.0131836c0,4.1474609.7822266,5.9155273,2.0742188,7.0712891,1.4609375,1.2919922,3.0927734,1.5639648,4.4873047,1.5639648,1.7675781,0,3.3652344-.4760742,4.6572266-1.9716797,1.3603516-1.5639648,1.6660156-4.1479492,1.6660156-7.1054688v-3.6035156c0-4.4536133,0-5.2353516-.0683594-6.1533203-.0673828-.9863281-.1699219-1.4960938-1.2578125-1.6660156-.2382812-.0341797-.6455078-.0678711-.9521484-.0678711-.203125,0-.3398438-.1020508-.3398438-.2041016,0-.2041016.1699219-.2719727.4765625-.2719727,1.4619141,0,3.1611328.1020508,3.2978516.1020508.1699219,0,1.6308594-.1020508,2.5830078-.1020508.3398438,0,.4765625.0678711.4765625.237793,0,.1362305-.1367188.2382812-.3408203.2382812-.203125,0-.2714844,0-.6113281.0336914-.9521484.1020508-1.0878906.7138672-1.15625,1.7001953-.0341797.9179688-.0341797,1.699707-.0341797,6.1533203v3.0253906c0,3.0600586-.3398438,6.7314453-2.7529297,8.8051758-2.2099609,1.8701172-4.3857422,2.0400391-6.2216797,2.0400391-.9521484,0-4.1474609,0-6.3574219-2.0400391-1.4619141-1.3598633-2.515625-3.3994141-2.515625-7.6152344v-4.215332c0-4.487793,0-5.2695312-.1025391-6.1875-.0332031-.9179688-.203125-1.4960938-1.2578125-1.6318359-.203125-.0341797-.6113281-.0678711-.8837891-.0678711-.2373047,0-.3740234-.1020508-.3740234-.2041016,0-.2041016.1367188-.2719727.5097656-.2719727,1.4619141,0,3.2978516.1020508,3.5361328.1020508.2724609,0,2.2773438-.1020508,3.1953125-.1020508.3740234,0,.4765625.0678711.4765625.237793,0,.1704102-.2382812.2382812-.4082031.2382812-.2041016,0-.4755859.0336914-.7480469.0678711-.8154297.1020508-.9521484.6796875-1.0195312,1.6318359-.0341797.9179688-.0341797,1.699707-.0341797,6.1875v4.0454102Z"/>
      <path d="m212.2602539,97.9677734c0-4.487793,0-5.3037109-.0683594-6.2216797s-.3056641-1.4277344-1.359375-1.6318359c-.2041016-.0336914-.5439527-.0678711-.8164062-.0678711-.2382812,0-.3740234-.0678711-.3740234-.2041016,0-.1357422.1025391-.237793.4082031-.237793,1.4619141,0,3.5351562.1020508,3.6035156.1020508.3056641,0,2.6181641-.1020508,3.5693359-.1020508,1.9042969,0,3.9775391.1699219,5.5761719,1.2919922.6455078.4755859,2.0390625,1.8359375,2.0390625,4.1474609,0,1.8696289-.9179688,4.2495117-3.6035156,6.425293,2.4824219,3.0595703,4.5214844,5.5756836,6.2558594,7.3774414,1.6318359,1.6655273,2.6513672,1.9375,3.6035156,2.0737305.2382812.0336914.9521484.0678711,1.0537109.0678711.2724609,0,.3740234.1020508.3740234.2382812,0,.1699219-.1357422.237793-.6123047.237793h-2.3798828c-1.5976562,0-2.3457031-.1020508-3.0927734-.4082031-1.4287109-.6118164-2.4482422-2.1416016-4.2158203-4.4194336-1.3261719-1.6318359-2.6855469-3.4677734-3.2636719-4.1816406-.1357422-.1357422-.2041016-.2041016-.4082031-.2041016l-3.5019531-.0336914c-.1357422,0-.1699219.0336914-.1699219.1699219v.4760742c0,2.7197266,0,5.2011719.1699219,6.425293.1025391.815918.2041016,1.4956055,1.3261719,1.6318359.3398438.0336914.7138672.0678711.9863281.0678711.3056641,0,.4414062.1020508.4414062.2041016,0,.1699219-.1357422.2719727-.4755859.2719727-1.7675781,0-3.671875-.1020508-3.8076172-.1020508-.5439453,0-2.0400391.1020508-2.9580078.1020508-.3398438,0-.4755859-.0678711-.4755859-.2719727,0-.1020508.2040942-.2041016.4082031-.2041016.2373047,0,.4755859,0,.7470703-.0678711.578125-.1020508.7822266-.4760742.8837891-1.2919922.1708984-1.2236328.1367188-4.0117188.1367188-6.5610352v-5.0996094Zm2.6171875,2.4135742c0,.1699219.0341797.3398438.1699219.4082031.4423828.237793,1.8017578.4418945,3.0263672.4418945.7138672,0,1.5634766-.0341797,2.2773438-.5102539,1.0205078-.6459961,1.7001953-2.1416016,1.7001953-4.3173828,0-3.7055664-1.9716797-5.7456055-4.9980469-5.7456055-.8496094,0-1.5634766.0683594-1.9716797.1699219-.1015625.0341797-.2041016.1362305-.2041016.3061523v9.2470703Z"/>
      <path d="m234.9038086,97.9677734c0-4.4536133,0-5.2695312-.0683594-6.1875-.0673828-.9521484-.3056641-1.4277344-1.2919922-1.6318359-.203125-.0341797-.5439453-.0678711-.8154297-.0678711-.2382812,0-.4423828-.1020508-.4423828-.2041016,0-.2041016.1699219-.2719727.5107422-.2719727.6796875,0,1.5976562.0678711,3.5009766.1020508.1699219,0,6.2216797,0,6.9013672-.0341797.6796875-.0336914,1.0537109-.0678711,1.3261719-.1699219.2041016-.0678711.2382812-.1020508.3740234-.1020508.0673828,0,.1357422.0683594.1357422.2382812,0,.2036133-.2041016.6796875-.2714844,1.5297852-.0341797.5776367-.0683594,1.121582-.1025391,1.7675781,0,.3061523-.0683594.5102539-.2382812.5102539s-.2373047-.1362305-.2373047-.3740234c-.0341797-.5102539-.1357422-.8500977-.2382812-1.0878906-.2041016-.6801758-.5097656-.9179688-2.2099609-1.0200195-.4414062-.0341797-3.8076172-.0678711-3.875-.0678711-.1025391,0-.1699219.0678711-.1699219.2719727v7.7172852c0,.2036133.0332031.3398438.203125.3398438.4082031,0,3.8759766-.0341797,4.5898438-.1020508.7822266-.0341797,1.2919922-.1362305,1.5644531-.5097656.1357422-.2041016.2373047-.2719727.3730469-.2719727.0683594,0,.1367188.0336914.1367188.2036133,0,.1704102-.1367188.815918-.2382812,1.8022461-.1015625.9516602-.1015625,1.6318359-.1357422,2.0737305-.0341797.2719727-.1025391.3735352-.2382812.3735352-.1699219,0-.2041016-.2036133-.2041016-.4418945,0-.2036133-.0341797-.5439453-.1015625-.815918-.1367188-.4418945-.3398438-.9179688-1.6318359-1.0195312-.7822266-.0683594-3.5361328-.1362305-4.0800781-.1362305-.2041016,0-.2373047.1020508-.2373047.237793v2.4819336c0,1.0541992-.0341797,4.0454102,0,4.6235352.0673828,1.2578125.2373047,1.9038086.9511719,2.2099609.5097656.237793,1.3261719.3056641,2.4824219.3056641.6455078,0,1.7333984.0341797,2.5830078-.2036133,1.0205078-.3061523,1.2578125-.9858398,1.5302734-2.2441406.0683594-.3398438.1699219-.4755859.3056641-.4755859.2041016,0,.2041016.3056641.2041016.5097656,0,.237793-.2714844,2.3798828-.3740234,2.9575195-.1357422.6801758-.3740234.7480469-1.4960938.7480469-2.2431641,0-3.1953125-.0678711-4.3847656-.0678711-1.1904297-.0341797-2.7539062-.1020508-4.0117188-.1020508-.7822266,0-1.4277344.1020508-2.2441406.1020508-.3056641,0-.4755859-.0678711-.4755859-.237793,0-.1362305.1357422-.2382812.3056641-.2382812.2041016,0,.4423828-.0341797.6796875-.1020508.6123047-.1357422,1.0205078-.5776367,1.0878906-2.6855469.0341797-1.1557617.0683594-2.5498047.0683594-5.1333008v-5.0996094Z"/>
    </g>
    <path class="cls-1" d="m12.8701172,42.9013672c0-23.078125,0-27.2197266-.2954102-31.9541016-.2958984-5.0292969-1.4794922-7.3964844-6.3613281-8.4326172-1.1835938-.2949219-3.6982422-.4433594-5.0297852-.4433594-.5917969,0-1.1835938-.2958984-1.1835938-.8876953C0,.2958984.7397461,0,2.3671875,0c6.6567383,0,15.5327148.4443359,16.7163086.4443359,3.2543945,0,11.8349609-.4443359,18.6396484-.4443359,18.4916992,0,25.1489258,6.2138672,27.515625,8.4326172,3.2548828,3.1064453,7.3969727,9.7636719,7.3969727,19.3789062,0,19.2314453-15.3852539,33.4335938-36.3920898,33.4335938-.7392578,0-2.3666992,0-3.1064453-.1484375-.7397461,0-1.6269531-.2958984-1.6269531-1.0351562,0-1.1835938.887207-1.3310547,3.9941406-1.3310547,14.3496094,0,25.5922852-9.7636719,25.5922852-25.296875,0-3.6982422-.4438477-13.6103516-8.2841797-21.5986328s-16.8642578-7.3964844-20.2670898-7.3964844c-2.5146484,0-5.0297852.2958984-6.3608398.8876953-.8876953.2958984-1.1835938,1.3310547-1.1835938,2.8105469v60.8007812c0,14.2011719,0,25.8886719.7397461,32.1015625.4438477,4.2900391,1.3310547,7.5449219,5.7695312,8.1367188,2.0708008.2958984,5.3251953.5917969,6.6567383.5917969.8876953,0,1.1835938.4433594,1.1835938.8876953,0,.7392578-.7397461,1.1826172-2.3671875,1.1826172-8.1362305,0-17.4560547-.4433594-18.1958008-.4433594-.4438477,0-9.7636719.4433594-14.2016602.4433594-1.6269531,0-2.3666992-.2958984-2.3666992-1.1826172,0-.4443359.2958984-.8876953,1.1831055-.8876953,1.331543,0,3.1069336-.2958984,4.4379883-.5917969,2.9589844-.5917969,3.6987305-3.8466797,4.2905273-8.1367188.7392578-6.2128906.7392578-17.9003906.7392578-32.1015625v-26.0361328Z"/>
  </g>
</svg>