<?xml version="1.0" encoding="UTF-8"?>
<svg id="_レイヤー_2" data-name="レイヤー 2" xmlns="http://www.w3.org/2000/svg" viewBox="0 0 111.8388672 198.9404297">
  <defs>
    <style>
      .cls-1 {
        fill: #c8bcc7;
      }
    </style>
  </defs>
  <g id="_レイヤー_1-2" data-name="レイヤー 1">
    <g>
      <path d="m42.5052869,153.6923828c1.4101562,1.4399414,3.8691406,2.5649414,6.0292969,3.0297852l-.0146484.1650391c-.4052734.074707-.75.375-.8701172.8549805-2.2050781-.7348633-4.3046875-2.1748047-5.5498047-4.0498047h-.1044922v4.1547852c0,.1347656-.4355469.3300781-.8251953.3300781h-.1953125v-4.2001953c-1.484375,1.7099609-3.75,3-6.3300781,3.8251953l-.1347656-.2250977c2.1601562-.9448242,4.0654297-2.3549805,5.2802734-3.8847656h-5.0253906l-.1201172-.4501953h6.3300781v-1.4399414l1.5595703.1801758c-.0292969.2099609-.1640625.3447266-.5390625.4047852v.8549805h4.2294922l.7646484-.9296875s.8554688.6445312,1.3652344,1.1396484c-.0302734.1650391-.1796875.2402344-.3896484.2402344h-5.4599609Zm-3.6455078-4.5297852c-.6748047.5546875-1.7099609,1.3798828-3.0595703,2.3549805-.0302734.1948242-.1201172.3447266-.2548828.4199219l-.8398438-1.1552734c.7197266-.2548828,2.3994141-1.0048828,4.0644531-1.8149414l.0898438.1953125Zm-3.4941406-3.6000977c3.6591797.9750977,3.0292969,3.2548828,1.9042969,2.5800781-.2998047-.8100586-1.3046875-1.8452148-2.0693359-2.4448242l.1650391-.1352539Zm4.6191406,6.1049805c0,.0898438-.3896484.3149414-.7792969.3149414h-.1650391v-6.2700195l1.0195312.465332h.6455078c.1201172-.5253906.2548828-1.2749023.3300781-1.7851562l1.5742188.2851562c-.0595703.2250977-.2392578.3447266-.5546875.3598633-.2246094.3300781-.5703125.7797852-.8398438,1.1401367h1.6650391l.5244141-.6000977,1.2001953.9150391c-.0898438.1049805-.3300781.2250977-.6152344.284668v4.7402344c-.0146484.0898438-.5097656.3295898-.8095703.3295898h-.1503906v-.6298828h-3.0449219v.4501953Zm0-5.0551758v1.8300781h3.0449219v-1.8300781h-3.0449219Zm3.0449219,4.1699219v-1.9047852h-3.0449219v1.9047852h3.0449219Zm1.3652344-1.8447266c4.484375.7197266,4.2900391,3.1347656,3.0449219,2.6699219-.5849609-.8398438-2.0996094-1.9350586-3.1796875-2.4902344l.1347656-.1796875Zm.0449219-.8100586c.7050781-.8100586,1.6347656-1.9951172,2.1455078-2.7446289l1.4248047.8999023c-.0898438.1196289-.2548828.1347656-.4951172.0600586-.6748047.5249023-1.9648438,1.3647461-2.9101562,1.9794922l-.1650391-.1948242Z"/>
      <path d="m61.404701,154.097168c-1.5595703,1.7548828-3.8847656,3.2099609-6.0898438,2.7597656-1.4394531-.2998047-2.2792969-1.199707-2.3242188-3.3295898-.0908203-3.2998047.3896484-4.875.2841797-6.3447266-.0898438-1.0200195-.3447266-1.1552734-.6142578-1.3051758-.1201172-.074707-.1806641-.2700195.1044922-.3149414s.5849609.0151367.8554688.1499023c.5849609.2700195.734375,1.2001953.6748047,1.7250977-.0302734.2700195-.0898438.6899414-.1201172,1.0800781-.2246094,2.0996094-.4199219,3.5546875-.3154297,5.2045898.1054688,1.7402344.8105469,2.0849609,1.9501953,2.2949219.75.1499023,2.3847656.2402344,5.4296875-2.1147461.1201172-.090332.2851562-.2099609.3457031-.1499023.0595703.074707-.0605469.2099609-.1806641.3447266Z"/>
      <path d="m76.8695447,151.4121094c-.1347656,0-.2998047-.1049805-.4951172-.1796875-.1796875-.0898438-.8398438-.2099609-1.1845703-.1499023-.1201172.0146484-.1650391-.0302734-.1650391-.0600586,0-.0751953.0605469-.090332.1650391-.1201172.1054688-.0151367.7949219-.2851562.9003906-.4047852.1044922-.1201172.2099609-.1201172.0898438-.6601562s-.5400391-1.5600586-1.0351562-1.4399414c-.4794922.1201172-.9296875,1.0947266-.9746094,2.3847656-.0302734,1.2749023.2099609,3.1499023.3144531,3.4501953.1201172.2998047.2998047.8398438.2998047,1.2749023,0,.6450195-.2548828,1.7246094-3.734375,1.9345703-1.0351562.0751953-3.3896484-.074707-3.4648438-1.4995117-.0302734-.4350586.1044922-1.125.2402344-1.6352539-.6005859-.3901367-1.5449219-1.5898438-1.2753906-3.2246094.1503906-.9599609,1.1699219-1.6201172,1.9345703-1.425293.015625-.4199219.0302734-.9296875.0302734-1.4399414-.6748047.1650391-1.3496094.2700195-1.7402344.1352539-.4794922-.1801758-.8544922-.9448242-.9140625-1.0800781-.0605469-.1347656-.015625-.1801758,0-.1948242.0595703-.0302734.1191406.0297852.1943359.1196289.0605469.0751953.4804688.4804688,1.125.4204102.1953125-.0151367.7197266-.0751953,1.3349609-.2402344,0-.4799805-.0146484-.8549805-.0302734-1.0048828-.0292969-.375-.0742188-.6601562-.5693359-1.0649414-.1953125-.1499023-.3154297-.1801758-.2705078-.2700195.1054688-.2700195.9755859-.1201172,1.2148438.0151367.3007812.1650391.5253906.4199219.5703125.7949219.0146484.1347656-.0146484.3300781-.0751953.5849609.2099609.074707.4648438.1499023.7050781.1796875.5400391.0600586.7353516.0600586.7949219.3154297.0605469.2397461-.0595703.4946289-.375.6445312-.1347656.0600586-.7050781.2851562-1.3798828.4799805-.0595703.6303711-.1201172,1.3500977-.1650391,1.8603516.1953125.1796875.4052734.4648438.3603516.824707-.0898438.6298828-.1953125.5249023-.3447266,1.2299805-.2402344,1.0498047-.0751953,2.0849609-.2705078,2.324707-.1347656.1650391-.1796875.2104492-.4052734.1650391-.1191406.6303711-.1494141,1.3051758.1357422,1.6049805.4794922.465332,1.9199219.4799805,2.5341797.4350586.5400391-.0449219,2.8955078-.1049805,2.9404297-1.6948242.0449219-1.7099609-.1054688-3.2700195-.0449219-4.0200195.0449219-.75.3300781-2.7597656,1.5742188-2.7749023,1.2607422-.0146484,1.8154297,1.7402344,1.9052734,2.625.0751953.6000977-.3447266.7797852-.4501953.7797852Zm-8.5644531.0600586c.0449219-.5097656.2548828-1.5146484-.4794922-1.3496094-.6298828.1347656-.7949219.8095703-.8398438,1.2749023-.0458984.5996094.2392578,1.6049805.7490234,1.7397461.390625.0898438.5253906-1.125.5703125-1.6650391Zm.9003906-4.3198242c.0742188-.0297852.1650391-.074707.2548828-.1049805.1201172-.0600586.2548828-.1347656-.0302734-.2998047-.0449219-.0151367-.0898438-.0449219-.1503906-.0751953v.0454102c-.0292969.0898438-.0595703.2397461-.0742188.4345703Z"/>
    </g>
    <g>
      <path d="m4.6489258,182.6220703c0-5.3037109,0-6.2553711-.0683594-7.3432617-.0683594-1.15625-.3398437-1.7001953-1.4619141-1.9379883-.2714844-.0678711-.8496094-.1020508-1.15625-.1020508-.1357422,0-.2714844-.0678711-.2714844-.2041016,0-.2036133.1699219-.2719727.5439453-.2719727,1.5302734,0,3.671875.1020508,3.8417969.1020508.3740234,0,2.9570312-.1020508,4.0117188-.1020508,2.1416016,0,4.4189453.2041016,6.2207031,1.4960938.8505859.6118164,2.3457031,2.277832,2.3457031,4.6235352,0,2.515625-1.0537109,5.03125-4.1132988,7.8530273,2.7881035,3.5698242,5.0996269,6.5957031,7.0713066,8.703125,1.8359375,1.9379883,3.2978516,2.3120117,4.1474609,2.4477539.6464844.1020508,1.1220703.1020508,1.3261719.1020508.1699219,0,.3056641.1020508.3056641.2041016,0,.2041016-.2041016.2719727-.8154297.2719727h-2.4140625c-1.9033203,0-2.7539062-.1699219-3.6376953-.6459961-1.4619141-.7817383-2.6513672-2.4477539-4.5898438-4.9975586-1.4277344-1.8696289-3.0253906-4.1474609-3.7050781-5.03125-.1357422-.1362305-.2382812-.2041016-.4423828-.2041016l-4.1816406-.0678711c-.1699219,0-.2373047.1015625-.2373047.2719727v.815918c0,3.2636719,0,5.9492188.1699219,7.3769531.1015625.9858398.3056641,1.7338867,1.3251953,1.8701172.4765625.0678711,1.2246094.1357422,1.5302734.1357422.2041016,0,.2714844.1020508.2714844.2041016,0,.1699219-.1699219.2719727-.5439453.2719727-1.8691406,0-4.0107422-.1020508-4.1806641-.1020508-.0341797,0-2.1757812.1020508-3.1962891.1020508-.3740234,0-.5439453-.0678711-.5439453-.2719727,0-.1020508.0683594-.2041016.2724609-.2041016.3056641,0,.7138672-.0678711,1.0195312-.1357422.6796875-.1362305.8496094-.8842773.9863281-1.8701172.1699219-1.4277344.1699219-4.1132812.1699219-7.3769531v-5.9833984Zm2.7197266,2.9575195c0,.1699219.0673828.3061523.2373047.4077148.5107422.3061523,2.0742188.5439453,3.5703125.5439453.8154297,0,1.7675781-.1015625,2.5498047-.6455078,1.1894531-.815918,2.0732422-2.6518555,2.0732422-5.2358398,0-4.2495117-2.2431641-6.7993164-5.8808594-6.7993164-1.0205078,0-1.9384766.1020508-2.2783203.2041016-.1699219.0678711-.2714844.2041016-.2714844.4082031v11.1166992Z"/>
      <path d="m30.284668,182.6220703c0-5.3037109,0-6.2553711-.0683594-7.3432617-.0683594-1.15625-.3398438-1.7001953-1.4619141-1.9379883-.2382812-.0678711-.6796875-.0678711-.9853516-.1020508-.2382812-.0336914-.4423828-.0678711-.4423828-.2041016,0-.2036133.1699219-.2719727.5439453-.2719727.7822266,0,1.7001953,0,3.8417969.1020508.2373047,0,7.0029297,0,7.7851562-.0336914.7480469-.0341797,1.359375-.1020508,1.5634766-.2041016s.2724609-.1362305.3740234-.1362305c.1025391,0,.1357422.1362305.1357422.3061523,0,.237793-.2041016.6459961-.2714844,1.5976562-.0341797.5102539-.0683594,1.15625-.1357422,2.0400391-.0341797.3398438-.1367188.578125-.2724609.578125-.2041016,0-.2714844-.1704102-.2714844-.4423828,0-.4418945-.0683594-.8496094-.1699219-1.121582-.2382812-.7822266-.9521484-1.1220703-2.4482422-1.2578125-.578125-.0683594-4.2832031-.1020508-4.6572266-.1020508-.1357422,0-.2041016.1020508-.2041016.3398438v9.3828125c0,.2382812.0341797.340332.2041016.340332.4414062,0,4.6230469,0,5.4052734-.0678711.9179688-.0683594,1.359375-.1704102,1.7001953-.578125.1699219-.2041016.2714844-.3398438.4072266-.3398438.1025391,0,.1699219.0678711.1699219.2719727,0,.2036133-.1699219.7817383-.2714844,1.9038086-.1025391,1.0537109-.1025391,1.8354492-.1357422,2.3115234-.0341797.3398438-.1025391.5097656-.2382812.5097656-.2041016,0-.2382812-.2714844-.2382812-.5439453,0-.3056641-.0341797-.6455078-.1357422-.9516602-.1357422-.5097656-.5439453-.9858398-1.7675781-1.1220703-.9179688-.1020508-4.2841797-.1699219-4.8613281-.1699219-.1699219,0-.2382812.1020508-.2382812.2382812v2.9916992c0,1.1557617-.0341797,5.0991211,0,5.8134766.0683594,1.3935547.2714844,2.1416016,1.1220703,2.4814453.5771484.2382812,1.4951172.3061523,2.8212891.3061523,1.0195312,0,2.1416016-.0341797,3.0595703-.3061523,1.0878906-.3398438,1.4619141-1.0537109,1.734375-2.515625.0673828-.3740234.1357422-.5097656.3056641-.5097656.2041016,0,.2041016.2714844.2041016.5097656,0,.2719727-.2724609,2.5834961-.4423828,3.2978516-.2373047.8837891-.5097656.8837891-1.8359375.8837891-2.515625,0-3.6367188-.0683594-4.9628906-.1020508-1.3603516-.0341797-2.9238281-.1020508-4.25-.1020508-.8154297,0-1.6318359.1357422-2.515625.1020508-.3740234,0-.5439453-.0678711-.5439453-.2719727,0-.1020508.1699219-.1699219.3740234-.2041016.3398438-.0341797.5439453-.0341797.7822266-.1020508.7138672-.1699219,1.1552734-.6459961,1.2236328-3.1958008.0341797-1.3256836.0683594-3.0595703.0683594-6.0849609v-5.9833984Z"/>
      <path d="m48.1000977,175.9926758c-.7480469-1.9038086-1.2578125-2.277832-2.4482422-2.6176758-.5097656-.1362305-1.0878906-.1362305-1.2919922-.1362305s-.2714844-.1020508-.2714844-.237793c0-.2041016.3398438-.2382812.8837891-.2382812,1.6318359,0,3.4677734.1020508,3.8759766.1020508.3398438,0,1.8017578-.1020508,3.09375-.1020508.6113281,0,.9169922.0683594.9169922.2382812s-.1015625.237793-.3398438.237793c-.3740234,0-.9853516.0341797-1.2910156.1699219-.3740234.1699219-.4423828.4418945-.4423828.6801758,0,.3056641.3056641,1.2236328.6796875,2.1757812l6.9355469,18.0522461c1.9716797-4.5556641,6.5273438-16.4204102,7.2753906-18.8681641.1699219-.5102539.3056641-.9858398.3056641-1.2919922,0-.2719727-.1015625-.6118164-.4414062-.7817383-.4082031-.1362305-.9179688-.1362305-1.2919922-.1362305-.2041016,0-.3740234-.0336914-.3740234-.2041016,0-.2036133.2041016-.2719727.7480469-.2719727,1.359375,0,2.9238281.1020508,3.3310547.1020508.2041016,0,1.6660156-.1020508,2.6523438-.1020508.3740234,0,.5771484.0683594.5771484.2382812s-.1357422.237793-.4072266.237793c-.2382812,0-.9863281,0-1.6318359.4082031-.4423828.3056641-.9521484.8837891-1.8701172,3.1953125-.3740234.9521484-2.0742188,5.0317383-3.8076172,9.2133789-2.0742188,4.9633789-3.6035156,8.6347656-4.3857422,10.3007812-.9521484,2.0400391-1.0878906,2.5839844-1.4277344,2.5839844-.4082031,0-.578125-.4760742-1.2236328-2.1079102l-8.3291016-20.8398438Z"/>
      <path d="m76.2182617,182.6220703c0-5.3037109,0-6.2553711-.0683594-7.3432617-.0683594-1.15625-.3398438-1.7001953-1.4619141-1.9379883-.2382812-.0678711-.6796875-.0678711-.9853516-.1020508-.2382812-.0336914-.4423828-.0678711-.4423828-.2041016,0-.2036133.1699219-.2719727.5439453-.2719727.7822266,0,1.7001953,0,3.8417969.1020508.2373047,0,7.0029297,0,7.7851562-.0336914.7480469-.0341797,1.359375-.1020508,1.5634766-.2041016s.2724609-.1362305.3740234-.1362305c.1025391,0,.1357422.1362305.1357422.3061523,0,.237793-.2041016.6459961-.2714844,1.5976562-.0341797.5102539-.0683594,1.15625-.1357422,2.0400391-.0341797.3398438-.1367188.578125-.2724609.578125-.2041016,0-.2714844-.1704102-.2714844-.4423828,0-.4418945-.0683594-.8496094-.1699219-1.121582-.2382812-.7822266-.9521484-1.1220703-2.4482422-1.2578125-.578125-.0683594-4.2832031-.1020508-4.6572266-.1020508-.1357422,0-.2041016.1020508-.2041016.3398438v9.3828125c0,.2382812.0341797.340332.2041016.340332.4414062,0,4.6230469,0,5.4052734-.0678711.9179688-.0683594,1.359375-.1704102,1.7001953-.578125.1699219-.2041016.2714844-.3398438.4072266-.3398438.1025391,0,.1699219.0678711.1699219.2719727,0,.2036133-.1699219.7817383-.2714844,1.9038086-.1025391,1.0537109-.1025391,1.8354492-.1357422,2.3115234-.0341797.3398438-.1025391.5097656-.2382812.5097656-.2041016,0-.2382812-.2714844-.2382812-.5439453,0-.3056641-.0341797-.6455078-.1357422-.9516602-.1357422-.5097656-.5439453-.9858398-1.7675781-1.1220703-.9179688-.1020508-4.2841797-.1699219-4.8613281-.1699219-.1699219,0-.2382812.1020508-.2382812.2382812v2.9916992c0,1.1557617-.0341797,5.0991211,0,5.8134766.0683594,1.3935547.2714844,2.1416016,1.1220703,2.4814453.5771484.2382812,1.4951172.3061523,2.8212891.3061523,1.0195312,0,2.1416016-.0341797,3.0595703-.3061523,1.0878906-.3398438,1.4619141-1.0537109,1.734375-2.515625.0673828-.3740234.1357422-.5097656.3056641-.5097656.2041016,0,.2041016.2714844.2041016.5097656,0,.2719727-.2724609,2.5834961-.4423828,3.2978516-.2373047.8837891-.5097656.8837891-1.8359375.8837891-2.515625,0-3.6367188-.0683594-4.9628906-.1020508-1.3603516-.0341797-2.9238281-.1020508-4.25-.1020508-.8154297,0-1.6318359.1357422-2.515625.1020508-.3740234,0-.5439453-.0678711-.5439453-.2719727,0-.1020508.1699219-.1699219.3740234-.2041016.3398438-.0341797.5439453-.0341797.7822266-.1020508.7138672-.1699219,1.1552734-.6459961,1.2236328-3.1958008.0341797-1.3256836.0683594-3.0595703.0683594-6.0849609v-5.9833984Z"/>
      <path d="m99.8129883,188.6733398c0,4.9975586.1357422,7.1733398.7480469,7.7851562.5439453.5439453,1.4277344.7817383,4.0791016.7817383,1.8017578,0,3.2978516-.0336914,4.1142578-1.0195312.4414062-.5439453.78125-1.394043.8837891-2.0400391.0332031-.2719727.1015625-.4418945.3056641-.4418945.1699219,0,.2041016.1362305.2041016.5097656,0,.3740234-.2382812,2.4140625-.5097656,3.3999023-.2382812.7817383-.3398438.9179688-2.1425781.9179688-2.9228516,0-5.8125-.2041016-9.1103516-.2041016-1.0537109,0-2.0742188.1020508-3.3320312.1020508-.3740234,0-.5439453-.0678711-.5439453-.2719727,0-.1020508.0683594-.2041016.2724609-.2041016.3056641,0,.7138672-.0678711,1.0195312-.1357422.6796875-.1362305.8496094-.8842773.9863281-1.8701172.1699219-1.4277344.1699219-4.1132812.1699219-7.3769531v-5.9833984c0-5.3037109,0-6.2553711-.0683594-7.3432617-.0683594-1.15625-.3398438-1.7001953-1.4619141-1.9379883-.2714844-.0678711-.8496094-.1020508-1.15625-.1020508-.1357422,0-.2714844-.0678711-.2714844-.2041016,0-.2036133.1699219-.2719727.5439453-.2719727,1.5302734,0,3.671875.1020508,3.8417969.1020508s2.6513672-.1020508,3.6708984-.1020508c.3740234,0,.5449219.0683594.5449219.2719727,0,.1362305-.1367188.2041016-.2724609.2041016-.2382812,0-.7138672.0341797-1.1220703.1020508-.9853516.1699219-1.2578125.7480469-1.3261719,1.9379883-.0673828,1.0878906-.0673828,2.0395508-.0673828,7.3432617v6.0512695Z"/>
    </g>
    <path class="cls-1" d="m12.8701172,42.9013672c0-23.078125,0-27.2197266-.2958984-31.9541016-.2958984-5.0292969-1.4794922-7.3964844-6.3603516-8.4326172-1.1835938-.2949219-3.6987305-.4433594-5.0302734-.4433594-.5917969,0-1.1835938-.2958984-1.1835938-.8876953C0,.2958984.7397461,0,2.3671875,0c6.6572266,0,15.9765625.4443359,16.7158203.4443359,1.6279297,0,12.8710938-.4443359,17.4570312-.4443359,9.3193359,0,19.2304688.8876953,27.0722656,6.5097656,3.6972656,2.6621094,10.2070312,9.9111328,10.2070312,20.1181641,0,10.9472656-4.5859375,21.8945312-17.9003906,34.1728516,12.1308594,15.5332031,22.1904297,28.6992188,30.7705078,37.8710938,7.9882812,8.4326172,14.3496094,10.0595703,18.0478516,10.6513672,2.8105469.4443359,4.8818359.4443359,5.7695312.4443359.7402344,0,1.3320312.4433594,1.3320312.8876953,0,.8867188-.8886719,1.1826172-3.5507812,1.1826172h-10.5039062c-8.2841797,0-11.9824219-.7392578-15.828125-2.8105469-6.3613281-3.4023438-11.5390625-10.6513672-19.9716797-21.7460938-6.2138672-8.1367188-13.1660156-18.0478516-16.125-21.8945312-.5908203-.5917969-1.0351562-.8876953-1.9228516-.8876953l-18.1953125-.2958984c-.7402344,0-1.0361328.4443359-1.0361328,1.1835938v3.5507812c0,14.2011719,0,25.8886719.7392578,32.1015625.4443359,4.2900391,1.3320312,7.5449219,5.7695312,8.1367188,2.0712891.2958984,5.3261719.5917969,6.6572266.5917969.8876953,0,1.1835938.4433594,1.1835938.8876953,0,.7392578-.7392578,1.1826172-2.3671875,1.1826172-8.1357422,0-17.4560547-.4433594-18.1962891-.4433594-.1474609,0-9.4667969.4433594-13.9052734.4433594-1.6269531,0-2.3666992-.2958984-2.3666992-1.1826172,0-.4443359.2958984-.8876953,1.1831055-.8876953,1.3310547,0,3.1064453-.2958984,4.4384766-.5917969,2.9589844-.5917969,3.6982422-3.8466797,4.2900391-8.1367188.7392578-6.2128906.7392578-17.9003906.7392578-32.1015625v-26.0361328Zm11.8349609,12.8701172c0,.7392578.2958984,1.3310547,1.0361328,1.7753906,2.21875,1.3310547,9.0234375,2.3662109,15.5322266,2.3662109,3.5507812,0,7.6923828-.4433594,11.0947266-2.8105469,5.1777344-3.5498047,9.0244141-11.5390625,9.0244141-22.78125,0-18.4921875-9.7636719-29.5869141-25.5927734-29.5869141-4.4375,0-8.4316406.4433594-9.9111328.8876953-.7392578.2958984-1.1835938.8876953-1.1835938,1.7744141v48.375Z"/>
  </g>
</svg>