<?xml version="1.0" encoding="UTF-8"?>
<svg id="_レイヤー_2" data-name="レイヤー 2" xmlns="http://www.w3.org/2000/svg" viewBox="0 0 192.5380859 209.0117188">
  <defs>
    <style>
      .cls-1 {
        fill: #ede1bf;
      }
    </style>
  </defs>
  <g id="_レイヤー_1-2" data-name="レイヤー 1">
    <g>
      <path d="m72.5410156,163.8037109c-.0302734.2392578-.1347656.3154297-1.0351562.2099609-.6152344-.0751953-2.1298828-.1347656-3.5849609-.1054688-.1650391,4.5302734-1.5742188,6.7050781-4.2597656,8.0546875-.1347656.0761719-.2695312.1054688-.3144531.0302734-.0449219-.0595703,0-.1347656.2392578-.2841797,2.3554688-1.5605469,3.3154297-4.1103516,3.390625-7.7705078-.3154297.0146484-.6298828.0302734-.9003906.0595703-.4345703.03125-.9150391.0908203-1.3945312.1357422,0,.8701172.0146484,1.7841797.0449219,2.0996094.0449219.6298828.1201172,1.3652344-.375,1.4101562-.1806641.0146484-.6748047-.5400391-.5400391-1.3955078.0595703-.4492188.0751953-1.2441406.0595703-1.9941406-1.1542969.1640625-2.1894531.3447266-2.5195312.4345703-.5546875.1503906-.8701172.1357422-1.2900391-.1943359-.4199219-.3154297-.75-.8251953-.6298828-.9453125.0898438-.0751953.2851562.0605469.4501953.1503906.1796875.1044922.734375.2539062,1.5.2392578.4199219-.0146484,1.4248047-.1347656,2.4599609-.2392578-.015625-.6455078-.0605469-1.2011719-.1054688-1.3652344-.0898438-.4199219-.3300781-.7050781-.8095703-.8251953-.1357422-.0449219-.3300781-.0595703-.3007812-.1806641.0302734-.1347656.5107422-.2392578.7802734-.2246094.5253906.015625,1.0048828.0898438,1.3505859.4501953.2246094.2255859-.0751953.5107422-.0751953.7802734v1.2753906c.5693359-.0761719,1.0947266-.1210938,1.4697266-.1503906.2851562-.015625.5703125-.0449219.8251953-.0605469v-.2998047c0-.6005859-.015625-1.2900391-.0751953-1.8154297-.0302734-.2695312-.0449219-.2841797-.2099609-.734375-.1796875-.4501953-.6601562-.5996094-.8105469-.6601562-.1347656-.0595703-.1796875-.0595703-.1347656-.1347656.0898438-.1953125.6455078-.390625,1.0654297-.2402344.6445312.2402344,1.4101562.4804688,1.4248047.8398438.0302734.3603516-.2099609.4199219-.2548828.8554688-.0605469.4345703-.0449219,1.0800781-.0449219,1.7695312v.390625c.5996094-.0302734,1.1992188-.0605469,1.8896484-.1210938.5253906-.0449219.9453125-.4199219,1.2451172-.4042969.7197266.0605469,1.5.5703125,1.4697266.9599609Z"/>
      <path d="m75.9462891,171.4238281c-.0751953.0146484-.1494141.0146484-.1494141-.0302734-.0302734-.0595703.0595703-.1044922.1201172-.1201172,3.5390625-1.5605469,6.1191406-3.6601562,7.9042969-7.3945312.0751953-.1650391.0898438-.2851562.0595703-.3300781-.0449219-.0605469-.1796875-.0751953-.3896484-.0449219-.4951172.0898438-3.5400391.6298828-4.4101562.8554688-.7197266.1796875-.4951172.359375-.9150391.4335938-.4941406.0761719-1.1542969-.359375-1.484375-.75-.1503906-.1640625-.1953125-.5546875-.1054688-.6894531.0751953-.1054688.2998047.0605469.4199219.1054688.2099609.0898438.9755859.2548828,1.9052734.1640625.5253906-.0595703,4.0644531-.5996094,4.5-.6894531.4199219-.0898438.5097656-.3447266.7646484-.4042969.2548828-.0605469.8105469.375,1.0800781.6142578.4951172.4501953.3447266.6152344.2998047.7050781-.1347656.2255859-.6601562.5244141-.9443359,1.0048828-1.7255859,2.9101562-3.8857422,5.2050781-8.6552734,6.5703125Zm8.1601562-10.9355469c.0751953.40625-.1503906.3300781-1.7099609.3154297-.75-.0146484-2.5654297.2402344-3.0751953.4345703-.5097656.1806641-.8398438.2402344-1.2451172-.1044922-.2392578-.2099609-.3896484-.3896484-.4501953-.5400391-.0449219-.1054688-.0595703-.1650391,0-.2246094.0605469-.0449219.2558594.0449219.4951172.1191406.2548828.0761719.6904297.1357422,1.4101562.015625.7050781-.1054688,1.8603516-.3300781,2.2197266-.4199219.3457031-.0898438.375-.3007812.8554688-.3603516.4794922-.0595703,1.4394531.4052734,1.5.7646484Z"/>
      <path d="m91.1269531,161.9589844c.0292969-.1503906.2392578-.1503906.4042969-.1503906.1650391-.0146484,1.0654297.1347656,1.3652344.4804688.0449219.0449219.0898438.1347656.1347656.2402344.4951172-.03125,1.3349609-.1357422,2.2197266-.2402344.0302734-.3603516.0302734-.9902344-.0146484-1.4257812-.0595703-.5693359-.2099609-.6289062-.4052734-.7949219-.2099609-.1494141-.3447266-.1191406-.3447266-.2851562.0146484-.1640625.5097656-.2695312.8554688-.2539062.359375.0146484.6591797.0898438.8691406.2539062.2099609.1806641.2851562.40625.1953125.75-.0595703.2705078-.2099609.6601562-.2099609,1.0800781,0,.2402344,0,.4199219.0146484.5410156,1.1552734-.1503906,2.1904297-.3154297,2.4003906-.3603516.3144531-.0751953.5097656-.3896484.6894531-.3896484.1806641,0,1.140625.5996094,1.2607422.75.1347656.1494141.2392578.2089844.2099609.4042969-.0302734.2099609-.3603516.1796875-.4951172.4052734-.1503906.2099609-.1806641.2841797-.3300781.7050781-1.2597656,3.5996094-2.7597656,6.1201172-7.7695312,7.9492188-.1054688.0458984-.3007812.0908203-.3154297.0302734s.0898438-.1201172.2705078-.1953125c4.9189453-2.4746094,6.2841797-6.1044922,6.7939453-8.5195312.0908203-.4042969.015625-.6152344-.359375-.5703125-.5703125.0605469-4.4248047.6152344-5.3847656.765625.1201172.6445312.1796875,1.484375.2246094,1.859375.0751953.6005859.1201172.9160156.1201172,1.1855469.0146484.2695312-.2099609.5703125-.4199219.6298828s-.7353516-.375-.6904297-.9755859c.1054688-1.0644531-.0898438-2.8789062-.375-3.1943359-.2841797-.3154297-.5546875-.4951172-.6894531-.5244141-.1347656-.03125-.2402344-.0761719-.2246094-.1503906Z"/>
      <path d="m106.4414062,161.1191406c.5400391-.0751953,2.0849609-.0302734,2.9248047.6298828.6005859.4648438.6904297,1.0654297.4501953,1.4091797-.2548828.3457031-.8398438.2255859-1.2304688-.4042969-.4345703-.7050781-1.5449219-1.2451172-2.0839844-1.3945312-.1650391-.0449219-.2705078-.1054688-.2705078-.1660156.0146484-.0449219.1054688-.0595703.2099609-.0742188Zm10.5742188.7050781c.0605469.0742188-.0595703.2539062-.1347656.3447266-2.2197266,3.1044922-5.9248047,6.2841797-7.2294922,7.2001953-.4648438.3144531-.5097656.2841797-.8701172.6738281-.2998047.3300781-.5996094.4052734-.9599609.3300781-.734375-.1796875-1.1845703-.8095703-1.2900391-1.3496094-.1347656-.6152344,0-.8701172.0898438-.9150391.1054688-.0449219.1650391.2998047.375.4794922.1503906.1503906.3457031.390625.8554688.3007812,1.7246094-.2695312,6.5097656-4.3798828,8.8798828-6.9296875.1044922-.1201172.2099609-.1953125.2841797-.1347656Z"/>
      <path d="m123.6318359,159.6035156c.0292969-.1191406.1347656-.1494141.4042969-.2089844.6298828-.1210938.9902344.0292969,1.2304688.2841797.2548828.2402344.1650391.4951172.1347656.7050781-.0302734.2255859-.1201172.6601562-.1201172,1.1845703,0,.1660156-.0146484.9755859-.0302734,2.0097656,1.0800781.2558594,2.7148438.75,3.5703125,1.8603516.4345703.5556641.2246094,1.125-.1054688,1.2294922-.3447266.1054688-.7792969-.2695312-1.1699219-.8095703-.5996094-.8095703-1.3798828-1.4541016-2.2949219-1.9345703-.0292969,2.25-.0449219,5.3398438.0449219,5.8652344.1953125,1.0195312.3300781,1.3789062-.2246094,1.7539062-.4199219.3007812-.8251953-.75-.9453125-1.3046875-.1191406-.5703125.0302734-.375.1357422-1.4248047.0898438-1.0654297.2246094-6.8701172.0742188-8.1298828-.0595703-.5703125-.4492188-.75-.6142578-.8847656-.0302734-.0292969-.1054688-.1054688-.0898438-.1953125Zm4.0791016.8554688c.0302734-.1347656.2998047-.0898438.5400391-.0302734.2402344.0449219,1.8447266.5556641,1.9199219,1.4697266.015625.3007812-.0595703.4501953-.2402344.5097656-.1796875.0761719-.5244141.015625-.7197266-.34375-.2099609-.375-.6601562-1.0205078-1.1699219-1.3359375-.1347656-.0742188-.359375-.1640625-.3300781-.2695312Zm1.515625-1.1699219c.0146484-.1201172.2695312-.0898438.5097656-.0449219.2246094.0449219,1.7695312.4648438,1.875,1.3496094.0292969.2695312-.0449219.4199219-.2099609.4951172-.1806641.0751953-.5107422.0146484-.7050781-.3154297-.2099609-.359375-.6601562-.9443359-1.1552734-1.2148438-.1347656-.0898438-.3447266-.1640625-.3144531-.2695312Z"/>
    </g>
    <g>
      <path d="m.5107422,208.09375c-.4765625-.2382812-.5107422-.3740234-.5107422-1.2919922,0-1.7001953.1367188-3.0595703.1708984-3.6035156.0332031-.3740234.1015625-.5439453.2714844-.5439453.2041016,0,.2382812.1015625.2382812.3740234,0,.3056641,0,.7822266.1015625,1.2578125.5097656,2.515625,2.7539062,3.4677734,5.03125,3.4677734,3.2636719,0,4.8623047-2.3457031,4.8623047-4.5214844,0-2.3457031-.9863281-3.7060547-3.9101562-6.1191406l-1.5292969-1.2578125c-3.6044922-2.9589844-4.4199219-5.0664062-4.4199219-7.3779297,0-3.6376953,2.7197266-6.1191406,7.0371094-6.1191406,1.3261719,0,2.3115234.1357422,3.1621094.3398438.6455078.1357422.9179688.1699219,1.1894531.1699219.2724609,0,.3398438.0673828.3398438.2373047,0,.1708984-.1357422,1.2929688-.1357422,3.6044922,0,.5439453-.0683594.7822266-.2382812.7822266-.2041016,0-.2373047-.1699219-.2714844-.4423828-.0341797-.4082031-.2382812-1.3261719-.4423828-1.7001953-.2041016-.3730469-1.1220703-1.8017578-4.2490234-1.8017578-2.3457031,0-4.1816406,1.4619141-4.1816406,3.9443359,0,1.9375.8837891,3.1611328,4.1474609,5.7109375l.9521484.7480469c4.0117188,3.1621094,4.9628906,5.2695312,4.9628906,7.9892578,0,1.3935547-.5439453,3.9775391-2.8896484,5.6435547-1.4619141,1.0195312-3.2978516,1.4277344-5.1337891,1.4277344-1.5976562,0-3.1611328-.2382812-4.5546875-.9179688Z"/>
      <path d="m22.3720703,199.0839844c0,4.1484375.7822266,5.9160156,2.0742188,7.0722656,1.4609375,1.2910156,3.0927734,1.5634766,4.4873047,1.5634766,1.7675781,0,3.3652344-.4755859,4.6572266-1.9716797,1.3603516-1.5644531,1.6660156-4.1484375,1.6660156-7.1054688v-3.6035156c0-4.453125,0-5.2353516-.0683594-6.1533203-.0673828-.9863281-.1699219-1.4960938-1.2578125-1.6660156-.2382812-.0341797-.6455078-.0673828-.9521484-.0673828-.203125,0-.3398438-.1025391-.3398438-.2050781,0-.203125.1699219-.2714844.4765625-.2714844,1.4619141,0,3.1611328.1015625,3.2978516.1015625.1699219,0,1.6308594-.1015625,2.5830078-.1015625.3398438,0,.4765625.0683594.4765625.2382812,0,.1357422-.1367188.2382812-.3408203.2382812-.203125,0-.2714844,0-.6113281.0332031-.9521484.1015625-1.0878906.7138672-1.15625,1.7001953-.0341797.9179688-.0341797,1.7001953-.0341797,6.1533203v3.0253906c0,3.0605469-.3398438,6.7314453-2.7529297,8.8046875-2.2099609,1.8710938-4.3857422,2.0410156-6.2216797,2.0410156-.9521484,0-4.1474609,0-6.3574386-2.0410156-1.4618974-1.359375-2.5156083-3.3984375-2.5156083-7.6152344v-4.2148438c0-4.4882812,0-5.2695312-.1025391-6.1875-.0332031-.9179688-.203125-1.4960938-1.2578125-1.6318359-.203125-.0341797-.6113281-.0673828-.8837891-.0673828-.2373047,0-.3740234-.1025391-.3740234-.2050781,0-.203125.1367188-.2714844.5097656-.2714844,1.4619141,0,3.2978516.1015625,3.5361328.1015625.2724609,0,2.2773438-.1015625,3.1953125-.1015625.3740234,0,.4765625.0683594.4765625.2382812s-.2382812.2382812-.4082031.2382812c-.2041016,0-.4755859.0332031-.7480469.0673828-.8154297.1025391-.9521484.6796875-1.0195312,1.6318359-.0341797.9179688-.0341797,1.6992188-.0341797,6.1875v4.0449219Z"/>
      <path d="m46.0361328,195.0390625c0-4.4882812,0-5.3037109-.0683594-6.2216797s-.3056641-1.4277344-1.359375-1.6318359c-.2041016-.0332031-.5439453-.0683594-.8164062-.0683594-.2382812,0-.3740234-.0673828-.3740234-.203125,0-.1367188.1025391-.2382812.4082031-.2382812,1.4619141,0,3.5351562.1015625,3.6035156.1015625.3056641,0,2.6181641-.1015625,3.5693359-.1015625,1.9042969,0,3.9775391.1699219,5.5761719,1.2919922.6455078.4755859,2.0390625,1.8359375,2.0390625,4.1474609,0,1.8691406-.9179688,4.25-3.6035156,6.4257812,2.4824219,3.0585938,4.5214844,5.5751953,6.2558594,7.3769531,1.6318359,1.6660156,2.6513672,1.9375,3.6035156,2.0742188.2382812.0332031.9521484.0673828,1.0537109.0673828.2724609,0,.3740234.1025391.3740234.2382812,0,.1699219-.1357422.2373047-.6123047.2373047h-2.3798828c-1.5976562,0-2.3457031-.1015625-3.0927734-.4082031-1.4287109-.6113281-2.4482422-2.140625-4.2158203-4.4189453-1.3261719-1.6318359-2.6855469-3.4677734-3.2636719-4.1816406-.1357422-.1357422-.2041016-.2041016-.4082031-.2041016l-3.5019531-.0332031c-.1357422,0-.1699219.0332031-.1699219.1699219v.4755859c0,2.7197266,0,5.2011719.1699219,6.4248047.1025391.8164062.2041016,1.4960938,1.3261719,1.6328125.3398438.0332031.7138672.0673828.9863281.0673828.3056641,0,.4414062.1025391.4414062.2041016,0,.1699219-.1357422.2714844-.4755859.2714844-1.7675781,0-3.671875-.1015625-3.8076172-.1015625-.5439453,0-2.0400391.1015625-2.9580078.1015625-.3398438,0-.4755859-.0673828-.4755859-.2714844,0-.1015625.2041016-.2041016.4082031-.2041016.2373047,0,.4755859,0,.7470703-.0673828.578125-.1025391.7822266-.4765625.8837891-1.2929688.1708984-1.2226562.1367188-4.0117188.1367188-6.5605469v-5.0996094Zm2.6171875,2.4140625c0,.1699219.0341797.3398438.1699219.4082031.4423828.2373047,1.8017578.4414062,3.0263672.4414062.7138672,0,1.5634766-.0341797,2.2773438-.5097656,1.0205078-.6464844,1.7001953-2.1425781,1.7001953-4.3183594,0-3.7050781-1.9716797-5.7451172-4.9980469-5.7451172-.8496094,0-1.5634766.0683594-1.9716797.1699219-.1015625.0341797-.2041016.1357422-.2041016.3056641v9.2480469Z"/>
      <path d="m68.7138672,195.0390625c0-4.4882812,0-5.3037109-.0683594-6.2216797s-.3056641-1.4277344-1.359375-1.6318359c-.2041016-.0332031-.5439453-.0683594-.8164062-.0683594-.2382812,0-.3740234-.0673828-.3740234-.203125,0-.1367188.1025391-.2382812.4082031-.2382812,1.4619141,0,3.5351562.1015625,3.6035156.1015625.3056641,0,2.6181641-.1015625,3.5693359-.1015625,1.9042969,0,3.9775391.1699219,5.5761719,1.2919922.6455078.4755859,2.0390625,1.8359375,2.0390625,4.1474609,0,1.8691406-.9179688,4.25-3.6035156,6.4257812,2.4824219,3.0585938,4.5214844,5.5751953,6.2558594,7.3769531,1.6318359,1.6660156,2.6513672,1.9375,3.6035156,2.0742188.2382812.0332031.9521484.0673828,1.0537109.0673828.2724609,0,.3740234.1025391.3740234.2382812,0,.1699219-.1357422.2373047-.6123047.2373047h-2.3798828c-1.5976562,0-2.3457031-.1015625-3.0927734-.4082031-1.4287109-.6113281-2.4482422-2.140625-4.2158203-4.4189453-1.3261719-1.6318359-2.6855469-3.4677734-3.2636719-4.1816406-.1357422-.1357422-.2041016-.2041016-.4082031-.2041016l-3.5019531-.0332031c-.1357422,0-.1699219.0332031-.1699219.1699219v.4755859c0,2.7197266,0,5.2011719.1699219,6.4248047.1025391.8164062.2041016,1.4960938,1.3261719,1.6328125.3398438.0332031.7138672.0673828.9863281.0673828.3056641,0,.4414062.1025391.4414062.2041016,0,.1699219-.1357422.2714844-.4755859.2714844-1.7675781,0-3.671875-.1015625-3.8076172-.1015625-.5439453,0-2.0400391.1015625-2.9580078.1015625-.3398438,0-.4755859-.0673828-.4755859-.2714844,0-.1015625.2041016-.2041016.4082031-.2041016.2373047,0,.4755859,0,.7470703-.0673828.578125-.1025391.7822266-.4765625.8837891-1.2929688.1708806-1.2226562.1367188-4.0117188.1367188-6.5605469v-5.0996094Zm2.6171875,2.4140625c0,.1699219.0341797.3398438.1699219.4082031.4423828.2373047,1.8017578.4414062,3.0263672.4414062.7138672,0,1.5634766-.0341797,2.2773438-.5097656,1.0205078-.6464844,1.7001953-2.1425781,1.7001953-4.3183594,0-3.7050781-1.9716797-5.7451172-4.9980469-5.7451172-.8496094,0-1.5634766.0683594-1.9716797.1699219-.1015625.0341797-.2041016.1357422-.2041016.3056641v9.2480469Z"/>
      <path d="m87.9580078,197.5546875c0-4.5214844,3.5009766-11.2871094,11.8984375-11.2871094,6.7314453,0,11.8652344,4.0117188,11.8652344,10.8457031,0,6.4921875-4.7939453,11.796875-12.0351562,11.796875-8.3291016,0-11.7285156-6.1875-11.7285156-11.3554688Zm20.5673828.4082031c0-6.8339844-4.2158203-10.640625-8.8730469-10.640625-4.7255859,0-8.5332031,2.9238281-8.5332031,9.3486328,0,6.6630859,3.7060547,11.0830078,9.4169922,11.0830078,2.2783203,0,7.9892578-1.15625,7.9892578-9.7910156Z"/>
      <path d="m119.9853516,199.0839844c0,4.1484375.7822266,5.9160156,2.0742188,7.0722656,1.4609375,1.2910156,3.0927734,1.5634766,4.4873047,1.5634766,1.7675781,0,3.3652344-.4755859,4.6572266-1.9716797,1.3603516-1.5644531,1.6660156-4.1484375,1.6660156-7.1054688v-3.6035156c0-4.453125,0-5.2353516-.0683594-6.1533203-.0673828-.9863281-.1699219-1.4960938-1.2578125-1.6660156-.2382812-.0341797-.6455078-.0673828-.9521484-.0673828-.203125,0-.3398438-.1025391-.3398438-.2050781,0-.203125.1699219-.2714844.4765625-.2714844,1.4619141,0,3.1611328.1015625,3.2978516.1015625.1699219,0,1.6308594-.1015625,2.5830078-.1015625.3398438,0,.4765625.0683594.4765625.2382812,0,.1357422-.1367188.2382812-.3408203.2382812-.203125,0-.2714844,0-.6113281.0332031-.9521484.1015625-1.0878906.7138672-1.15625,1.7001953-.0341797.9179688-.0341797,1.7001953-.0341797,6.1533203v3.0253906c0,3.0605469-.3398438,6.7314453-2.7529297,8.8046875-2.2099609,1.8710938-4.3857422,2.0410156-6.2216797,2.0410156-.9521484,0-4.1474609,0-6.3574219-2.0410156-1.4619141-1.359375-2.515625-3.3984375-2.515625-7.6152344v-4.2148438c0-4.4882812,0-5.2695312-.1025391-6.1875-.0332031-.9179688-.203125-1.4960938-1.2578125-1.6318359-.203125-.0341797-.6113281-.0673828-.8837891-.0673828-.2373047,0-.3740234-.1025391-.3740234-.2050781,0-.203125.1367188-.2714844.5097656-.2714844,1.4619141,0,3.2978516.1015625,3.5361328.1015625.2724609,0,2.2773438-.1015625,3.1953125-.1015625.3740234,0,.4765625.0683594.4765625.2382812s-.2382812.2382812-.4082031.2382812c-.2041016,0-.4755859.0332031-.7480469.0673828-.8154297.1025391-.9521484.6796875-1.0195312,1.6318359-.0341797.9179688-.0341797,1.6992188-.0341797,6.1875v4.0449219Z"/>
      <path d="m142.6972656,187.6621094c0-1.0546875.1015625-1.3945312.3740234-1.3945312.2382812,0,.8154297.6796875,1.0537109.9179688.3056641.3398438,5.03125,5.1679688,9.7910156,10.0292969,2.6513672,2.5839844,6.0517578,6.0859375,6.9355469,6.9013672l-.3740234-14.1425781c-.0341797-1.8359375-.2382812-2.4482422-1.15625-2.6865234-.578125-.1015625-1.0878906-.1347656-1.3251953-.1347656-.3408203,0-.4082031-.1367188-.4082031-.2724609,0-.1699219.2714844-.2041016.6123047-.2041016,1.4609375,0,2.8896484.1015625,3.1953125.1015625.3398438,0,1.3935547-.1015625,2.7197266-.1015625.3740234,0,.4755859.0341797.4755859.2041016,0,.1357422-.1015625.2373047-.3056641.2724609-.2041016.0332031-.4755859.0332031-.8496094.1015625-.7822266.1699219-1.0205078.5097656-1.0205078,2.5498047l-.0673828,17.0654297c0,1.7001953-.0683594,1.8710938-.3066406,1.8710938-.2373047,0-.5771484-.2382812-2.2431641-1.8027344-.1367188-.0683594-4.8613281-4.7597656-7.8193359-7.6484375-3.5361328-3.671875-6.9355469-7.2080078-7.7851562-8.0917969l.4414062,13.2929688c.0683594,2.3457031.2724609,3.2294922,1.1220703,3.4335938.5439453.1357422,1.1220703.1357422,1.3935547.1357422.2724609,0,.4082031.1025391.4082031.2382812,0,.1699219-.1699219.2373047-.5439453.2373047-1.8359375,0-3.0595703-.1015625-3.2978516-.1015625-.2373047,0-1.4951172.1015625-2.9570312.1015625-.3066406,0-.5107422-.0332031-.5107422-.2373047,0-.1357422.1367188-.2382812.4765625-.2382812.2382812,0,.6113281,0,1.0537109-.1357422.7480469-.2382812.9179688-1.15625.9179688-3.6376953,0-16.2158203.0341797-10.9814453,0-16.6240234Z"/>
      <path d="m172.140625,195.0390625c0-4.4882812,0-5.3378906-.0683594-6.2216797-.0673828-.9179688-.3398438-1.3935547-1.3251953-1.5976562-.2041016-.0341797-.7138672-.0673828-.9863281-.0673828-.1699219,0-.3398438-.1025391-.3398438-.2050781,0-.203125.2041016-.2714844.5097656-.2714844,1.3935547,0,3.5361328.1015625,3.6376953.1015625.2382812,0,2.0058594-.1015625,3.9091797-.1015625,2.9921875,0,8.5673828-.3066406,12.1708984,3.3320312,1.4960938,1.4960938,2.8896484,3.875,2.8896484,7.3085938,0,3.6035156-1.5634766,6.4257812-3.2294922,8.125-1.3251953,1.3261719-3.9091797,3.3320312-9.0771484,3.3320312-1.2919922,0-2.9570312-.0683594-4.2490234-.1699219-1.2919922-.0683594-2.3457031-.1699219-2.4482422-.1699219-.0673828,0-.5097656,0-1.1552734.0341797-.6464844,0-1.4619141.0673828-1.9716797.0673828-.3066406,0-.4765625-.0673828-.4765625-.2373047,0-.1025391.1025391-.2382812.3740234-.2382812.2724609,0,.5097656-.0341797.7822266-.1025391.578125-.1015625.78125-.8154297.8837891-1.5634766.2041016-1.2578125.1699219-3.5693359.1699219-6.3232422v-5.03125Zm2.7880859,2.8896484c0,3.0595703.0332031,5.7119141.0332031,6.2216797.0341797,1.0537109.1025391,1.9716797.3398438,2.2773438.3740234.578125,1.4619141,1.2919922,4.9980469,1.2919922,2.7880859,0,5.3037109-.8837891,7.0712891-2.6513672,1.4960938-1.4960938,2.2099609-4.0458984,2.2099609-6.765625,0-3.8417969-1.7675781-6.1875-2.9238281-7.3095703-2.8896484-2.8896484-6.2216797-3.2294922-9.5869141-3.2294922-.4765625,0-1.5302734.1015625-1.734375.2382812-.2714844.1357422-.3740234.2714844-.3740234.578125-.0332031.9853516-.0332031,3.875-.0332031,5.9150391v3.4335938Z"/>
    </g>
    <path class="cls-1" d="m70.4746094,111.9863281c-2.0703125-1.0351562-2.21875-1.6269531-2.21875-5.6210938,0-7.3964844.5917969-13.3144531.7402344-15.6816406.1484375-1.6269531.4433594-2.3662109,1.1835938-2.3662109.8867188,0,1.0351562.4433594,1.0351562,1.6269531,0,1.3310547,0,3.4023438.4433594,5.4736328,2.2197266,10.9472656,11.9833984,15.0888672,21.8945312,15.0888672,14.2021484,0,21.1542969-10.2070312,21.1542969-19.6748047,0-10.2080078-4.2890625-16.125-17.0117188-26.6279297l-6.6572266-5.4736328c-15.6806641-12.8701172-19.2314453-22.0419922-19.2314453-32.1015625,0-15.8291016,11.8349609-26.6289062,30.6230469-26.6289062,5.7685547,0,10.0585938.5917969,13.7578125,1.4794922,2.8105277.5917969,3.9941406.7402344,5.1777344.7402344,1.1826172,0,1.4785156.2958984,1.4785156,1.0351562,0,.7402344-.5917969,5.6220703-.5917969,15.6806641,0,2.3671875-.2949219,3.4033203-1.0351562,3.4033203-.8876953,0-1.0351562-.7402344-1.1835938-1.9238281-.1484375-1.7744141-1.0351754-5.7695312-1.9238281-7.3964844-.8867188-1.6269531-4.8808594-7.8408203-18.4912109-7.8408203-10.2080078,0-18.1962891,6.3613281-18.1962891,17.1611328,0,8.4316406,3.8466797,13.7578125,18.0488281,24.8525391l4.1416016,3.2548828c17.4560547,13.7578125,21.5986328,22.9296875,21.5986328,34.7636719,0,6.0654297-2.3671875,17.3085938-12.5742188,24.5576172-6.3613281,4.4375-14.3496094,6.2128906-22.3378906,6.2128906-6.953125,0-13.7578125-1.0351562-19.8242188-3.9941406Z"/>
  </g>
</svg>